<svg xmlns="http://www.w3.org/2000/svg" xmlns:xlink="http://www.w3.org/1999/xlink" viewBox="0 0 197.99 158.922"><defs><linearGradient id="New_Gradient_Swatch" y1="119.894" x2="197.99" y2="119.894" gradientUnits="userSpaceOnUse"><stop offset="0" stop-color="#ef4136"/><stop offset="0.144" stop-color="#f15238"/><stop offset="0.725" stop-color="#f8933e"/><stop offset="1" stop-color="#fbac40"/></linearGradient><linearGradient id="New_Gradient_Swatch-2" x1="11.59" y1="79.341" x2="169.968" y2="79.341" xlink:href="#New_Gradient_Swatch"/><linearGradient id="New_Gradient_Swatch-3" x1="30.18" y1="18.481" x2="121.409" y2="18.481" xlink:href="#New_Gradient_Swatch"/></defs><g id="Layer_2" data-name="Layer 2"><g id="Layer_1-2" data-name="Layer 1"><path d="M6.72,146.938c11.941,31.361,164.8-17.973,173.23-14.437C270.441,80.72-42.142,46.416,6.72,146.938Z" fill="none" stroke-linecap="round" stroke-linejoin="round" stroke-width="3" stroke="url(#New_Gradient_Swatch)"/><path d="M10.542,123.862c10.754,28.246,148.427-16.188,156.021-13C248.065,64.222-33.466,33.326,10.542,123.862Z" fill="none" stroke="#072c50" stroke-linecap="round" stroke-linejoin="round"/><path d="M17.25,100.891c9.515,24.99,131.319-14.322,138.038-11.5C227.4,48.124-21.686,20.789,17.25,100.891Z" fill="none" stroke-linecap="round" stroke-linejoin="round" stroke-width="3" stroke="url(#New_Gradient_Swatch-2)"/><path d="M24.867,65.778c7.489,19.668,103.353-11.272,108.641-9.054C190.259,24.249-5.776,2.736,24.867,65.778Z" fill="none" stroke="#072c50" stroke-linecap="round" stroke-linejoin="round"/><path d="M34.042,30.718c5.4,14.19,74.568-8.133,78.383-6.533C153.371.755,11.933-14.767,34.042,30.718Z" fill="none" stroke-linecap="round" stroke-linejoin="round" stroke-width="3" stroke="url(#New_Gradient_Swatch-3)"/></g></g></svg>