<svg xmlns="http://www.w3.org/2000/svg" viewBox="0 0 205 205"><g id="Layer_2" data-name="Layer 2"><g id="Layer_1-2" data-name="Layer 1"><path d="M21.877,180.9a.152.152,0,0,1-.142-.1l-1.66-4.637H13.939L12.3,180.8a.151.151,0,0,1-.141.1h-.851c-.06,0-.081-.04-.06-.1l5.122-13.971a.153.153,0,0,1,.142-.1H17.6a.152.152,0,0,1,.142.1l5.1,13.971c.02.061,0,.1-.061.1Zm-2.106-5.628-2.754-7.715-2.753,7.715Z" fill="#072c50"/><path d="M31.416,181.1c-2.653,0-4.293-1.195-4.333-3.787a.1.1,0,0,1,.1-.1h.769a.1.1,0,0,1,.1.1c.04,2.086,1.215,3.038,3.381,3.038,1.782,0,3.058-.81,3.058-2.247,0-3.382-7.168-.932-7.168-4.982,0-1.883,1.579-2.855,3.806-2.855,2.207,0,3.969.972,4.03,3.179a.1.1,0,0,1-.1.1h-.729a.1.1,0,0,1-.1-.1c-.081-1.721-1.417-2.429-3.1-2.429-1.741,0-2.855.688-2.855,2.065,0,3.077,7.188.627,7.188,4.96C35.465,179.966,33.7,181.1,31.416,181.1Z" fill="#072c50"/><path d="M44.62,181.1c-2.653,0-4.293-1.195-4.333-3.787a.1.1,0,0,1,.1-.1h.769a.1.1,0,0,1,.1.1c.04,2.086,1.215,3.038,3.381,3.038,1.782,0,3.058-.81,3.058-2.247,0-3.382-7.168-.932-7.168-4.982,0-1.883,1.579-2.855,3.806-2.855,2.207,0,3.969.972,4.03,3.179a.1.1,0,0,1-.1.1h-.729a.1.1,0,0,1-.1-.1c-.081-1.721-1.418-2.429-3.1-2.429-1.741,0-2.855.688-2.855,2.065,0,3.077,7.188.627,7.188,4.96C48.669,179.966,46.908,181.1,44.62,181.1Z" fill="#072c50"/><path d="M62.4,177.212c.061,0,.1.041.081.1a4.058,4.058,0,0,1-4.292,3.807c-3.078,0-4.7-2.207-4.7-5.406s1.782-5.467,4.576-5.467c2.774,0,4.435,1.943,4.476,5.3a.1.1,0,0,1-.1.1l-7.958.021c0,2.935,1.256,4.656,3.726,4.656,1.9,0,2.957-1.134,3.28-3.017a.13.13,0,0,1,.122-.1Zm-4.333-6.176c-2.065,0-3.3,1.479-3.543,3.807h6.945C61.448,172.737,60.294,171.036,58.066,171.036Z" fill="#072c50"/><path d="M71.938,180.756a.113.113,0,0,1-.1.121,5.094,5.094,0,0,1-1.154.183c-1.357,0-2.369-.689-2.369-2.9V171.3H67.079a.1.1,0,0,1-.1-.1v-.628a.1.1,0,0,1,.1-.1h1.235l-.021-2.511a.1.1,0,0,1,.1-.1h.83a.1.1,0,0,1,.1.1l-.02,2.511h2.531a.1.1,0,0,1,.1.1v.628a.1.1,0,0,1-.1.1H69.306v6.864c0,1.559.405,2.024,1.438,2.024a4.4,4.4,0,0,0,1.093-.121.092.092,0,0,1,.1.081Z" fill="#072c50"/><path d="M89.253,181.08c-3.564,0-5.406-1.884-5.548-5.022a.1.1,0,0,1,.1-.1h.871a.1.1,0,0,1,.1.1c.162,2.591,1.4,4.151,4.515,4.151,2.269,0,4.07-.932,4.07-3.26,0-4.474-9.354-1.356-9.354-6.621,0-2.491,2.025-3.807,4.88-3.807,3.178,0,5.021,1.458,5.2,4.333a.1.1,0,0,1-.1.1h-.87a.1.1,0,0,1-.1-.1c-.142-2.329-1.457-3.442-4.151-3.442-2.43,0-3.888.911-3.888,2.855,0,4.171,9.355,1.134,9.355,6.6C94.335,179.7,92.169,181.08,89.253,181.08Z" fill="#072c50"/><path d="M102.842,181.141c-2.086,0-3.4-1.357-3.4-4.212v-1.985l-.02-4.374a.1.1,0,0,1,.1-.1h.831a.1.1,0,0,1,.1.1l-.02,4.374v1.883c0,2.511,1.052,3.463,2.632,3.463,1.559,0,2.612-1.175,3.3-3.078v-2.268l-.02-4.374a.1.1,0,0,1,.1-.1h.83a.1.1,0,0,1,.1.1l-.041,4.476.02,5.75a.1.1,0,0,1-.1.1h-.79a.1.1,0,0,1-.1-.1l.041-2.045A4.013,4.013,0,0,1,102.842,181.141Z" fill="#072c50"/><path d="M113.028,180.9a.1.1,0,0,1-.1-.1l.041-5.284-.041-4.942a.1.1,0,0,1,.1-.1h.83a.1.1,0,0,1,.1.1l-.081,1.905a3.865,3.865,0,0,1,3.422-2.127,2.88,2.88,0,0,1,.769.081.151.151,0,0,1,.1.141v.669a.093.093,0,0,1-.1.081,2.562,2.562,0,0,0-.749-.1,3.452,3.452,0,0,0-3.4,3.361l.041,6.216a.1.1,0,0,1-.1.1Z" fill="#072c50"/><path d="M127.993,180.816a.152.152,0,0,1-.142.1h-1.033a.152.152,0,0,1-.141-.1l-3.908-10.246c-.02-.06,0-.1.061-.1h.911a.152.152,0,0,1,.141.1l3.463,9.4,3.4-9.4a.152.152,0,0,1,.141-.1h.83c.061,0,.081.04.061.1Z" fill="#072c50"/><path d="M144.72,177.212c.061,0,.1.041.081.1a4.059,4.059,0,0,1-4.293,3.807c-3.077,0-4.7-2.207-4.7-5.406s1.781-5.467,4.576-5.467c2.774,0,4.434,1.943,4.475,5.3a.1.1,0,0,1-.1.1l-7.957.021c0,2.935,1.255,4.656,3.725,4.656,1.9,0,2.957-1.134,3.281-3.017a.129.129,0,0,1,.121-.1Zm-4.333-6.176c-2.066,0-3.3,1.479-3.544,3.807h6.946C143.768,172.737,142.614,171.036,140.387,171.036Z" fill="#072c50"/><path d="M152.72,184.238a.153.153,0,0,1-.142.1h-.749a.071.071,0,0,1-.061-.1l1.174-3.341-4.069-10.327c-.021-.06,0-.1.06-.1h.932a.152.152,0,0,1,.141.1l3.463,8.91,2.956-8.91a.152.152,0,0,1,.142-.1h.871c.06,0,.081.04.06.1Z" fill="#072c50"/><path d="M162.521,169.3a.1.1,0,0,1-.1-.1v-1.235a.1.1,0,0,1,.1-.1h.831a.1.1,0,0,1,.1.1v1.235a.1.1,0,0,1-.1.1Zm0,11.6a.1.1,0,0,1-.1-.1l.02-5.406-.02-4.82a.1.1,0,0,1,.1-.1h.831a.1.1,0,0,1,.1.1l-.021,4.8.021,5.426a.1.1,0,0,1-.1.1Z" fill="#072c50"/><path d="M169.2,180.9a.1.1,0,0,1-.1-.1l.041-4.475-.021-5.751a.1.1,0,0,1,.1-.1h.79a.1.1,0,0,1,.1.1l-.04,2.046a4.01,4.01,0,0,1,3.564-2.389c2.085,0,3.4,1.356,3.4,4.211v1.985l.021,4.373a.1.1,0,0,1-.1.1h-.83a.1.1,0,0,1-.1-.1l.02-4.373v-1.884c0-2.511-1.053-3.462-2.632-3.462-1.56,0-2.612,1.174-3.3,3.077v2.269l.021,4.373a.1.1,0,0,1-.1.1Z" fill="#072c50"/><path d="M186.478,184.806c-2.167.019-3.949-.932-4.131-3.2a.1.1,0,0,1,.1-.1h.79a.1.1,0,0,1,.1.1c.2,1.7,1.539,2.43,3.159,2.43,1.923,0,3.3-1.275,3.3-4.191V178.73a3.621,3.621,0,0,1-3.4,2.127c-2.794,0-4.252-2.167-4.252-5.164s1.458-5.406,4.252-5.406a3.548,3.548,0,0,1,3.422,2.207l-.04-1.924a.1.1,0,0,1,.1-.1h.81a.1.1,0,0,1,.1.1l-.04,3.1v6.176C190.77,183.125,189.109,184.806,186.478,184.806Zm.141-4.718c1.883-.021,3.2-1.377,3.219-4.314.021-2.956-1.214-4.738-3.32-4.738-2.248,0-3.361,1.944-3.361,4.638C183.157,178.427,184.27,180.107,186.619,180.088Z" fill="#072c50"/><path d="M30.43,124.589c9.3,24.427,128.36-14,134.928-11.245C235.84,73.012-7.628,46.293,30.43,124.589Z" fill="none" stroke="#072c50" stroke-linecap="round" stroke-linejoin="round" stroke-width="3"/><path d="M33.407,106.615c8.377,22,115.609-12.608,121.524-10.127C218.411,60.162-.87,36.1,33.407,106.615Z" fill="none" stroke="#072c50" stroke-linecap="round" stroke-linejoin="round"/><path d="M38.632,88.723c7.411,19.464,102.283-11.155,107.517-8.96C202.313,47.624,8.305,26.333,38.632,88.723Z" fill="none" stroke="#072c50" stroke-linecap="round" stroke-linejoin="round" stroke-width="3"/><path d="M44.565,61.374c5.833,15.319,80.5-8.78,84.619-7.052C173.387,29.028,20.7,12.271,44.565,61.374Z" fill="none" stroke="#072c50" stroke-linecap="round" stroke-linejoin="round"/><path d="M51.711,34.066c4.208,11.052,58.08-6.335,61.052-5.088C144.655,10.728,34.49-1.362,51.711,34.066Z" fill="none" stroke="#072c50" stroke-linecap="round" stroke-linejoin="round" stroke-width="3"/><line x1="11.172" y1="156.588" x2="193.433" y2="156.588" fill="none" stroke="#072c50" stroke-linecap="round" stroke-linejoin="round"/><rect x="1" y="1" width="203" height="203" rx="26.944" stroke-width="2" stroke="#072c50" stroke-linecap="round" stroke-linejoin="round" fill="none"/></g></g></svg>