<svg xmlns="http://www.w3.org/2000/svg" xmlns:xlink="http://www.w3.org/1999/xlink" viewBox="0 0 148.59 189.33"><defs><linearGradient id="New_Gradient_Swatch" x1="2.721" y1="108.48" x2="72.559" y2="108.48" gradientUnits="userSpaceOnUse"><stop offset="0" stop-color="#ef4136"/><stop offset="0.144" stop-color="#f15238"/><stop offset="0.725" stop-color="#f8933e"/><stop offset="1" stop-color="#fbac40"/></linearGradient></defs><g id="Layer_2" data-name="Layer 2"><g id="Layer_1-2" data-name="Layer 1"><polyline points="72.032 186.33 145.59 138.8 145.59 59.583 72.032 96.362" fill="none" stroke="#072c50" stroke-linecap="round" stroke-linejoin="round" stroke-width="6"/><polyline points="145.59 59.583 108.245 3 34.687 33.555" fill="none" stroke="#072c50" stroke-linecap="round" stroke-linejoin="round" stroke-width="6"/><path d="M60.431,178.481V78.944M47.873,170.573V59.874M34.849,162.2V38.479M23.686,155.69V46.851m-12.093,101.4V57.084m60.466,110.7L3.221,126.852m68.838,27.907-68.838-40m68.838,27.907-68.838-40m68.838,24.186L3.221,91.5M72.059,112.9,3.221,75.688M72.059,98.014,3.221,64.526m11.163-7.442,44.652,18.6M47.873,59.874,23.686,48.711" fill="none" stroke-linecap="round" stroke-linejoin="round" stroke="url(#New_Gradient_Swatch)"/><polygon points="3 143.327 3 64.11 34.687 33.555 72.032 94.665 72.032 185.198 3 143.327" fill="none" stroke="#072c50" stroke-linecap="round" stroke-linejoin="round" stroke-width="6"/></g></g></svg>