<svg xmlns="http://www.w3.org/2000/svg" viewBox="0 0 205 205"><g id="Layer_2" data-name="Layer 2"><g id="Layer_1-2" data-name="Layer 1"><path d="M21,183.091a.084.084,0,0,1-.089-.089l.036-6.442-.036-5.771A.084.084,0,0,1,21,170.7h4.3c2.478,0,4.124,1.079,4.124,2.92a2.642,2.642,0,0,1-2.389,2.815c1.965.477,2.743,1.54,2.779,3.044,0,2.584-1.983,3.611-4.532,3.611Zm.8-6.991h3.47c1.982,0,3.221-.567,3.221-2.284,0-1.593-1.256-2.372-3.221-2.372H21.829Zm.036,6.23h3.434c2.159,0,3.628-.779,3.628-2.832,0-1.894-1.734-2.638-3.628-2.638h-3.47Z" fill="#072c50"/><path d="M37.462,183.3c-1.823,0-2.974-1.186-2.974-3.682v-1.734l-.017-3.824a.083.083,0,0,1,.088-.087h.726a.083.083,0,0,1,.088.087l-.018,3.824v1.646c0,2.2.921,3.027,2.3,3.027,1.364,0,2.284-1.027,2.886-2.691v-1.982l-.018-3.824a.083.083,0,0,1,.088-.087h.726a.083.083,0,0,1,.089.087l-.036,3.913L41.409,183a.083.083,0,0,1-.089.089h-.69a.083.083,0,0,1-.088-.089l.035-1.787A3.509,3.509,0,0,1,37.462,183.3Z" fill="#072c50"/><path d="M46.457,172.948a.083.083,0,0,1-.088-.088v-1.08a.084.084,0,0,1,.088-.089h.726a.084.084,0,0,1,.088.089v1.08a.083.083,0,0,1-.088.088Zm0,10.143a.083.083,0,0,1-.088-.089l.017-4.726-.017-4.213a.083.083,0,0,1,.088-.087h.726a.083.083,0,0,1,.088.087l-.017,4.2L47.271,183a.083.083,0,0,1-.088.089Z" fill="#072c50"/><path d="M52.388,183.091A.083.083,0,0,1,52.3,183l.035-6.231-.035-5.982a.083.083,0,0,1,.088-.088H53.1a.084.084,0,0,1,.089.088l-.036,5.947L53.185,183a.084.084,0,0,1-.089.089Z" fill="#072c50"/><path d="M64.585,183.091A.083.083,0,0,1,64.5,183l.035-1.734a3.216,3.216,0,0,1-3.062,2c-2.372,0-3.646-2.071-3.646-4.726,0-2.62,1.292-4.762,3.646-4.762a3.161,3.161,0,0,1,3.027,1.912l-.018-4.9a.083.083,0,0,1,.088-.088h.726a.083.083,0,0,1,.089.088l-.035,4.886L65.382,183a.083.083,0,0,1-.089.089Zm-2.956-.514c1.77,0,2.921-1.327,2.938-3.946.018-2.6-1.061-4.178-2.9-4.178-2.054,0-2.956,1.788-2.956,4C58.709,180.736,59.611,182.577,61.629,182.577Z" fill="#072c50"/><path d="M70.413,172.948a.083.083,0,0,1-.089-.088v-1.08a.085.085,0,0,1,.089-.089h.726a.085.085,0,0,1,.088.089v1.08a.083.083,0,0,1-.088.088Zm0,10.143a.083.083,0,0,1-.089-.089l.018-4.726-.018-4.213a.083.083,0,0,1,.089-.087h.726a.083.083,0,0,1,.088.087l-.018,4.2L71.227,183a.084.084,0,0,1-.088.089Z" fill="#072c50"/><path d="M76.255,183.091a.083.083,0,0,1-.088-.089l.035-3.911-.017-5.028a.083.083,0,0,1,.088-.087h.69a.083.083,0,0,1,.089.087l-.035,1.789a3.507,3.507,0,0,1,3.115-2.089c1.823,0,2.973,1.186,2.973,3.681v1.735L83.123,183a.083.083,0,0,1-.088.089h-.726A.084.084,0,0,1,82.22,183l.018-3.823v-1.646c0-2.195-.921-3.027-2.3-3.027-1.363,0-2.283,1.027-2.885,2.69v1.983L77.069,183a.083.083,0,0,1-.088.089Z" fill="#072c50"/><path d="M91.357,186.507c-1.894.017-3.452-.815-3.611-2.8a.083.083,0,0,1,.088-.088h.691a.083.083,0,0,1,.088.088c.177,1.487,1.345,2.124,2.762,2.124,1.681,0,2.885-1.115,2.885-3.664V181.2a3.167,3.167,0,0,1-2.974,1.859c-2.443,0-3.717-1.9-3.717-4.514s1.274-4.726,3.717-4.726a3.1,3.1,0,0,1,2.991,1.929l-.035-1.682a.083.083,0,0,1,.089-.087h.708a.083.083,0,0,1,.088.087l-.035,2.708v5.4C95.109,185.038,93.658,186.507,91.357,186.507Zm.123-4.124c1.647-.018,2.8-1.2,2.815-3.771.018-2.584-1.062-4.141-2.9-4.141-1.964,0-2.938,1.7-2.938,4.053C88.454,180.932,89.428,182.4,91.48,182.383Z" fill="#072c50"/><path d="M110.054,177.993h-2.921l.036,5.009a.084.084,0,0,1-.089.089h-.743a.084.084,0,0,1-.089-.089l.036-6.39-.036-5.823a.084.084,0,0,1,.089-.088H110c2.531,0,4.195,1.221,4.195,3.611C114.2,176.86,112.479,177.993,110.054,177.993Zm-2.921-1.381v.638h2.956c1.983,0,3.186-.8,3.186-2.938,0-1.948-1.186-2.85-3.256-2.85h-2.85Z" fill="#072c50"/><path d="M122.518,174.488c-1.38,0-2.336,1.063-2.938,2.708l.035,5.806a.083.083,0,0,1-.088.089h-.708a.084.084,0,0,1-.089-.089l.036-6.248-.036-5.965a.084.084,0,0,1,.089-.088h.708a.083.083,0,0,1,.088.088l-.035,5.045a3.464,3.464,0,0,1,3.1-2.071c1.858,0,2.991,1.168,2.991,3.753v1.734l.018,3.752a.084.084,0,0,1-.089.089h-.726a.083.083,0,0,1-.088-.089l.018-3.734v-1.735C124.8,175.32,123.881,174.488,122.518,174.488Z" fill="#072c50"/><path d="M132.876,186.012a.132.132,0,0,1-.123.088H132.1a.062.062,0,0,1-.053-.088l1.026-2.921-3.557-9.028c-.018-.052,0-.087.052-.087h.815a.134.134,0,0,1,.124.087l3.026,7.789,2.585-7.789a.133.133,0,0,1,.124-.087H137c.053,0,.07.035.053.087Z" fill="#072c50"/><path d="M144.491,183.268c-2.319,0-3.752-1.044-3.788-3.31a.084.084,0,0,1,.089-.089h.672a.083.083,0,0,1,.089.089c.035,1.823,1.062,2.655,2.956,2.655,1.557,0,2.673-.708,2.673-1.965,0-2.956-6.266-.814-6.266-4.354,0-1.647,1.38-2.5,3.327-2.5,1.93,0,3.469.849,3.523,2.779a.085.085,0,0,1-.089.089h-.637a.085.085,0,0,1-.089-.089c-.07-1.5-1.239-2.124-2.708-2.124-1.522,0-2.5.6-2.5,1.806,0,2.69,6.283.549,6.283,4.336C148.031,182.276,146.491,183.268,144.491,183.268Z" fill="#072c50"/><path d="M152.742,172.948a.083.083,0,0,1-.088-.088v-1.08a.084.084,0,0,1,.088-.089h.726a.085.085,0,0,1,.089.089v1.08a.084.084,0,0,1-.089.088Zm0,10.143a.083.083,0,0,1-.088-.089l.017-4.726-.017-4.213a.083.083,0,0,1,.088-.087h.726a.083.083,0,0,1,.089.087l-.018,4.2.018,4.743a.084.084,0,0,1-.089.089Z" fill="#072c50"/><path d="M162.161,183.285c-2.6,0-3.983-1.876-3.983-4.725s1.381-4.78,4.018-4.78a3.385,3.385,0,0,1,3.682,3.2.094.094,0,0,1-.088.088h-.655a.113.113,0,0,1-.107-.088,2.631,2.631,0,0,0-2.832-2.5c-2.124,0-3.133,1.594-3.133,4.072s.992,4.017,3.116,4.036a2.778,2.778,0,0,0,2.973-2.78.084.084,0,0,1,.089-.088h.655a.083.083,0,0,1,.088.088A3.556,3.556,0,0,1,162.161,183.285Z" fill="#072c50"/><path d="M173.9,183.268c-2.318,0-3.752-1.044-3.788-3.31a.084.084,0,0,1,.089-.089h.673a.083.083,0,0,1,.088.089c.036,1.823,1.062,2.655,2.956,2.655,1.558,0,2.673-.708,2.673-1.965,0-2.956-6.266-.814-6.266-4.354,0-1.647,1.381-2.5,3.327-2.5,1.93,0,3.47.849,3.523,2.779a.084.084,0,0,1-.089.089h-.637a.085.085,0,0,1-.089-.089c-.07-1.5-1.238-2.124-2.708-2.124-1.522,0-2.5.6-2.5,1.806,0,2.69,6.283.549,6.283,4.336C177.439,182.276,175.9,183.268,173.9,183.268Z" fill="#072c50"/><polyline points="98.286 135.79 148.377 103.423 148.377 49.479 98.286 74.524" fill="none" stroke="#072c50" stroke-linecap="round" stroke-linejoin="round" stroke-width="6"/><polyline points="148.377 49.479 122.946 10.947 72.855 31.754" fill="none" stroke="#072c50" stroke-linecap="round" stroke-linejoin="round" stroke-width="6"/><path d="M90.386,130.445V62.663m-8.552,62.4V49.677m-8.869,69.682V35.107m-7.6,79.818V40.808m-8.236,69.049V47.776M98.3,123.16,51.427,95.287m46.877,19L51.427,87.052m46.877,19L51.427,78.817M98.3,95.287,51.427,71.215M98.3,85.785,51.427,60.446M98.3,75.649l-46.877-22.8m7.6-5.068,30.407,12.67m-7.6-10.769-16.47-7.6" fill="none" stroke="#072c50" stroke-linecap="round" stroke-linejoin="round"/><polygon points="51.277 106.506 51.277 52.561 72.855 31.754 98.286 73.368 98.286 135.02 51.277 106.506" fill="none" stroke="#072c50" stroke-linecap="round" stroke-linejoin="round" stroke-width="6"/><line x1="21.855" y1="156.858" x2="177.799" y2="156.858" fill="none" stroke="#072c50" stroke-linecap="round" stroke-linejoin="round"/><rect x="1" y="1" width="203" height="203" rx="24.667" stroke-width="2" stroke="#072c50" stroke-linecap="round" stroke-linejoin="round" fill="none"/></g></g></svg>