<svg xmlns="http://www.w3.org/2000/svg" viewBox="0 0 205 205"><g id="Layer_2" data-name="Layer 2"><g id="Layer_1-2" data-name="Layer 1"><path d="M18.589,182.409a.086.086,0,0,1-.091-.092l.037-6.684-.037-5.918a.086.086,0,0,1,.091-.091H25.8a.086.086,0,0,1,.092.091v.6a.086.086,0,0,1-.092.091H19.448l-.037,4.731h6.028a.086.086,0,0,1,.091.091v.6a.086.086,0,0,1-.091.091H19.411l.037,5.7h6.5a.086.086,0,0,1,.092.091v.6a.087.087,0,0,1-.092.092Z" fill="#072c50"/><path d="M28.982,182.409a.086.086,0,0,1-.091-.092l.037-4.036-.019-5.187A.086.086,0,0,1,29,173h.713a.086.086,0,0,1,.091.091l-.036,1.844a3.62,3.62,0,0,1,3.214-2.155c1.882,0,3.069,1.225,3.069,3.8v1.79l.018,3.944a.086.086,0,0,1-.091.092h-.749a.086.086,0,0,1-.091-.092l.018-3.944v-1.7c0-2.265-.95-3.123-2.375-3.123-1.406,0-2.356,1.059-2.977,2.776v2.046l.019,3.944a.087.087,0,0,1-.092.092Z" fill="#072c50"/><path d="M46.863,179.085c.055,0,.092.036.074.092a3.663,3.663,0,0,1-3.873,3.433c-2.776,0-4.237-1.991-4.237-4.877s1.607-4.931,4.128-4.931c2.5,0,4,1.754,4.036,4.785a.086.086,0,0,1-.091.092l-7.178.018c0,2.649,1.132,4.2,3.361,4.2a2.846,2.846,0,0,0,2.959-2.72.114.114,0,0,1,.109-.092Zm-3.908-5.57c-1.863,0-2.977,1.333-3.2,3.433h6.265C46.005,175.049,44.964,173.515,42.955,173.515Z" fill="#072c50"/><path d="M49.932,182.409a.087.087,0,0,1-.092-.092l.037-4.766-.037-4.457a.086.086,0,0,1,.092-.091h.749a.086.086,0,0,1,.091.091l-.073,1.718a3.485,3.485,0,0,1,3.087-1.918,2.6,2.6,0,0,1,.693.072.137.137,0,0,1,.092.128v.6a.084.084,0,0,1-.092.073,2.308,2.308,0,0,0-.675-.091,3.114,3.114,0,0,0-3.069,3.032l.037,5.606a.086.086,0,0,1-.091.092Z" fill="#072c50"/><path d="M59.9,185.935c-1.954.017-3.562-.841-3.726-2.886a.087.087,0,0,1,.092-.092h.712a.086.086,0,0,1,.091.092c.183,1.534,1.388,2.191,2.849,2.191,1.736,0,2.977-1.15,2.977-3.781v-1a3.266,3.266,0,0,1-3.068,1.918c-2.52,0-3.835-1.955-3.835-4.658s1.315-4.876,3.835-4.876a3.2,3.2,0,0,1,3.087,1.99l-.037-1.735a.086.086,0,0,1,.092-.091h.73a.086.086,0,0,1,.091.091l-.036,2.8v5.57C63.776,184.418,62.278,185.935,59.9,185.935Zm.128-4.256c1.7-.019,2.886-1.242,2.9-3.891.018-2.667-1.1-4.273-3-4.273-2.027,0-3.031,1.753-3.031,4.182C56.909,180.181,57.913,181.7,60.032,181.679Z" fill="#072c50"/><path d="M69.786,185.423a.139.139,0,0,1-.128.092h-.676a.064.064,0,0,1-.055-.092l1.059-3.014-3.671-9.315c-.018-.055,0-.091.055-.091h.84a.136.136,0,0,1,.128.091l3.123,8.037,2.667-8.037a.136.136,0,0,1,.128-.091h.785c.055,0,.073.036.055.091Z" fill="#072c50"/><path d="M81.165,182.409a.086.086,0,0,1-.091-.092l.036-6.684-.036-5.918a.086.086,0,0,1,.091-.091H88.38a.086.086,0,0,1,.091.091v.6a.086.086,0,0,1-.091.091H82.023l-.036,4.731h6.028a.087.087,0,0,1,.091.091v.6a.086.086,0,0,1-.091.091H81.987l.036,5.7h6.5a.086.086,0,0,1,.091.091v.6a.086.086,0,0,1-.091.092Z" fill="#072c50"/><path d="M91.558,182.409a.086.086,0,0,1-.091-.092l.036-4.766-.036-4.457a.086.086,0,0,1,.091-.091h.749a.086.086,0,0,1,.091.091l-.073,1.718a3.485,3.485,0,0,1,3.087-1.918,2.61,2.61,0,0,1,.694.072.136.136,0,0,1,.091.128v.6a.083.083,0,0,1-.091.073,2.32,2.32,0,0,0-.676-.091,3.112,3.112,0,0,0-3.068,3.032l.036,5.606a.086.086,0,0,1-.091.092Z" fill="#072c50"/><path d="M101.53,185.935c-1.954.017-3.562-.841-3.726-2.886a.087.087,0,0,1,.092-.092h.712a.086.086,0,0,1,.091.092c.183,1.534,1.388,2.191,2.849,2.191,1.736,0,2.977-1.15,2.977-3.781v-1a3.266,3.266,0,0,1-3.068,1.918c-2.52,0-3.835-1.955-3.835-4.658s1.315-4.876,3.835-4.876a3.2,3.2,0,0,1,3.087,1.99l-.037-1.735A.086.086,0,0,1,104.6,173h.73a.086.086,0,0,1,.091.091l-.036,2.8v5.57C105.4,184.418,103.9,185.935,101.53,185.935Zm.128-4.256c1.7-.019,2.886-1.242,2.9-3.891.018-2.667-1.1-4.273-3-4.273-2.027,0-3.031,1.753-3.031,4.182C98.535,180.181,99.539,181.7,101.658,181.679Z" fill="#072c50"/><path d="M112.489,182.61c-2.721,0-4.2-1.955-4.2-4.9s1.48-4.913,4.2-4.913c2.7,0,4.2,1.972,4.2,4.913C116.69,180.638,115.192,182.61,112.489,182.61Zm0-.713c2.192,0,3.269-1.625,3.269-4.182,0-2.538-1.095-4.2-3.269-4.2-2.192.017-3.288,1.643-3.288,4.2S110.315,181.9,112.489,181.9Z" fill="#072c50"/><path d="M119.63,182.409a.086.086,0,0,1-.091-.092l.037-4.036-.019-5.187a.086.086,0,0,1,.091-.091h.713a.086.086,0,0,1,.091.091l-.036,1.844a3.62,3.62,0,0,1,3.214-2.155c1.882,0,3.069,1.225,3.069,3.8v1.79l.018,3.944a.086.086,0,0,1-.091.092h-.749a.086.086,0,0,1-.091-.092l.018-3.944v-1.7c0-2.265-.95-3.123-2.374-3.123-1.407,0-2.357,1.059-2.978,2.776v2.046l.019,3.944a.087.087,0,0,1-.092.092Z" fill="#072c50"/><path d="M133.694,182.61c-2.721,0-4.2-1.955-4.2-4.9s1.48-4.913,4.2-4.913c2.7,0,4.2,1.972,4.2,4.913C137.9,180.638,136.4,182.61,133.694,182.61Zm0-.713c2.192,0,3.269-1.625,3.269-4.182,0-2.538-1.095-4.2-3.269-4.2-2.192.017-3.288,1.643-3.288,4.2S131.521,181.9,133.694,181.9Z" fill="#072c50"/><path d="M141.657,178.482l.019,3.835a.087.087,0,0,1-.092.092h-.749a.086.086,0,0,1-.091-.092l.037-3.835-.019-5.388a.086.086,0,0,1,.092-.091h.712a.086.086,0,0,1,.091.091l-.036,1.844a3.433,3.433,0,0,1,3.05-2.155,2.6,2.6,0,0,1,2.722,2.155,3.4,3.4,0,0,1,3.031-2.155c1.808,0,2.905,1.188,2.905,3.8v1.9l.018,3.835a.087.087,0,0,1-.092.092h-.748a.086.086,0,0,1-.091-.092l.018-3.835v-1.808c0-2.283-.877-3.123-2.21-3.123-1.224,0-2.064.931-2.667,2.411.018.2.018.4.018.621v1.9l.018,3.835a.086.086,0,0,1-.091.092h-.749a.086.086,0,0,1-.091-.092l.018-3.835v-1.808c0-2.283-.876-3.123-2.21-3.123s-2.192,1.077-2.813,2.776Z" fill="#072c50"/><path d="M156.616,171.943a.086.086,0,0,1-.091-.09v-1.115a.087.087,0,0,1,.091-.092h.749a.088.088,0,0,1,.092.092v1.115a.086.086,0,0,1-.092.09Zm0,10.466a.086.086,0,0,1-.091-.092l.018-4.876-.018-4.347a.086.086,0,0,1,.091-.091h.749a.086.086,0,0,1,.092.091l-.019,4.329.019,4.894a.087.087,0,0,1-.092.092Z" fill="#072c50"/><path d="M164.506,182.61c-2.685,0-4.109-1.936-4.109-4.877s1.424-4.931,4.146-4.931a3.493,3.493,0,0,1,3.8,3.305.1.1,0,0,1-.092.092h-.675a.115.115,0,0,1-.11-.092,2.715,2.715,0,0,0-2.922-2.575c-2.192,0-3.233,1.645-3.233,4.2s1.023,4.147,3.214,4.164a2.866,2.866,0,0,0,3.069-2.867.088.088,0,0,1,.092-.092h.675a.088.088,0,0,1,.092.092A3.67,3.67,0,0,1,164.506,182.61Z" fill="#072c50"/><path d="M174.79,182.592c-2.393,0-3.873-1.077-3.909-3.415a.086.086,0,0,1,.092-.092h.694a.086.086,0,0,1,.091.092c.036,1.881,1.1,2.739,3.05,2.739,1.608,0,2.758-.73,2.758-2.027,0-3.05-6.465-.84-6.465-4.493,0-1.7,1.424-2.576,3.433-2.576,1.991,0,3.58.877,3.635,2.868a.087.087,0,0,1-.091.091h-.658a.086.086,0,0,1-.091-.091c-.074-1.553-1.279-2.192-2.8-2.192-1.571,0-2.575.621-2.575,1.863,0,2.776,6.484.566,6.484,4.475C178.443,181.569,176.854,182.592,174.79,182.592Z" fill="#072c50"/><path d="M48.062,105.688V51.011l21.871-21.09L95.71,72.1v62.488Zm47.6,29.832,50.915-32.9V47.79L95.662,73.247m50.8-25.457L120.616,8.624,69.7,29.774m-27.415,79.9L27.4,118.287m61.756,22.391-14.883,8.616m7.557-4.374-47.38-30.549m117.1-10.575,13.316,7.833m0-53.265-13.316-7.833m5.966,57.342V54.43" fill="none" stroke="#072c50" stroke-linecap="round" stroke-linejoin="round" stroke-width="6"/><line x1="19.475" y1="156.334" x2="180.348" y2="156.334" fill="none" stroke="#072c50" stroke-linecap="round" stroke-linejoin="round"/><rect x="1" y="1" width="203" height="203" rx="24.667" stroke-width="2" stroke="#072c50" stroke-linecap="round" stroke-linejoin="round" fill="none"/></g></g></svg>