<svg xmlns="http://www.w3.org/2000/svg" viewBox="0 0 768.83 853.09"><g id="Layer_2" data-name="Layer 2"><g id="Layer_1-2" data-name="Layer 1" ><path d="M266.42,33.06h69.9c25.29,0,38.23,16.13,38.23,33.85,0,16.72-10.36,27.88-22.9,30.46,14.14,2.19,25.49,15.93,25.49,32.66,0,19.91-13.34,35.84-38.63,35.84H266.42Zm63.72,53.36c9.56,0,15.54-6.17,15.54-14.73,0-8.17-6-14.54-15.54-14.54H294.7V86.42Zm1,55.36c10.75,0,17.12-6.17,17.12-15.73,0-8.36-6-15.53-17.12-15.53H294.7v31.26Z" transform="translate(0 -31.06)" fill="#072c50"/><path d="M455.4,118.28H434.69v47.59H406.41V33.06h62.13c27.68,0,44.6,18.12,44.6,42.81,0,23.5-14.73,36-29.07,39.43l29.87,50.57H481.48Zm9-60.93H434.69V94h29.67c11.35,0,19.91-7.17,19.91-18.32S475.71,57.35,464.36,57.35Z" transform="translate(0 -31.06)" fill="#072c50"/><path d="M548.79,125.65A58.21,58.21,0,0,0,591,143.57c15.53,0,23.1-7.37,23.1-14.93,0-10-11.55-13.34-26.88-16.93-21.71-5-49.58-10.95-49.58-40.62,0-22.1,19.11-40,50.37-40,21.11,0,38.64,6.38,51.78,18.52L624.06,70.29c-10.76-10-25.09-14.53-38-14.53-12.74,0-19.51,5.57-19.51,13.54,0,9,11.15,11.75,26.48,15.33,21.91,5,49.79,11.55,49.79,41,0,24.29-17.33,42.61-53.17,42.61-25.49,0-43.81-8.56-56.35-21.1Z" transform="translate(0 -31.06)" fill="#072c50"/><path d="M105.59,122H77.38v47h28.21Zm39.83-58.68H117.21V167.49h28.21Zm39.82,29.34H157v74.82h28.21Zm39.83-60.15H196.86v135h28.21Z" transform="translate(0 -31.06)" fill="none" stroke="#072c50" stroke-miterlimit="10" stroke-width="2.83"/><path d="M222.83,211.6a.14.14,0,0,1-.15-.14l.06-10.88-.06-9.74a.14.14,0,0,1,.15-.15h7.26c4.18,0,7,1.82,7,4.93,0,2.69-1.35,4.12-4,4.75,3.32.81,4.64,2.6,4.7,5.14,0,4.36-3.35,6.09-7.65,6.09Zm1.34-11.8H230c3.34,0,5.44-1,5.44-3.85,0-2.69-2.13-4-5.44-4h-5.8Zm.06,10.52H230c3.64,0,6.12-1.32,6.12-4.78,0-3.2-2.93-4.45-6.12-4.45h-5.86Z" transform="translate(0 -31.06)" fill="#072c50"/><path d="M247.62,212c-3.08,0-5-2-5-6.21v-2.93l0-6.45a.14.14,0,0,1,.15-.15h1.22a.14.14,0,0,1,.15.15l0,6.45v2.78c0,3.7,1.56,5.11,3.89,5.11s3.85-1.73,4.87-4.54v-3.35l0-6.45a.14.14,0,0,1,.15-.15h1.22a.14.14,0,0,1,.15.15l-.06,6.6,0,8.49a.14.14,0,0,1-.15.14H253a.14.14,0,0,1-.15-.14l.06-3A5.93,5.93,0,0,1,247.62,212Z" transform="translate(0 -31.06)" fill="#072c50"/><path d="M259.81,194.49a.14.14,0,0,1-.15-.15v-1.83a.14.14,0,0,1,.15-.15H261a.14.14,0,0,1,.15.15v1.83a.14.14,0,0,1-.15.15Zm0,17.11a.14.14,0,0,1-.15-.14l0-8,0-7.11a.14.14,0,0,1,.15-.15H261a.14.14,0,0,1,.15.15l0,7.08,0,8a.14.14,0,0,1-.15.14Z" transform="translate(0 -31.06)" fill="#072c50"/><path d="M266.82,211.6a.14.14,0,0,1-.15-.14l.06-10.52-.06-10.1a.14.14,0,0,1,.15-.15H268a.14.14,0,0,1,.15.15l-.06,10,.06,10.58a.14.14,0,0,1-.15.14Z" transform="translate(0 -31.06)" fill="#072c50"/><path d="M284.42,211.6a.14.14,0,0,1-.15-.14l.06-2.93a5.43,5.43,0,0,1-5.17,3.37c-4,0-6.15-3.49-6.15-8s2.18-8,6.15-8a5.33,5.33,0,0,1,5.11,3.23l0-8.28a.14.14,0,0,1,.15-.15h1.22a.14.14,0,0,1,.15.15l-.06,8.25.06,12.37a.14.14,0,0,1-.15.14Zm-5-.86c3,0,4.93-2.24,5-6.66s-1.79-7.06-4.9-7.06c-3.47,0-5,3-5,6.76S276,210.74,279.43,210.74Z" transform="translate(0 -31.06)" fill="#072c50"/><path d="M291.26,194.49a.14.14,0,0,1-.15-.15v-1.83a.14.14,0,0,1,.15-.15h1.22a.14.14,0,0,1,.15.15v1.83a.14.14,0,0,1-.15.15Zm0,17.11a.14.14,0,0,1-.15-.14l0-8,0-7.11a.14.14,0,0,1,.15-.15h1.22a.14.14,0,0,1,.15.15l0,7.08,0,8a.14.14,0,0,1-.15.14Z" transform="translate(0 -31.06)" fill="#072c50"/><path d="M298.13,211.6a.14.14,0,0,1-.15-.14l.06-6.61,0-8.48a.14.14,0,0,1,.15-.15h1.16a.14.14,0,0,1,.15.15l-.06,3a5.93,5.93,0,0,1,5.26-3.52c3.08,0,5,2,5,6.21V205l0,6.46a.14.14,0,0,1-.15.14h-1.23a.14.14,0,0,1-.15-.14l0-6.46v-2.78c0-3.7-1.55-5.11-3.88-5.11s-3.85,1.74-4.87,4.55V205l0,6.46a.14.14,0,0,1-.15.14Z" transform="translate(0 -31.06)" fill="#072c50"/><path d="M320.62,217.37c-3.2,0-5.83-1.37-6.1-4.72a.14.14,0,0,1,.15-.15h1.17a.14.14,0,0,1,.15.15c.3,2.51,2.27,3.59,4.66,3.59,2.84,0,4.87-1.89,4.87-6.19v-1.64a5.35,5.35,0,0,1-5,3.13c-4.12,0-6.28-3.19-6.28-7.61s2.16-8,6.28-8a5.23,5.23,0,0,1,5.05,3.26l-.06-2.84a.14.14,0,0,1,.15-.15h1.19a.14.14,0,0,1,.15.15l-.06,4.57v9.11C327,214.89,324.5,217.37,320.62,217.37Zm.21-7c2.78,0,4.72-2,4.75-6.36s-1.79-7-4.9-7c-3.32,0-5,2.87-5,6.85S317.36,210.44,320.83,210.41Z" transform="translate(0 -31.06)" fill="#072c50"/><path d="M350.76,208.86l-4.07-6.43h-5.43l.06,9a.14.14,0,0,1-.15.14h-1.26a.14.14,0,0,1-.15-.14l.06-10.85-.06-9.77a.14.14,0,0,1,.15-.15h6.57c4.46,0,7.29,2,7.29,5.8,0,3.55-2.18,5.4-5.43,5.85l5.76,9.15c.06,0,0,.11-.06.11h-1.49a.41.41,0,0,1-.24-.11Zm-9.5-8.16v.45h5.52c3.38,0,5.44-1.35,5.44-4.63,0-3-2-4.54-5.44-4.54h-5.46Z" transform="translate(0 -31.06)" fill="#072c50"/><path d="M370.38,206.17c.09,0,.15.06.12.15-.54,3.43-2.63,5.61-6.33,5.61-4.54,0-6.93-3.25-6.93-8s2.63-8.07,6.75-8.07,6.54,2.87,6.6,7.83a.14.14,0,0,1-.15.15l-11.74,0c0,4.33,1.85,6.87,5.5,6.87,2.81,0,4.36-1.68,4.84-4.45a.19.19,0,0,1,.18-.15ZM364,197.05c-3.05,0-4.87,2.19-5.23,5.62H369C369,199.56,367.28,197.05,364,197.05Z" transform="translate(0 -31.06)" fill="#072c50"/><path d="M381,211.9c-3.91,0-6.33-1.76-6.39-5.58a.14.14,0,0,1,.15-.15h1.14a.14.14,0,0,1,.15.15c.05,3.07,1.79,4.48,5,4.48,2.63,0,4.52-1.2,4.52-3.32,0-5-10.58-1.37-10.58-7.35,0-2.78,2.33-4.21,5.62-4.21s5.85,1.43,5.94,4.69a.14.14,0,0,1-.15.15h-1.07a.14.14,0,0,1-.15-.15c-.12-2.54-2.09-3.59-4.57-3.59s-4.22,1-4.22,3c0,4.54,10.61.93,10.61,7.32C387,210.23,384.42,211.9,381,211.9Z" transform="translate(0 -31.06)" fill="#072c50"/><path d="M404.29,206.17a.11.11,0,0,1,.11.15c-.53,3.43-2.62,5.61-6.33,5.61-4.54,0-6.93-3.25-6.93-8s2.63-8.07,6.75-8.07,6.54,2.87,6.6,7.83a.14.14,0,0,1-.14.15l-11.75,0c0,4.33,1.86,6.87,5.5,6.87,2.81,0,4.36-1.68,4.84-4.45a.19.19,0,0,1,.18-.15Zm-6.4-9.12c-3.05,0-4.87,2.19-5.23,5.62h10.25C402.88,199.56,401.18,197.05,397.89,197.05Z" transform="translate(0 -31.06)" fill="#072c50"/><path d="M420,211.6a.14.14,0,0,1-.15-.14l.06-2.93a5.45,5.45,0,0,1-5.17,3.34c-4,0-6.16-3.46-6.16-7.94s2.18-8,6.16-8a5.33,5.33,0,0,1,5.17,3.35l-.06-2.9a.14.14,0,0,1,.15-.15h1.19a.14.14,0,0,1,.15.15l-.06,7.26.06,7.83a.14.14,0,0,1-.15.14Zm-5-.89c3,0,4.93-2.24,5-6.63s-1.8-7-4.9-7c-3.44,0-5,3-5,6.7S411.63,210.71,415,210.71Z" transform="translate(0 -31.06)" fill="#072c50"/><path d="M426.71,211.6a.14.14,0,0,1-.15-.14l.06-7.8-.06-7.29a.14.14,0,0,1,.15-.15h1.23a.14.14,0,0,1,.15.15l-.12,2.81a5.69,5.69,0,0,1,5-3.14,4.21,4.21,0,0,1,1.13.12.23.23,0,0,1,.15.21v1a.14.14,0,0,1-.15.12,3.74,3.74,0,0,0-1.1-.15c-2.27,0-4.63,1.56-5,5l.06,9.18a.14.14,0,0,1-.15.14Z" transform="translate(0 -31.06)" fill="#072c50"/><path d="M443.35,211.93c-4.39,0-6.72-3.16-6.72-8s2.33-8.07,6.78-8.07c3.71,0,5.92,2.18,6.22,5.41a.16.16,0,0,1-.15.15h-1.11a.19.19,0,0,1-.18-.15,4.45,4.45,0,0,0-4.78-4.22c-3.58,0-5.29,2.69-5.29,6.88s1.68,6.78,5.26,6.81c3.08,0,4.75-1.85,5-4.69a.14.14,0,0,1,.15-.15h1.11a.14.14,0,0,1,.15.15C449.54,209.45,447.33,211.93,443.35,211.93Z" transform="translate(0 -31.06)" fill="#072c50"/><path d="M460.71,197.08c-2.33,0-3.95,1.8-5,4.58l.06,9.8a.14.14,0,0,1-.15.14h-1.2a.14.14,0,0,1-.15-.14l.06-10.55-.06-10.07a.14.14,0,0,1,.15-.15h1.2a.14.14,0,0,1,.15.15l-.06,8.52a5.83,5.83,0,0,1,5.22-3.5c3.14,0,5,2,5,6.33v2.93l0,6.34a.14.14,0,0,1-.15.14h-1.22a.14.14,0,0,1-.15-.14l0-6.31v-2.93C464.56,198.49,463,197.08,460.71,197.08Z" transform="translate(0 -31.06)" fill="#072c50"/><path d="M486.18,211.87c-5.25,0-8-2.78-8.18-7.41a.14.14,0,0,1,.15-.15h1.28a.14.14,0,0,1,.15.15c.24,3.83,2.06,6.13,6.67,6.13,3.34,0,6-1.38,6-4.81,0-6.6-13.8-2-13.8-9.77,0-3.68,3-5.62,7.2-5.62,4.69,0,7.41,2.15,7.68,6.4a.13.13,0,0,1-.15.14h-1.29a.13.13,0,0,1-.15-.14c-.21-3.44-2.15-5.08-6.12-5.08-3.59,0-5.74,1.34-5.74,4.21,0,6.15,13.8,1.67,13.8,9.74C493.68,209.84,490.49,211.87,486.18,211.87Z" transform="translate(0 -31.06)" fill="#072c50"/><path d="M504.82,211.93c-4.45,0-6.87-3.19-6.87-8s2.42-8,6.87-8,6.88,3.23,6.88,8S509.25,211.93,504.82,211.93Zm0-1.16c3.59,0,5.35-2.66,5.35-6.84s-1.79-6.88-5.35-6.88-5.37,2.69-5.37,6.88S501.27,210.77,504.82,210.77Z" transform="translate(0 -31.06)" fill="#072c50"/><path d="M516.65,211.6a.14.14,0,0,1-.15-.14l.06-10.52-.06-10.1a.14.14,0,0,1,.15-.15h1.2a.14.14,0,0,1,.15.15l-.06,10,.06,10.58a.14.14,0,0,1-.15.14Z" transform="translate(0 -31.06)" fill="#072c50"/><path d="M528.27,212c-3.08,0-5-2-5-6.21v-2.93l0-6.45a.14.14,0,0,1,.15-.15h1.23a.14.14,0,0,1,.15.15l0,6.45v2.78c0,3.7,1.55,5.11,3.88,5.11s3.85-1.73,4.87-4.54v-3.35l0-6.45a.14.14,0,0,1,.15-.15h1.22a.14.14,0,0,1,.15.15l-.06,6.6,0,8.49a.14.14,0,0,1-.15.14h-1.16a.14.14,0,0,1-.15-.14l.06-3A5.93,5.93,0,0,1,528.27,212Z" transform="translate(0 -31.06)" fill="#072c50"/><path d="M546.73,211.4a.16.16,0,0,1-.15.17,7.46,7.46,0,0,1-1.7.27c-2,0-3.5-1-3.5-4.27V197.44h-1.82a.14.14,0,0,1-.15-.15v-.92a.14.14,0,0,1,.15-.15h1.82l0-3.71a.14.14,0,0,1,.15-.15h1.23a.14.14,0,0,1,.15.15l0,3.71h3.73a.14.14,0,0,1,.15.15v.92a.14.14,0,0,1-.15.15h-3.73v10.13c0,2.3.59,3,2.12,3a6.44,6.44,0,0,0,1.61-.18.14.14,0,0,1,.15.12Z" transform="translate(0 -31.06)" fill="#072c50"/><path d="M551.48,194.49a.14.14,0,0,1-.15-.15v-1.83a.14.14,0,0,1,.15-.15h1.22a.14.14,0,0,1,.15.15v1.83a.14.14,0,0,1-.15.15Zm0,17.11a.14.14,0,0,1-.15-.14l0-8,0-7.11a.14.14,0,0,1,.15-.15h1.22a.14.14,0,0,1,.15.15l0,7.08,0,8a.14.14,0,0,1-.15.14Z" transform="translate(0 -31.06)" fill="#072c50"/><path d="M564.56,211.93c-4.45,0-6.87-3.19-6.87-8s2.42-8,6.87-8,6.87,3.23,6.87,8S569,211.93,564.56,211.93Zm0-1.16c3.59,0,5.35-2.66,5.35-6.84s-1.79-6.88-5.35-6.88-5.38,2.69-5.38,6.88S561,210.77,564.56,210.77Z" transform="translate(0 -31.06)" fill="#072c50"/><path d="M576.24,211.6a.14.14,0,0,1-.15-.14l.06-6.61,0-8.48a.14.14,0,0,1,.15-.15h1.16a.14.14,0,0,1,.15.15l-.06,3a5.93,5.93,0,0,1,5.26-3.52c3.08,0,5,2,5,6.21V205l0,6.46a.14.14,0,0,1-.15.14h-1.22a.14.14,0,0,1-.15-.14l0-6.46v-2.78c0-3.7-1.56-5.11-3.89-5.11s-3.85,1.74-4.87,4.55V205l0,6.46a.14.14,0,0,1-.15.14Z" transform="translate(0 -31.06)" fill="#072c50"/><path d="M598.73,211.9c-3.91,0-6.33-1.76-6.39-5.58a.14.14,0,0,1,.15-.15h1.13a.14.14,0,0,1,.15.15c.06,3.07,1.8,4.48,5,4.48,2.63,0,4.51-1.2,4.51-3.32,0-5-10.57-1.37-10.57-7.35,0-2.78,2.33-4.21,5.61-4.21s5.86,1.43,6,4.69a.14.14,0,0,1-.15.15H603a.14.14,0,0,1-.15-.15c-.12-2.54-2.1-3.59-4.58-3.59s-4.21,1-4.21,3c0,4.54,10.61.93,10.61,7.32C604.71,210.23,602.11,211.9,598.73,211.9Z" transform="translate(0 -31.06)" fill="#072c50"/><rect x="1.42" y="146.25" width="766" height="705.43" rx="188.88" stroke-width="2.83" stroke="#072c50" stroke-linecap="round" stroke-linejoin="round" fill="none"/><path d="M104.3,510.22a.13.13,0,0,1-.13-.13l.06-9.52-.06-8.42a.13.13,0,0,1,.13-.13h10.27a.12.12,0,0,1,.13.13V493a.13.13,0,0,1-.13.13h-9l-.06,6.73h8.58a.12.12,0,0,1,.13.13v.86a.12.12,0,0,1-.13.13h-8.58l.06,8.11h9.25a.12.12,0,0,1,.13.13v.86a.12.12,0,0,1-.13.13Z" transform="translate(0 -31.06)" fill="#072c50"/><path d="M119.1,510.22a.12.12,0,0,1-.13-.13l0-5.75,0-7.38a.13.13,0,0,1,.13-.13h1a.12.12,0,0,1,.13.13l0,2.63a5.14,5.14,0,0,1,4.57-3.07c2.68,0,4.37,1.74,4.37,5.41v2.54l0,5.62a.13.13,0,0,1-.13.13H128a.12.12,0,0,1-.13-.13l0-5.62v-2.41c0-3.23-1.36-4.45-3.38-4.45s-3.36,1.51-4.24,3.95v2.91l0,5.62a.12.12,0,0,1-.13.13Z" transform="translate(0 -31.06)" fill="#072c50"/><path d="M144.55,505.49c.08,0,.13.05.11.13-.47,3-2.29,4.89-5.52,4.89-3.95,0-6-2.84-6-6.95s2.29-7,5.88-7,5.69,2.5,5.74,6.82a.13.13,0,0,1-.13.13l-10.21,0c0,3.77,1.61,6,4.78,6,2.44,0,3.8-1.45,4.21-3.87a.17.17,0,0,1,.16-.13ZM139,497.56c-2.65,0-4.24,1.9-4.55,4.89h8.92C143.33,499.74,141.85,497.56,139,497.56Z" transform="translate(0 -31.06)" fill="#072c50"/><path d="M148.92,510.22a.12.12,0,0,1-.13-.13l.05-6.79-.05-6.34a.12.12,0,0,1,.13-.13H150a.12.12,0,0,1,.12.13l-.1,2.44a5,5,0,0,1,4.4-2.73,3.58,3.58,0,0,1,1,.11.18.18,0,0,1,.13.18v.86c0,.05-.05.1-.13.1a3.23,3.23,0,0,0-1-.13c-2,0-4,1.35-4.37,4.32l.05,8a.12.12,0,0,1-.12.13Z" transform="translate(0 -31.06)" fill="#072c50"/><path d="M163.12,515.24c-2.79,0-5.07-1.2-5.31-4.11a.12.12,0,0,1,.13-.13h1a.13.13,0,0,1,.13.13c.26,2.18,2,3.12,4,3.12,2.47,0,4.24-1.64,4.24-5.38v-1.43a4.66,4.66,0,0,1-4.37,2.73c-3.59,0-5.46-2.78-5.46-6.63s1.87-6.94,5.46-6.94a4.55,4.55,0,0,1,4.4,2.83l-.06-2.47a.13.13,0,0,1,.13-.13h1a.12.12,0,0,1,.13.13l-.05,4v7.93C168.63,513.08,166.5,515.24,163.12,515.24Zm.18-6.06c2.42,0,4.11-1.77,4.13-5.54s-1.56-6.08-4.26-6.08c-2.89,0-4.32,2.49-4.32,5.95S160.28,509.21,163.3,509.18Z" transform="translate(0 -31.06)" fill="#072c50"/><path d="M177.18,514.51a.18.18,0,0,1-.18.13h-1a.09.09,0,0,1-.08-.13l1.51-4.29L172.24,497c0-.08,0-.13.08-.13h1.2a.2.2,0,0,1,.18.13l4.44,11.44,3.8-11.44a.19.19,0,0,1,.18-.13h1.12c.08,0,.11.05.08.13Z" transform="translate(0 -31.06)" fill="#072c50"/><path d="M193.38,510.22a.12.12,0,0,1-.13-.13l.05-9.52-.05-8.42a.12.12,0,0,1,.13-.13h10.27a.12.12,0,0,1,.13.13V493a.13.13,0,0,1-.13.13H194.6l0,6.73h8.58a.12.12,0,0,1,.13.13v.86a.12.12,0,0,1-.13.13h-8.58l0,8.11h9.26a.13.13,0,0,1,.13.13v.86a.13.13,0,0,1-.13.13Z" transform="translate(0 -31.06)" fill="#072c50"/><path d="M208.17,510.22a.13.13,0,0,1-.13-.13l.06-6.79L208,497a.13.13,0,0,1,.13-.13h1.07a.12.12,0,0,1,.13.13l-.11,2.44a5,5,0,0,1,4.4-2.73,3.65,3.65,0,0,1,1,.11.18.18,0,0,1,.13.18v.86c0,.05-.05.1-.13.1a3.25,3.25,0,0,0-1-.13c-2,0-4,1.35-4.36,4.32l.05,8a.12.12,0,0,1-.13.13Z" transform="translate(0 -31.06)" fill="#072c50"/><path d="M222.37,515.24c-2.78,0-5.07-1.2-5.3-4.11a.12.12,0,0,1,.13-.13h1a.12.12,0,0,1,.13.13c.26,2.18,2,3.12,4.06,3.12,2.47,0,4.23-1.64,4.23-5.38v-1.43a4.65,4.65,0,0,1-4.36,2.73c-3.59,0-5.46-2.78-5.46-6.63s1.87-6.94,5.46-6.94a4.55,4.55,0,0,1,4.39,2.83l0-2.47a.12.12,0,0,1,.13-.13h1a.12.12,0,0,1,.13.13l0,4v7.93C227.88,513.08,225.75,515.24,222.37,515.24Zm.18-6.06c2.42,0,4.11-1.77,4.14-5.54s-1.56-6.08-4.27-6.08c-2.88,0-4.31,2.49-4.31,5.95S219.54,509.21,222.55,509.18Z" transform="translate(0 -31.06)" fill="#072c50"/><path d="M238,510.51c-3.87,0-6-2.79-6-7s2.11-7,6-7,6,2.81,6,7S241.82,510.51,238,510.51Zm0-1c3.12,0,4.65-2.31,4.65-5.95s-1.56-6-4.65-6-4.68,2.34-4.68,6S234.88,509.49,238,509.49Z" transform="translate(0 -31.06)" fill="#072c50"/><path d="M248.14,510.22a.12.12,0,0,1-.13-.13l.05-5.75,0-7.38a.12.12,0,0,1,.13-.13h1a.13.13,0,0,1,.13.13l-.06,2.63a5.16,5.16,0,0,1,4.58-3.07c2.68,0,4.37,1.74,4.37,5.41v2.54l0,5.62a.12.12,0,0,1-.13.13H257a.12.12,0,0,1-.13-.13l0-5.62v-2.41c0-3.23-1.35-4.45-3.38-4.45s-3.35,1.51-4.23,3.95v2.91l0,5.62a.12.12,0,0,1-.13.13Z" transform="translate(0 -31.06)" fill="#072c50"/><path d="M268.16,510.51c-3.88,0-6-2.79-6-7s2.1-7,6-7,6,2.81,6,7S272,510.51,268.16,510.51Zm0-1c3.11,0,4.65-2.31,4.65-5.95s-1.56-6-4.65-6-4.69,2.34-4.69,6S265.06,509.49,268.16,509.49Z" transform="translate(0 -31.06)" fill="#072c50"/><path d="M279.49,504.63l0,5.46a.13.13,0,0,1-.13.13h-1.07a.12.12,0,0,1-.13-.13l.05-5.46,0-7.67a.12.12,0,0,1,.13-.13h1a.12.12,0,0,1,.13.13l-.05,2.63a4.87,4.87,0,0,1,4.34-3.07,3.7,3.7,0,0,1,3.88,3.07,4.82,4.82,0,0,1,4.31-3.07c2.58,0,4.13,1.69,4.13,5.41v2.7l0,5.46a.12.12,0,0,1-.13.13h-1.07a.12.12,0,0,1-.12-.13l0-5.46v-2.57c0-3.25-1.25-4.45-3.15-4.45-1.74,0-2.93,1.33-3.79,3.43a8.53,8.53,0,0,1,0,.89v2.7l0,5.46a.12.12,0,0,1-.13.13h-1.06a.13.13,0,0,1-.14-.13l0-5.46v-2.57c0-3.25-1.25-4.45-3.14-4.45s-3.13,1.53-4,3.95Z" transform="translate(0 -31.06)" fill="#072c50"/><path d="M300.78,495.32a.13.13,0,0,1-.13-.13v-1.58a.13.13,0,0,1,.13-.13h1.07a.12.12,0,0,1,.13.13v1.58a.12.12,0,0,1-.13.13Zm0,14.9a.13.13,0,0,1-.13-.13l0-6.94,0-6.19a.13.13,0,0,1,.13-.13h1.07a.12.12,0,0,1,.13.13l0,6.16,0,7a.12.12,0,0,1-.13.13Z" transform="translate(0 -31.06)" fill="#072c50"/><path d="M312,510.51c-3.83,0-5.85-2.76-5.85-6.95s2-7,5.9-7c3.22,0,5.15,1.9,5.41,4.71a.14.14,0,0,1-.13.13h-1a.16.16,0,0,1-.15-.13,3.87,3.87,0,0,0-4.16-3.67c-3.12,0-4.6,2.34-4.6,6s1.45,5.91,4.57,5.93a4.08,4.08,0,0,0,4.37-4.08.12.12,0,0,1,.13-.13h1a.12.12,0,0,1,.13.13A5.22,5.22,0,0,1,312,510.51Z" transform="translate(0 -31.06)" fill="#072c50"/><path d="M326.65,510.48c-3.4,0-5.51-1.53-5.56-4.86a.12.12,0,0,1,.13-.13h1a.12.12,0,0,1,.13.13c.05,2.68,1.56,3.9,4.34,3.9,2.29,0,3.93-1,3.93-2.89,0-4.34-9.21-1.19-9.21-6.39,0-2.42,2-3.67,4.89-3.67s5.1,1.25,5.17,4.08a.12.12,0,0,1-.13.13h-.93a.12.12,0,0,1-.13-.13c-.11-2.21-1.82-3.12-4-3.12s-3.67.89-3.67,2.65c0,4,9.23.81,9.23,6.37C331.85,509,329.59,510.48,326.65,510.48Z" transform="translate(0 -31.06)" fill="#072c50"/><path d="M147.87,387.8V305.69L180.71,274l38.71,63.34V431.2Zm71.48,44.79,76.46-49.4V300.86l-76.46,38.22m76.29-38.22L256.82,242,180.37,273.8m-41.17,120-22.35,12.94m92.73,33.62-22.34,12.94m11.34-6.57-71.14-45.87M303.28,385l20,11.76m0-80-20-11.77m9,86.11V310.83" transform="translate(0 -31.06)" fill="none" stroke="#072c50" stroke-linecap="round" stroke-linejoin="round" stroke-width="6"/><line x1="105.56" y1="439.75" x2="334.56" y2="439.75" fill="none" stroke="#072c50" stroke-linecap="round" stroke-linejoin="round"/><path d="M437.65,508.83a.12.12,0,0,1-.13-.13l.05-9.46-.05-8.48a.12.12,0,0,1,.13-.13H444c3.64,0,6.06,1.59,6.06,4.29,0,2.34-1.17,3.59-3.51,4.14,2.89.7,4,2.26,4.08,4.47,0,3.79-2.91,5.3-6.65,5.3Zm1.17-10.27h5.09c2.91,0,4.73-.83,4.73-3.35,0-2.34-1.84-3.49-4.73-3.49h-5Zm.05,9.15h5c3.17,0,5.33-1.14,5.33-4.16,0-2.78-2.55-3.87-5.33-3.87h-5.09Z" transform="translate(0 -31.06)" fill="#072c50"/><path d="M461.83,509.14c-2.68,0-4.37-1.74-4.37-5.4v-2.55l0-5.62a.12.12,0,0,1,.13-.13h1.07a.12.12,0,0,1,.13.13l0,5.62v2.42c0,3.22,1.35,4.44,3.38,4.44s3.36-1.51,4.24-3.95v-2.91l0-5.62a.13.13,0,0,1,.13-.13h1.07a.12.12,0,0,1,.13.13l0,5.75,0,7.38a.12.12,0,0,1-.13.13h-1a.12.12,0,0,1-.13-.13l0-2.62A5.15,5.15,0,0,1,461.83,509.14Z" transform="translate(0 -31.06)" fill="#072c50"/><path d="M475,493.93a.13.13,0,0,1-.13-.13v-1.58a.13.13,0,0,1,.13-.13h1.07a.12.12,0,0,1,.13.13v1.58a.12.12,0,0,1-.13.13Zm0,14.9a.13.13,0,0,1-.13-.13l0-6.94,0-6.19a.13.13,0,0,1,.13-.13h1.07a.12.12,0,0,1,.13.13l0,6.16,0,7a.12.12,0,0,1-.13.13Z" transform="translate(0 -31.06)" fill="#072c50"/><path d="M483.74,508.83a.13.13,0,0,1-.13-.13l.06-9.15-.06-8.79a.13.13,0,0,1,.13-.13h1a.12.12,0,0,1,.13.13l-.05,8.74.05,9.2a.12.12,0,0,1-.13.13Z" transform="translate(0 -31.06)" fill="#072c50"/><path d="M501.66,508.83a.12.12,0,0,1-.13-.13l.05-2.55a4.73,4.73,0,0,1-4.5,2.94c-3.48,0-5.36-3-5.36-6.94s1.9-7,5.36-7a4.64,4.64,0,0,1,4.45,2.8l0-7.2a.12.12,0,0,1,.13-.13h1.07a.13.13,0,0,1,.13.13l-.06,7.18.06,10.76a.13.13,0,0,1-.13.13Zm-4.35-.75c2.61,0,4.29-1.95,4.32-5.8s-1.56-6.14-4.26-6.14c-3,0-4.35,2.63-4.35,5.88S494.35,508.08,497.31,508.08Z" transform="translate(0 -31.06)" fill="#072c50"/><path d="M510.21,493.93a.12.12,0,0,1-.13-.13v-1.58a.12.12,0,0,1,.13-.13h1.07a.13.13,0,0,1,.13.13v1.58a.13.13,0,0,1-.13.13Zm0,14.9a.12.12,0,0,1-.13-.13l0-6.94,0-6.19a.12.12,0,0,1,.13-.13h1.07a.13.13,0,0,1,.13.13l0,6.16,0,7a.13.13,0,0,1-.13.13Z" transform="translate(0 -31.06)" fill="#072c50"/><path d="M518.79,508.83a.12.12,0,0,1-.13-.13l.05-5.74,0-7.39a.12.12,0,0,1,.13-.13h1a.12.12,0,0,1,.13.13l-.05,2.63a5.14,5.14,0,0,1,4.57-3.07c2.68,0,4.37,1.74,4.37,5.41v2.54l0,5.62a.12.12,0,0,1-.13.13h-1.07a.12.12,0,0,1-.13-.13l0-5.62v-2.41c0-3.23-1.35-4.45-3.38-4.45s-3.35,1.51-4.24,3.95v2.91l0,5.62a.13.13,0,0,1-.13.13Z" transform="translate(0 -31.06)" fill="#072c50"/><path d="M541,513.85c-2.78,0-5.07-1.2-5.31-4.11a.13.13,0,0,1,.13-.13h1a.12.12,0,0,1,.13.13c.26,2.19,2,3.12,4,3.12,2.47,0,4.24-1.64,4.24-5.38v-1.43a4.65,4.65,0,0,1-4.37,2.73c-3.58,0-5.46-2.78-5.46-6.63s1.88-6.94,5.46-6.94a4.55,4.55,0,0,1,4.4,2.83l0-2.47a.12.12,0,0,1,.13-.13h1a.13.13,0,0,1,.13.13l-.06,4v7.93C546.48,511.69,544.35,513.85,541,513.85Zm.18-6.06c2.42,0,4.11-1.77,4.13-5.54s-1.56-6.08-4.26-6.08c-2.89,0-4.32,2.5-4.32,5.95S538.13,507.82,541.15,507.79Z" transform="translate(0 -31.06)" fill="#072c50"/><path d="M568.42,501.34h-4.29l.06,7.36a.13.13,0,0,1-.13.13H563a.13.13,0,0,1-.13-.13l.06-9.38-.06-8.56a.13.13,0,0,1,.13-.13h5.39c3.71,0,6.16,1.79,6.16,5.3C574.51,499.68,572,501.34,568.42,501.34Zm-4.29-2v.93h4.35c2.91,0,4.68-1.17,4.68-4.32,0-2.85-1.75-4.18-4.79-4.18h-4.18Z" transform="translate(0 -31.06)" fill="#072c50"/><path d="M586.73,496.19c-2,0-3.43,1.56-4.32,4l.05,8.53a.12.12,0,0,1-.13.13h-1a.13.13,0,0,1-.13-.13l.06-9.18-.06-8.76a.13.13,0,0,1,.13-.13h1a.12.12,0,0,1,.13.13l-.05,7.41a5.1,5.1,0,0,1,4.55-3c2.73,0,4.4,1.71,4.4,5.51v2.55l0,5.51a.12.12,0,0,1-.13.13h-1.06a.12.12,0,0,1-.13-.13l0-5.48v-2.55C590.08,497.42,588.73,496.19,586.73,496.19Z" transform="translate(0 -31.06)" fill="#072c50"/><path d="M601.94,513.12a.2.2,0,0,1-.18.13h-1s-.1,0-.07-.13l1.5-4.29L597,495.57c0-.08,0-.13.08-.13h1.19a.18.18,0,0,1,.18.13L602.9,507l3.8-11.44a.18.18,0,0,1,.18-.13H608c.07,0,.1.05.07.13Z" transform="translate(0 -31.06)" fill="#072c50"/><path d="M619,509.09c-3.4,0-5.51-1.53-5.56-4.86a.12.12,0,0,1,.13-.13h1a.12.12,0,0,1,.13.13c.05,2.68,1.56,3.9,4.34,3.9,2.29,0,3.93-1,3.93-2.89,0-4.34-9.21-1.19-9.21-6.39,0-2.42,2-3.67,4.89-3.67s5.1,1.25,5.17,4.08a.12.12,0,0,1-.12.13h-.94a.12.12,0,0,1-.13-.13c-.11-2.21-1.82-3.12-4-3.12S615,497,615,498.8c0,3.95,9.23.8,9.23,6.37C624.19,507.64,621.93,509.09,619,509.09Z" transform="translate(0 -31.06)" fill="#072c50"/><path d="M631.11,493.93a.12.12,0,0,1-.13-.13v-1.58a.12.12,0,0,1,.13-.13h1.07a.13.13,0,0,1,.13.13v1.58a.13.13,0,0,1-.13.13Zm0,14.9a.12.12,0,0,1-.13-.13l0-6.94,0-6.19a.12.12,0,0,1,.13-.13h1.07a.13.13,0,0,1,.13.13l0,6.16,0,7a.13.13,0,0,1-.13.13Z" transform="translate(0 -31.06)" fill="#072c50"/><path d="M644.94,509.12c-3.82,0-5.85-2.76-5.85-6.95s2-7,5.9-7c3.23,0,5.15,1.89,5.41,4.7a.14.14,0,0,1-.13.13h-1a.17.17,0,0,1-.16-.13,3.86,3.86,0,0,0-4.16-3.67c-3.12,0-4.6,2.35-4.6,6s1.46,5.91,4.58,5.93c2.68,0,4.13-1.61,4.37-4.08a.12.12,0,0,1,.13-.13h1a.12.12,0,0,1,.13.13A5.23,5.23,0,0,1,644.94,509.12Z" transform="translate(0 -31.06)" fill="#072c50"/><path d="M662.18,509.09c-3.41,0-5.51-1.53-5.57-4.86a.13.13,0,0,1,.14-.13h1a.12.12,0,0,1,.13.13c.06,2.68,1.56,3.9,4.35,3.9,2.28,0,3.92-1,3.92-2.89,0-4.34-9.2-1.19-9.2-6.39,0-2.42,2-3.67,4.89-3.67s5.09,1.25,5.17,4.08a.12.12,0,0,1-.13.13h-.94a.13.13,0,0,1-.13-.13c-.1-2.21-1.82-3.12-4-3.12s-3.67.89-3.67,2.66c0,3.95,9.23.8,9.23,6.37C667.38,507.64,665.12,509.09,662.18,509.09Z" transform="translate(0 -31.06)" fill="#072c50"/><polyline points="551.14 408.31 624.7 360.78 624.7 281.56 551.14 318.34" fill="none" stroke="#072c50" stroke-linecap="round" stroke-linejoin="round" stroke-width="6"/><polyline points="624.7 281.56 587.36 224.98 513.8 255.53" fill="none" stroke="#072c50" stroke-linecap="round" stroke-linejoin="round" stroke-width="6"/><path d="M539.54,431.52V332M527,423.62V312.92M514,415.25V291.52M502.8,408.73V299.9M490.7,401.29V310.13m60.47,110.7L482.33,379.9m68.84,27.9-68.84-40m68.84,27.91-68.84-40m68.84,24.19-68.84-35.35m68.84,21.39-68.84-37.21m68.84,22.33-68.84-33.49m11.16-7.44,44.66,18.6M527,312.92,502.8,301.76" transform="translate(0 -31.06)" fill="none" stroke="#072c50" stroke-linecap="round" stroke-linejoin="round"/><polygon points="482.11 365.31 482.11 286.09 513.8 255.53 551.14 316.64 551.14 407.18 482.11 365.31" fill="none" stroke="#072c50" stroke-linecap="round" stroke-linejoin="round" stroke-width="6"/><line x1="438.91" y1="439.25" x2="667.91" y2="439.25" fill="none" stroke="#072c50" stroke-linecap="round" stroke-linejoin="round"/><path d="M121.19,789.53c-4.57,0-6.94-2.41-7.12-6.45a.12.12,0,0,1,.13-.12h1.12a.12.12,0,0,1,.13.12c.21,3.33,1.79,5.34,5.8,5.34,2.91,0,5.22-1.2,5.22-4.19,0-5.75-12-1.74-12-8.5,0-3.2,2.6-4.89,6.27-4.89,4.08,0,6.45,1.87,6.68,5.56a.12.12,0,0,1-.13.13h-1.12a.12.12,0,0,1-.13-.13c-.18-3-1.87-4.42-5.33-4.42-3.12,0-5,1.17-5,3.67,0,5.35,12,1.45,12,8.48C127.72,787.76,124.94,789.53,121.19,789.53Z" transform="translate(0 -31.06)" fill="#072c50"/><path d="M143.32,789.61c-2.68,0-4.37-1.74-4.37-5.41v-2.54l0-5.62a.12.12,0,0,1,.13-.13h1.06a.12.12,0,0,1,.13.13l0,5.62v2.41c0,3.23,1.35,4.45,3.38,4.45s3.35-1.51,4.24-3.95v-2.91l0-5.62a.12.12,0,0,1,.13-.13H149a.12.12,0,0,1,.13.13l0,5.75,0,7.38a.12.12,0,0,1-.13.13h-1a.12.12,0,0,1-.12-.13l.05-2.63A5.17,5.17,0,0,1,143.32,789.61Z" transform="translate(0 -31.06)" fill="#072c50"/><path d="M166,789.56c-3.4,0-5.51-1.53-5.56-4.86a.12.12,0,0,1,.13-.13h1a.12.12,0,0,1,.13.13c.05,2.68,1.56,3.9,4.34,3.9,2.29,0,3.93-1,3.93-2.89,0-4.34-9.21-1.2-9.21-6.39,0-2.42,2-3.67,4.89-3.67s5.1,1.25,5.17,4.08a.12.12,0,0,1-.13.13h-.93a.12.12,0,0,1-.13-.13c-.11-2.21-1.82-3.12-4-3.12s-3.67.89-3.67,2.65c0,4,9.23.81,9.23,6.37C171.24,788.1,169,789.56,166,789.56Z" transform="translate(0 -31.06)" fill="#072c50"/><path d="M188,789.12a.14.14,0,0,1-.13.15,6.27,6.27,0,0,1-1.48.24c-1.75,0-3-.89-3-3.72V777h-1.58a.12.12,0,0,1-.13-.13V776a.12.12,0,0,1,.13-.13h1.58l0-3.23a.13.13,0,0,1,.13-.13h1.06a.13.13,0,0,1,.13.13l0,3.23h3.25a.12.12,0,0,1,.13.13v.8a.12.12,0,0,1-.13.13h-3.25v8.82c0,2,.52,2.6,1.84,2.6a5.42,5.42,0,0,0,1.41-.16.12.12,0,0,1,.13.11Z" transform="translate(0 -31.06)" fill="#072c50"/><path d="M207.88,789.3a.12.12,0,0,1-.13-.13l.05-2.55a4.73,4.73,0,0,1-4.5,2.91c-3.48,0-5.35-3-5.35-6.91s1.89-7,5.35-7a4.64,4.64,0,0,1,4.5,2.91l-.05-2.52a.12.12,0,0,1,.13-.13h1a.12.12,0,0,1,.13.13l-.05,6.32.05,6.81a.12.12,0,0,1-.13.13Zm-4.34-.78c2.6,0,4.29-1.95,4.31-5.77s-1.56-6.09-4.26-6.09c-3,0-4.34,2.58-4.34,5.83S200.57,788.52,203.54,788.52Z" transform="translate(0 -31.06)" fill="#072c50"/><path d="M221.11,774.4a.12.12,0,0,1-.13-.13v-1.59a.13.13,0,0,1,.13-.13h1.07a.13.13,0,0,1,.13.13v1.59a.12.12,0,0,1-.13.13Zm0,14.9a.12.12,0,0,1-.13-.13l0-6.94,0-6.19a.12.12,0,0,1,.13-.13h1.07a.12.12,0,0,1,.13.13l0,6.16,0,7a.12.12,0,0,1-.13.13Z" transform="translate(0 -31.06)" fill="#072c50"/><path d="M234.37,789.3a.12.12,0,0,1-.13-.13l0-5.75,0-7.38a.12.12,0,0,1,.13-.13h1a.12.12,0,0,1,.13.13l0,2.63a5.14,5.14,0,0,1,4.58-3.07c2.67,0,4.36,1.74,4.36,5.4v2.55l0,5.62a.12.12,0,0,1-.13.13h-1.07a.13.13,0,0,1-.13-.13l0-5.62v-2.42c0-3.22-1.35-4.44-3.38-4.44s-3.35,1.51-4.24,3.95v2.91l0,5.62a.13.13,0,0,1-.13.13Z" transform="translate(0 -31.06)" fill="#072c50"/><path d="M265.6,789.3a.12.12,0,0,1-.13-.13l0-2.55a4.73,4.73,0,0,1-4.5,2.91c-3.48,0-5.35-3-5.35-6.91s1.89-7,5.35-7a4.64,4.64,0,0,1,4.5,2.91l0-2.52a.12.12,0,0,1,.13-.13h1a.12.12,0,0,1,.13.13l0,6.32,0,6.81a.12.12,0,0,1-.13.13Zm-4.34-.78c2.59,0,4.29-1.95,4.31-5.77s-1.56-6.09-4.26-6.09c-3,0-4.34,2.58-4.34,5.83S258.29,788.52,261.26,788.52Z" transform="translate(0 -31.06)" fill="#072c50"/><path d="M284.32,789.56a4.64,4.64,0,0,1-4.5-2.91l.05,2.49a.12.12,0,0,1-.13.13h-1a.12.12,0,0,1-.13-.13l.05-10.55-.05-7.36a.12.12,0,0,1,.13-.13h1.07a.12.12,0,0,1,.13.13l0,7.23a4.73,4.73,0,0,1,4.45-2.81c3.48,0,5.35,3,5.35,6.92S287.78,789.56,284.32,789.56Zm-.29-1c3,0,4.32-2.58,4.32-5.85s-1.3-6-4.29-6c-2.58,0-4.27,2-4.29,5.77S281.33,788.55,284,788.55Z" transform="translate(0 -31.06)" fill="#072c50"/><path d="M301.27,789.3a.12.12,0,0,1-.13-.13l.05-9.15-.05-8.79a.12.12,0,0,1,.13-.13h1a.12.12,0,0,1,.13.13l-.05,8.73.05,9.21a.12.12,0,0,1-.13.13Z" transform="translate(0 -31.06)" fill="#072c50"/><path d="M325.37,784.57c.08,0,.13,0,.11.13-.47,3-2.29,4.88-5.52,4.88-3.95,0-6-2.83-6-6.94s2.29-7,5.88-7,5.69,2.5,5.74,6.81a.13.13,0,0,1-.13.14l-10.21,0c0,3.77,1.61,6,4.78,6,2.44,0,3.8-1.45,4.21-3.87a.17.17,0,0,1,.16-.13Zm-5.56-7.93c-2.65,0-4.24,1.9-4.55,4.88h8.92C324.15,778.82,322.67,776.64,319.81,776.64Z" transform="translate(0 -31.06)" fill="#072c50"/><path d="M113.25,820.79c-5.12,0-8.11-3.36-8.11-9.5,0-5.71,3.07-9.28,8.14-9.28,3.46,0,6.5,1.72,7.2,6.37,0,.08,0,.13-.1.13h-1.1a.16.16,0,0,1-.15-.13c-.57-3.74-3-5.22-5.9-5.22-4.24,0-6.69,3.33-6.69,8.16,0,5.62,2.55,8.32,6.69,8.32,3.35,0,5.79-1.92,6-5.61a.12.12,0,0,1,.13-.13h1.12a.12.12,0,0,1,.13.13C120.22,818.45,117.34,820.79,113.25,820.79Z" transform="translate(0 -31.06)" fill="#072c50"/><path d="M137.69,820.79c-3.87,0-6-2.79-6-7s2.11-7,6-7,6,2.81,6,7S141.54,820.79,137.69,820.79Zm0-1c3.12,0,4.66-2.31,4.66-5.95s-1.56-6-4.66-6-4.68,2.34-4.68,6S134.6,819.77,137.69,819.77Z" transform="translate(0 -31.06)" fill="#072c50"/><path d="M156.31,814.91l0,5.46a.12.12,0,0,1-.13.13h-1.06a.12.12,0,0,1-.13-.13l.05-5.46,0-7.67a.13.13,0,0,1,.13-.13h1a.12.12,0,0,1,.13.13l-.05,2.63a4.87,4.87,0,0,1,4.34-3.07,3.69,3.69,0,0,1,3.87,3.07,4.85,4.85,0,0,1,4.32-3.07c2.57,0,4.13,1.69,4.13,5.41v2.7l0,5.46a.12.12,0,0,1-.13.13h-1.07a.12.12,0,0,1-.13-.13l0-5.46v-2.58c0-3.25-1.25-4.44-3.15-4.44-1.74,0-2.94,1.32-3.79,3.43,0,.29,0,.57,0,.89v2.7l0,5.46a.12.12,0,0,1-.13.13h-1.07a.12.12,0,0,1-.13-.13l0-5.46v-2.58c0-3.25-1.25-4.44-3.15-4.44s-3.12,1.53-4,4Z" transform="translate(0 -31.06)" fill="#072c50"/><path d="M185.92,814.91l0,5.46a.12.12,0,0,1-.13.13h-1.07a.12.12,0,0,1-.13-.13l0-5.46,0-7.67a.12.12,0,0,1,.13-.13h1a.12.12,0,0,1,.13.13l0,2.63a4.87,4.87,0,0,1,4.34-3.07,3.7,3.7,0,0,1,3.88,3.07,4.82,4.82,0,0,1,4.31-3.07c2.58,0,4.14,1.69,4.14,5.41v2.7l0,5.46a.12.12,0,0,1-.13.13h-1.06a.12.12,0,0,1-.13-.13l0-5.46v-2.58c0-3.25-1.25-4.44-3.14-4.44s-2.94,1.32-3.8,3.43a8.53,8.53,0,0,1,0,.89v2.7l0,5.46a.12.12,0,0,1-.13.13h-1.06a.12.12,0,0,1-.13-.13l0-5.46v-2.58c0-3.25-1.25-4.44-3.14-4.44s-3.12,1.53-4,4Z" transform="translate(0 -31.06)" fill="#072c50"/><path d="M218.5,820.81c-2.68,0-4.37-1.74-4.37-5.41v-2.54l0-5.62a.12.12,0,0,1,.13-.13h1.06a.12.12,0,0,1,.13.13l0,5.62v2.41c0,3.23,1.35,4.45,3.38,4.45s3.35-1.51,4.23-4v-2.91l0-5.62a.12.12,0,0,1,.13-.13h1.06a.12.12,0,0,1,.13.13l0,5.75,0,7.38a.12.12,0,0,1-.13.13h-1a.13.13,0,0,1-.13-.13l.06-2.63A5.17,5.17,0,0,1,218.5,820.81Z" transform="translate(0 -31.06)" fill="#072c50"/><path d="M236.26,820.5a.12.12,0,0,1-.13-.13l.05-5.75,0-7.38a.13.13,0,0,1,.13-.13h1a.12.12,0,0,1,.13.13l-.05,2.63A5.14,5.14,0,0,1,242,806.8c2.68,0,4.37,1.74,4.37,5.41v2.54l0,5.62a.13.13,0,0,1-.13.13h-1.07a.12.12,0,0,1-.13-.13l0-5.62v-2.42c0-3.22-1.36-4.44-3.38-4.44s-3.36,1.51-4.24,4v2.91l0,5.62a.12.12,0,0,1-.13.13Z" transform="translate(0 -31.06)" fill="#072c50"/><path d="M258.28,805.6a.12.12,0,0,1-.13-.13v-1.59a.13.13,0,0,1,.13-.13h1.07a.12.12,0,0,1,.12.13v1.59a.12.12,0,0,1-.12.13Zm0,14.9a.12.12,0,0,1-.13-.13l0-6.94,0-6.19a.12.12,0,0,1,.13-.13h1.07a.12.12,0,0,1,.12.13l0,6.16,0,7a.12.12,0,0,1-.12.13Z" transform="translate(0 -31.06)" fill="#072c50"/><path d="M277.13,820.32a.14.14,0,0,1-.13.15,6.27,6.27,0,0,1-1.48.24c-1.75,0-3-.89-3-3.72v-8.82h-1.58a.12.12,0,0,1-.13-.13v-.8a.12.12,0,0,1,.13-.13h1.58l0-3.23a.13.13,0,0,1,.13-.13h1.06a.13.13,0,0,1,.13.13l0,3.23H277a.12.12,0,0,1,.13.13v.8a.12.12,0,0,1-.13.13h-3.25V817c0,2,.52,2.6,1.85,2.6a5.39,5.39,0,0,0,1.4-.16.12.12,0,0,1,.13.11Z" transform="translate(0 -31.06)" fill="#072c50"/><path d="M288.54,805.6a.12.12,0,0,1-.13-.13v-1.59a.13.13,0,0,1,.13-.13h1.07a.13.13,0,0,1,.13.13v1.59a.12.12,0,0,1-.13.13Zm0,14.9a.12.12,0,0,1-.13-.13l0-6.94,0-6.19a.12.12,0,0,1,.13-.13h1.07a.12.12,0,0,1,.13.13l0,6.16,0,7a.12.12,0,0,1-.13.13Z" transform="translate(0 -31.06)" fill="#072c50"/><path d="M312.64,815.77c.08,0,.13.05.11.13-.47,3-2.29,4.89-5.51,4.89-4,0-6-2.84-6-6.95s2.29-7,5.88-7,5.69,2.5,5.75,6.82a.12.12,0,0,1-.13.12l-10.22,0c0,3.77,1.61,6,4.78,6,2.45,0,3.8-1.45,4.21-3.87a.17.17,0,0,1,.16-.13Zm-5.56-7.93c-2.65,0-4.24,1.9-4.55,4.89h8.92C311.42,810,309.94,807.84,307.08,807.84Z" transform="translate(0 -31.06)" fill="#072c50"/><path d="M329.21,820.76c-3.41,0-5.52-1.53-5.57-4.86a.12.12,0,0,1,.13-.13h1a.12.12,0,0,1,.13.13c.05,2.68,1.56,3.9,4.34,3.9,2.29,0,3.93-1,3.93-2.89,0-4.34-9.21-1.19-9.21-6.4,0-2.41,2-3.66,4.89-3.66s5.1,1.25,5.18,4.08a.13.13,0,0,1-.13.13H333a.12.12,0,0,1-.13-.13c-.1-2.21-1.82-3.12-4-3.12s-3.66.89-3.66,2.65c0,4,9.23.81,9.23,6.37C334.41,819.3,332.14,820.76,329.21,820.76Z" transform="translate(0 -31.06)" fill="#072c50"/><path d="M165.06,644a13.73,13.73,0,1,0,13.73,13.73A13.75,13.75,0,0,0,165.06,644Zm0,22.92a9.19,9.19,0,1,1,9.16-9.19A9.2,9.2,0,0,1,165.06,666.93Z" transform="translate(0 -31.06)" fill="#072c50" stroke="#072c50" stroke-miterlimit="10"/><path d="M274.44,565.05A27.46,27.46,0,0,0,251.08,607l21.79,35.13a2.31,2.31,0,0,0,1.95,1.08h0a2.31,2.31,0,0,0,1.94-1.11L298,606.58a27.46,27.46,0,0,0-23.58-41.53Zm19.66,39.18-19.32,32.25L255,604.54a22.89,22.89,0,1,1,39.13-.31Z" transform="translate(0 -31.06)" fill="#072c50" stroke="#072c50" stroke-miterlimit="10"/><path d="M274.44,578.78a13.73,13.73,0,1,0,13.73,13.73A13.75,13.75,0,0,0,274.44,578.78Zm0,22.92a9.19,9.19,0,1,1,9.17-9.19A9.2,9.2,0,0,1,274.44,601.7Z" transform="translate(0 -31.06)" fill="#072c50" stroke="#072c50" stroke-miterlimit="10"/><path d="M274.45,643.16c-.27.79-.56,1.58-.84,2.35" transform="translate(0 -31.06)" fill="none" stroke="#072c50" stroke-miterlimit="10" stroke-width="3"/><path d="M271.79,650.15c-26.3,63.65-84.22,61.29-101.42,59.05" transform="translate(0 -31.06)" fill="none" stroke="#072c50" stroke-miterlimit="10" stroke-width="3" stroke-dasharray="4.98 4.98"/><path d="M167.91,708.84c-1.59-.25-2.46-.45-2.46-.45" transform="translate(0 -31.06)" fill="none" stroke="#072c50" stroke-miterlimit="10" stroke-width="3"/><path d="M196.43,555.34a18.8,18.8,0,0,0-16,28.69l14.93,24.06a1.56,1.56,0,0,0,1.33.74h0a1.59,1.59,0,0,0,1.33-.76l14.55-24.29a18.81,18.81,0,0,0-16.15-28.44Zm13.46,26.83-13.23,22.08-13.57-21.87a15.68,15.68,0,1,1,26.8-.21Z" transform="translate(0 -31.06)" fill="#072c50" stroke="#072c50" stroke-miterlimit="10"/><path d="M196.43,564.74a9.4,9.4,0,1,0,9.4,9.4A9.42,9.42,0,0,0,196.43,564.74Zm0,15.69a6.29,6.29,0,1,1,6.28-6.29A6.29,6.29,0,0,1,196.43,580.43Z" transform="translate(0 -31.06)" fill="#072c50" stroke="#072c50" stroke-miterlimit="10"/><path d="M272.28,641.12s-.88.2-2.45.47" transform="translate(0 -31.06)" fill="none" stroke="#072c50" stroke-miterlimit="10" stroke-width="3"/><path d="M264.82,642.32c-16.17,2-54,2.85-66.81-28.73" transform="translate(0 -31.06)" fill="none" stroke="#072c50" stroke-miterlimit="10" stroke-width="3" stroke-dasharray="5.06 5.06"/><path d="M197.12,611.21c-.27-.78-.53-1.57-.77-2.38" transform="translate(0 -31.06)" fill="none" stroke="#072c50" stroke-miterlimit="10" stroke-width="3"/><path d="M177,634.83c4.23-10.53,10.05-19.78,18.06-25.57" transform="translate(0 -31.06)" fill="#072c50" stroke="#072c50" stroke-miterlimit="10" stroke-width="3" stroke-dasharray="5"/><path d="M165.06,630.29a27.46,27.46,0,0,0-23.36,41.89l21.79,35.13a2.31,2.31,0,0,0,1.95,1.08h0a2.31,2.31,0,0,0,1.94-1.11l21.24-35.47a27.45,27.45,0,0,0-23.58-41.52Zm19.66,39.17L165.4,701.71l-19.81-31.94a22.89,22.89,0,1,1,39.13-.31Z" transform="translate(0 -31.06)" fill="#072c50" stroke="#072c50" stroke-miterlimit="10"/><line x1="105.25" y1="719.25" x2="334.25" y2="719.25" fill="none" stroke="#072c50" stroke-linecap="round" stroke-linejoin="round"/><path d="M450.16,789.65a.2.2,0,0,1-.18-.13l-2.13-5.95H440l-2.11,5.95a.18.18,0,0,1-.18.13h-1.09c-.08,0-.1,0-.08-.13l6.58-17.94a.19.19,0,0,1,.18-.13h1.41a.19.19,0,0,1,.18.13l6.55,17.94c0,.08,0,.13-.08.13Zm-2.7-7.23-3.54-9.9-3.53,9.9Z" transform="translate(0 -31.06)" fill="#072c50"/><path d="M462.41,789.91c-3.41,0-5.51-1.53-5.56-4.86a.12.12,0,0,1,.12-.13h1a.12.12,0,0,1,.13.13c.05,2.68,1.56,3.9,4.34,3.9,2.29,0,3.93-1,3.93-2.89,0-4.34-9.2-1.19-9.2-6.39,0-2.42,2-3.67,4.88-3.67s5.1,1.25,5.18,4.08a.12.12,0,0,1-.13.13h-.94a.13.13,0,0,1-.13-.13c-.1-2.21-1.82-3.12-4-3.12s-3.66.89-3.66,2.66c0,4,9.23.8,9.23,6.37C467.61,788.46,465.35,789.91,462.41,789.91Z" transform="translate(0 -31.06)" fill="#072c50"/><path d="M479.36,789.91c-3.41,0-5.51-1.53-5.56-4.86a.12.12,0,0,1,.13-.13h1a.12.12,0,0,1,.13.13c.06,2.68,1.56,3.9,4.35,3.9,2.29,0,3.92-1,3.92-2.89,0-4.34-9.2-1.19-9.2-6.39,0-2.42,2-3.67,4.89-3.67s5.09,1.25,5.17,4.08a.12.12,0,0,1-.13.13h-.94a.13.13,0,0,1-.13-.13c-.1-2.21-1.82-3.12-4-3.12s-3.67.89-3.67,2.66c0,4,9.23.8,9.23,6.37C484.56,788.46,482.3,789.91,479.36,789.91Z" transform="translate(0 -31.06)" fill="#072c50"/><path d="M502.19,784.92c.08,0,.13.05.1.13-.46,3-2.28,4.89-5.51,4.89-3.95,0-6-2.84-6-6.94s2.29-7,5.87-7,5.7,2.49,5.75,6.81a.12.12,0,0,1-.13.13l-10.22,0c0,3.77,1.61,6,4.79,6,2.44,0,3.79-1.45,4.21-3.87a.16.16,0,0,1,.16-.13ZM496.62,777c-2.65,0-4.23,1.9-4.55,4.89H501C501,779.17,499.48,777,496.62,777Z" transform="translate(0 -31.06)" fill="#072c50"/><path d="M514.43,789.47a.15.15,0,0,1-.13.16,6.65,6.65,0,0,1-1.48.23c-1.74,0-3-.88-3-3.72v-8.81h-1.59a.13.13,0,0,1-.13-.13v-.81a.13.13,0,0,1,.13-.13h1.59l0-3.22a.13.13,0,0,1,.13-.13H511a.12.12,0,0,1,.13.13l0,3.22h3.25a.12.12,0,0,1,.13.13v.81a.12.12,0,0,1-.13.13h-3.25v8.81c0,2,.52,2.6,1.85,2.6a5.83,5.83,0,0,0,1.4-.15c.08,0,.13,0,.13.1Z" transform="translate(0 -31.06)" fill="#072c50"/><path d="M536.66,789.89c-4.57,0-6.94-2.42-7.12-6.45a.12.12,0,0,1,.13-.13h1.12a.12.12,0,0,1,.13.13c.21,3.33,1.79,5.33,5.8,5.33,2.91,0,5.22-1.2,5.22-4.19,0-5.74-12-1.74-12-8.5,0-3.2,2.6-4.89,6.27-4.89,4.08,0,6.44,1.87,6.68,5.57a.13.13,0,0,1-.13.13h-1.12a.13.13,0,0,1-.13-.13c-.18-3-1.87-4.42-5.33-4.42-3.12,0-5,1.17-5,3.66,0,5.36,12,1.46,12,8.48C543.19,788.12,540.41,789.89,536.66,789.89Z" transform="translate(0 -31.06)" fill="#072c50"/><path d="M554.11,790c-2.68,0-4.37-1.74-4.37-5.4V782l0-5.62a.12.12,0,0,1,.13-.13h1.06a.12.12,0,0,1,.13.13l0,5.62v2.42c0,3.22,1.36,4.44,3.39,4.44s3.35-1.51,4.23-4V782l0-5.62a.12.12,0,0,1,.13-.13h1.06a.12.12,0,0,1,.13.13l0,5.75,0,7.38a.12.12,0,0,1-.13.13h-1a.13.13,0,0,1-.13-.13l.06-2.62A5.16,5.16,0,0,1,554.11,790Z" transform="translate(0 -31.06)" fill="#072c50"/><path d="M567.19,789.65a.12.12,0,0,1-.13-.13l.05-6.78-.05-6.35a.12.12,0,0,1,.13-.13h1.06a.12.12,0,0,1,.13.13l-.1,2.45a5,5,0,0,1,4.39-2.73,3.64,3.64,0,0,1,1,.1.19.19,0,0,1,.13.18v.86s0,.1-.13.1a3.59,3.59,0,0,0-1-.13c-2,0-4,1.36-4.37,4.32l0,8a.12.12,0,0,1-.13.13Z" transform="translate(0 -31.06)" fill="#072c50"/><path d="M586.4,789.55a.18.18,0,0,1-.18.13h-1.33a.2.2,0,0,1-.18-.13l-5-13.16c0-.08,0-.13.08-.13h1.17a.18.18,0,0,1,.18.13l4.45,12.07,4.37-12.07a.18.18,0,0,1,.18-.13h1.07c.07,0,.1,0,.07.13Z" transform="translate(0 -31.06)" fill="#072c50"/><path d="M607.88,784.92c.08,0,.13.05.1.13-.47,3-2.29,4.89-5.51,4.89-4,0-6-2.84-6-6.94s2.29-7,5.87-7,5.7,2.49,5.75,6.81a.12.12,0,0,1-.13.13l-10.22,0c0,3.77,1.61,6,4.79,6,2.44,0,3.79-1.45,4.21-3.87a.16.16,0,0,1,.15-.13ZM602.31,777c-2.65,0-4.23,1.9-4.55,4.89h8.92C606.66,779.17,605.17,777,602.31,777Z" transform="translate(0 -31.06)" fill="#072c50"/><path d="M618.15,793.94a.2.2,0,0,1-.18.13h-1s-.1-.05-.07-.13l1.5-4.29-5.22-13.26c0-.08,0-.13.08-.13h1.19a.18.18,0,0,1,.18.13l4.45,11.44,3.8-11.44a.18.18,0,0,1,.18-.13h1.12c.07,0,.1,0,.07.13Z" transform="translate(0 -31.06)" fill="#072c50"/><path d="M630.73,774.75a.12.12,0,0,1-.13-.13V773a.12.12,0,0,1,.13-.13h1.07a.12.12,0,0,1,.13.13v1.58a.12.12,0,0,1-.13.13Zm0,14.9a.12.12,0,0,1-.13-.13l0-6.94,0-6.19a.12.12,0,0,1,.13-.13h1.07a.12.12,0,0,1,.13.13l0,6.16,0,7a.12.12,0,0,1-.13.13Z" transform="translate(0 -31.06)" fill="#072c50"/><path d="M639.31,789.65a.12.12,0,0,1-.13-.13l.05-5.74,0-7.39a.12.12,0,0,1,.13-.13h1a.12.12,0,0,1,.13.13l-.05,2.63A5.14,5.14,0,0,1,645,776c2.67,0,4.36,1.74,4.36,5.41v2.55l0,5.61a.12.12,0,0,1-.13.13H648.2a.13.13,0,0,1-.13-.13l0-5.61v-2.42c0-3.23-1.35-4.45-3.38-4.45s-3.36,1.51-4.24,4v2.91l0,5.61a.13.13,0,0,1-.13.13Z" transform="translate(0 -31.06)" fill="#072c50"/><path d="M661.49,794.67c-2.78,0-5.07-1.19-5.31-4.11a.13.13,0,0,1,.13-.13h1a.13.13,0,0,1,.13.13c.26,2.19,2,3.12,4,3.12,2.48,0,4.24-1.64,4.24-5.38v-1.43a4.64,4.64,0,0,1-4.36,2.73c-3.59,0-5.46-2.78-5.46-6.63s1.87-6.94,5.46-6.94a4.56,4.56,0,0,1,4.39,2.83l0-2.47a.12.12,0,0,1,.13-.13h1a.13.13,0,0,1,.13.13l-.06,4v7.93C667,792.51,664.87,794.67,661.49,794.67Zm.18-6.06c2.42,0,4.11-1.77,4.14-5.53s-1.56-6.09-4.27-6.09c-2.89,0-4.32,2.5-4.32,6S658.65,788.64,661.67,788.61Z" transform="translate(0 -31.06)" fill="#072c50"/><path d="M461.14,698.1c11.94,31.36,164.8-18,173.23-14.43C724.86,631.88,412.28,597.58,461.14,698.1Z" transform="translate(0 -31.06)" fill="none" stroke="#072c50" stroke-linecap="round" stroke-linejoin="round" stroke-width="3"/><path d="M465,675c10.76,28.24,148.43-16.19,156-13C702.49,615.39,421,584.49,465,675Z" transform="translate(0 -31.06)" fill="none" stroke="#072c50" stroke-linecap="round" stroke-linejoin="round"/><path d="M471.67,652.05c9.52,25,131.32-14.32,138-11.5C681.82,599.29,432.74,572,471.67,652.05Z" transform="translate(0 -31.06)" fill="none" stroke="#072c50" stroke-linecap="round" stroke-linejoin="round" stroke-width="3"/><path d="M479.29,616.94c7.49,19.67,103.35-11.27,108.64-9.05C644.68,575.41,448.65,553.9,479.29,616.94Z" transform="translate(0 -31.06)" fill="none" stroke="#072c50" stroke-linecap="round" stroke-linejoin="round"/><path d="M488.46,581.88c5.41,14.19,74.57-8.13,78.39-6.53C607.79,551.92,466.35,536.4,488.46,581.88Z" transform="translate(0 -31.06)" fill="none" stroke="#072c50" stroke-linecap="round" stroke-linejoin="round" stroke-width="3"/><line x1="436.42" y1="719.67" x2="670.42" y2="719.67" fill="none" stroke="#072c50" stroke-linecap="round" stroke-linejoin="round"/></g></g></svg>