<svg xmlns="http://www.w3.org/2000/svg" viewBox="0 0 351.418 119.1"><g id="Layer_2" data-name="Layer 2"><g id="Layer_1-2" data-name="Layer 1"><path d="M120.918,19.923h42.118c15.239,0,23.039,9.72,23.039,20.4,0,10.08-6.239,16.8-13.8,18.36,8.52,1.32,15.36,9.6,15.36,19.679,0,12-8.039,21.6-23.279,21.6H120.918Zm38.4,32.158c5.76,0,9.36-3.72,9.36-8.88,0-4.919-3.6-8.759-9.36-8.759H137.957V52.081Zm.6,33.358c6.481,0,10.32-3.719,10.32-9.479,0-5.039-3.6-9.359-10.32-9.359H137.957V85.439Z" transform="translate(0 -18.613)" fill="#f8f8f8"/><path d="M234.8,71.28h-12.48V99.959H205.277V19.923h37.439c16.679,0,26.879,10.919,26.879,25.8,0,14.159-8.88,21.718-17.52,23.758l18,30.479H250.516Zm5.4-36.718H222.316V56.641H240.2c6.84,0,12-4.32,12-11.039S247.035,34.562,240.2,34.562Z" transform="translate(0 -18.613)" fill="#f8f8f8"/><path d="M291.076,75.721a35.1,35.1,0,0,0,25.439,10.8c9.36,0,13.92-4.44,13.92-9,0-6-6.96-8.041-16.2-10.2-13.079-3-29.878-6.6-29.878-24.478,0-13.32,11.52-24.119,30.359-24.119,12.72,0,23.279,3.84,31.2,11.159l-9.48,12.479A34.147,34.147,0,0,0,313.516,33.6c-7.68,0-11.76,3.36-11.76,8.16,0,5.4,6.719,7.08,15.959,9.239,13.2,3,30,6.96,30,24.72,0,14.638-10.441,25.678-32.039,25.678-15.36,0-26.4-5.16-33.958-12.719Z" transform="translate(0 -18.613)" fill="#f8f8f8"/><path d="M121.289,134.237a.085.085,0,0,1-.09-.09l.036-6.554-.036-5.869a.085.085,0,0,1,.09-.091h4.375c2.522,0,4.2,1.1,4.2,2.971a2.686,2.686,0,0,1-2.429,2.863c2,.486,2.791,1.566,2.826,3.1,0,2.629-2.017,3.674-4.609,3.674Zm.811-7.112h3.529c2.017,0,3.277-.576,3.277-2.323,0-1.62-1.279-2.412-3.277-2.412h-3.493Zm.036,6.338h3.493c2.2,0,3.691-.792,3.691-2.881,0-1.927-1.765-2.683-3.691-2.683H122.1Z" transform="translate(0 -18.613)" fill="#f8f8f8"/><path d="M136.231,134.453c-1.856,0-3.026-1.206-3.026-3.745v-1.765l-.017-3.888a.085.085,0,0,1,.089-.091h.739a.086.086,0,0,1,.09.091l-.018,3.888v1.675c0,2.233.935,3.079,2.34,3.079,1.387,0,2.323-1.045,2.935-2.737v-2.017l-.018-3.888a.086.086,0,0,1,.091-.091h.738a.086.086,0,0,1,.09.091l-.037,3.978.018,5.114a.085.085,0,0,1-.09.09h-.7a.085.085,0,0,1-.09-.09l.035-1.819A3.564,3.564,0,0,1,136.231,134.453Z" transform="translate(0 -18.613)" fill="#f8f8f8"/><path d="M143.572,123.92a.086.086,0,0,1-.09-.09v-1.1a.085.085,0,0,1,.09-.089h.739a.084.084,0,0,1,.089.089v1.1a.084.084,0,0,1-.089.09Zm0,10.317a.086.086,0,0,1-.09-.09l.018-4.807-.018-4.285a.086.086,0,0,1,.09-.091h.739a.085.085,0,0,1,.089.091l-.017,4.266.017,4.826a.084.084,0,0,1-.089.09Z" transform="translate(0 -18.613)" fill="#f8f8f8"/><path d="M147.8,134.237a.085.085,0,0,1-.09-.09l.035-6.337-.035-6.086a.085.085,0,0,1,.09-.091h.72a.086.086,0,0,1,.09.091l-.037,6.049.037,6.374a.086.086,0,0,1-.09.09Z" transform="translate(0 -18.613)" fill="#f8f8f8"/><path d="M158.406,134.237a.086.086,0,0,1-.09-.09l.037-1.764a3.273,3.273,0,0,1-3.116,2.034c-2.413,0-3.709-2.106-3.709-4.808,0-2.664,1.315-4.842,3.709-4.842a3.211,3.211,0,0,1,3.079,1.944l-.017-4.987a.085.085,0,0,1,.09-.091h.738a.085.085,0,0,1,.09.091l-.036,4.968.036,7.455a.085.085,0,0,1-.09.09Zm-3.007-.522c1.8,0,2.971-1.351,2.99-4.016.017-2.646-1.08-4.249-2.953-4.249-2.089,0-3.007,1.819-3.007,4.07C152.429,131.843,153.347,133.715,155.4,133.715Z" transform="translate(0 -18.613)" fill="#f8f8f8"/><path d="M162.525,123.92a.085.085,0,0,1-.089-.09v-1.1a.085.085,0,0,1,.089-.089h.739a.086.086,0,0,1,.091.089v1.1a.086.086,0,0,1-.091.09Zm0,10.317a.085.085,0,0,1-.089-.09l.018-4.807-.018-4.285a.086.086,0,0,1,.089-.091h.739a.086.086,0,0,1,.091.091l-.019,4.266.019,4.826a.086.086,0,0,1-.091.09Z" transform="translate(0 -18.613)" fill="#f8f8f8"/><path d="M166.666,134.237a.085.085,0,0,1-.09-.09l.035-3.979-.017-5.113a.085.085,0,0,1,.09-.091h.7a.086.086,0,0,1,.09.091l-.037,1.818a3.568,3.568,0,0,1,3.169-2.125c1.855,0,3.026,1.206,3.026,3.745v1.765l.017,3.889a.085.085,0,0,1-.089.09h-.739a.085.085,0,0,1-.09-.09l.018-3.889v-1.675c0-2.232-.937-3.078-2.341-3.078-1.386,0-2.323,1.044-2.934,2.736v2.017l.017,3.889a.085.085,0,0,1-.09.09Z" transform="translate(0 -18.613)" fill="#f8f8f8"/><path d="M180.221,137.712c-1.927.018-3.511-.828-3.673-2.845a.085.085,0,0,1,.09-.09h.7a.085.085,0,0,1,.09.09c.179,1.513,1.369,2.161,2.808,2.161,1.711,0,2.936-1.134,2.936-3.727v-.99a3.221,3.221,0,0,1-3.026,1.89c-2.484,0-3.781-1.927-3.781-4.592s1.3-4.807,3.781-4.807a3.153,3.153,0,0,1,3.043,1.963l-.035-1.71a.085.085,0,0,1,.09-.091h.72a.085.085,0,0,1,.09.091l-.036,2.755V133.3C184.038,136.218,182.562,137.712,180.221,137.712Zm.126-4.195c1.675-.018,2.844-1.225,2.862-3.835.019-2.629-1.08-4.213-2.952-4.213-2,0-2.989,1.728-2.989,4.123C177.268,132.04,178.258,133.535,180.347,133.517Z" transform="translate(0 -18.613)" fill="#f8f8f8"/><path d="M198.383,132.58l-2.448-3.871h-3.277l.035,5.438a.084.084,0,0,1-.089.09h-.756a.085.085,0,0,1-.09-.09l.035-6.536-.035-5.887a.085.085,0,0,1,.09-.091h3.961c2.682,0,4.393,1.188,4.393,3.493,0,2.143-1.314,3.26-3.277,3.529l3.475,5.51c.036.036,0,.072-.036.072h-.9a.222.222,0,0,1-.144-.072Zm-5.725-4.915v.271h3.33c2.035,0,3.278-.811,3.278-2.791,0-1.784-1.225-2.738-3.278-2.738h-3.295Z" transform="translate(0 -18.613)" fill="#f8f8f8"/><path d="M210.21,130.96c.054,0,.09.036.071.09a3.609,3.609,0,0,1-3.816,3.386c-2.736,0-4.178-1.963-4.178-4.808s1.585-4.861,4.07-4.861c2.466,0,3.943,1.728,3.979,4.716a.085.085,0,0,1-.09.09l-7.076.019c0,2.61,1.116,4.14,3.312,4.14a2.8,2.8,0,0,0,2.917-2.682.115.115,0,0,1,.109-.09Zm-3.853-5.491c-1.837,0-2.935,1.314-3.151,3.385h6.176C209.363,126.98,208.338,125.469,206.357,125.469Z" transform="translate(0 -18.613)" fill="#f8f8f8"/><path d="M216.635,134.417c-2.359,0-3.817-1.063-3.854-3.367a.086.086,0,0,1,.09-.09h.685a.086.086,0,0,1,.091.09c.035,1.854,1.08,2.7,3,2.7,1.585,0,2.719-.721,2.719-2,0-3.007-6.373-.828-6.373-4.429,0-1.675,1.4-2.539,3.385-2.539,1.963,0,3.529.864,3.583,2.827a.085.085,0,0,1-.09.09h-.648a.085.085,0,0,1-.09-.09c-.073-1.53-1.261-2.161-2.755-2.161-1.549,0-2.539.613-2.539,1.837,0,2.736,6.392.558,6.392,4.411C220.236,133.409,218.67,134.417,216.635,134.417Z" transform="translate(0 -18.613)" fill="#f8f8f8"/><path d="M230.641,130.96c.053,0,.09.036.071.09a3.61,3.61,0,0,1-3.817,3.386c-2.737,0-4.177-1.963-4.177-4.808s1.585-4.861,4.069-4.861c2.467,0,3.944,1.728,3.979,4.716a.084.084,0,0,1-.09.09l-7.076.019c0,2.61,1.117,4.14,3.313,4.14a2.805,2.805,0,0,0,2.917-2.682.114.114,0,0,1,.108-.09Zm-3.854-5.491c-1.837,0-2.935,1.314-3.151,3.385h6.177C229.794,126.98,228.768,125.469,226.787,125.469Z" transform="translate(0 -18.613)" fill="#f8f8f8"/><path d="M240.126,134.237a.085.085,0,0,1-.09-.09l.036-1.764a3.282,3.282,0,0,1-3.115,2.016c-2.412,0-3.709-2.088-3.709-4.79,0-2.664,1.315-4.825,3.709-4.825a3.211,3.211,0,0,1,3.115,2.017l-.036-1.746a.085.085,0,0,1,.09-.091h.72a.086.086,0,0,1,.091.091l-.037,4.375.037,4.717a.086.086,0,0,1-.091.09Zm-3.007-.54c1.8,0,2.971-1.35,2.988-4s-1.08-4.213-2.952-4.213c-2.071,0-3.007,1.783-3.007,4.034C234.148,131.843,235.066,133.7,237.119,133.7Z" transform="translate(0 -18.613)" fill="#f8f8f8"/><path d="M244.156,134.237a.085.085,0,0,1-.09-.09l.036-4.7-.036-4.392a.085.085,0,0,1,.09-.091h.739a.085.085,0,0,1,.089.091l-.072,1.692a3.441,3.441,0,0,1,3.043-1.891,2.542,2.542,0,0,1,.685.073.135.135,0,0,1,.09.126v.593a.083.083,0,0,1-.09.073,2.261,2.261,0,0,0-.666-.09,3.07,3.07,0,0,0-3.026,2.988l.036,5.528a.085.085,0,0,1-.089.09Z" transform="translate(0 -18.613)" fill="#f8f8f8"/><path d="M254.184,134.436c-2.648,0-4.052-1.91-4.052-4.808s1.4-4.861,4.087-4.861a3.443,3.443,0,0,1,3.745,3.258.1.1,0,0,1-.09.09h-.666a.113.113,0,0,1-.108-.09,2.676,2.676,0,0,0-2.881-2.539c-2.16,0-3.187,1.62-3.187,4.142s1.009,4.087,3.169,4.1a2.826,2.826,0,0,0,3.026-2.826.084.084,0,0,1,.089-.09h.666a.085.085,0,0,1,.09.09A3.618,3.618,0,0,1,254.184,134.436Z" transform="translate(0 -18.613)" fill="#f8f8f8"/><path d="M264.641,125.486c-1.405,0-2.377,1.08-2.989,2.755l.036,5.906a.085.085,0,0,1-.09.09h-.72a.085.085,0,0,1-.09-.09l.036-6.356-.036-6.067a.085.085,0,0,1,.09-.091h.72a.085.085,0,0,1,.09.091l-.036,5.13a3.527,3.527,0,0,1,3.151-2.106c1.89,0,3.043,1.189,3.043,3.817v1.765l.018,3.817a.085.085,0,0,1-.091.09h-.738a.086.086,0,0,1-.09-.09l.019-3.8v-1.765C266.964,126.333,266.027,125.486,264.641,125.486Z" transform="translate(0 -18.613)" fill="#f8f8f8"/><path d="M280,134.4c-3.169,0-4.807-1.674-4.933-4.465a.085.085,0,0,1,.089-.09h.775a.085.085,0,0,1,.09.09c.144,2.3,1.242,3.691,4.015,3.691,2.017,0,3.619-.828,3.619-2.9,0-3.979-8.318-1.206-8.318-5.888,0-2.214,1.8-3.385,4.339-3.385,2.827,0,4.466,1.3,4.628,3.854a.086.086,0,0,1-.091.089h-.774a.085.085,0,0,1-.09-.089c-.126-2.072-1.3-3.062-3.692-3.062-2.16,0-3.457.811-3.457,2.539,0,3.709,8.319,1.009,8.319,5.87C284.514,133.175,282.588,134.4,280,134.4Z" transform="translate(0 -18.613)" fill="#f8f8f8"/><path d="M291.227,134.436c-2.683,0-4.141-1.927-4.141-4.827s1.458-4.842,4.141-4.842c2.665,0,4.14,1.944,4.14,4.842C295.367,132.49,293.892,134.436,291.227,134.436Zm0-.7c2.16,0,3.222-1.6,3.222-4.123,0-2.5-1.08-4.14-3.222-4.14-2.161.017-3.242,1.62-3.242,4.14S289.084,133.732,291.227,133.732Z" transform="translate(0 -18.613)" fill="#f8f8f8"/><path d="M298.354,134.237a.085.085,0,0,1-.09-.09l.035-6.337-.035-6.086a.085.085,0,0,1,.09-.091h.719a.086.086,0,0,1,.091.091l-.037,6.049.037,6.374a.086.086,0,0,1-.091.09Z" transform="translate(0 -18.613)" fill="#f8f8f8"/><path d="M305.356,134.453c-1.855,0-3.026-1.206-3.026-3.745v-1.765l-.017-3.888a.085.085,0,0,1,.089-.091h.739a.085.085,0,0,1,.09.091l-.018,3.888v1.675c0,2.233.936,3.079,2.341,3.079,1.386,0,2.323-1.045,2.934-2.737v-2.017l-.017-3.888a.085.085,0,0,1,.09-.091h.738a.085.085,0,0,1,.09.091l-.036,3.978.018,5.114a.085.085,0,0,1-.09.09h-.7a.085.085,0,0,1-.09-.09l.036-1.819A3.566,3.566,0,0,1,305.356,134.453Z" transform="translate(0 -18.613)" fill="#f8f8f8"/><path d="M316.48,134.111a.1.1,0,0,1-.09.108,4.541,4.541,0,0,1-1.027.162c-1.207,0-2.106-.612-2.106-2.574v-6.1h-1.1a.086.086,0,0,1-.09-.09v-.557a.086.086,0,0,1,.09-.091h1.1l-.019-2.233a.085.085,0,0,1,.09-.089h.738a.084.084,0,0,1,.09.089l-.017,2.233h2.251a.086.086,0,0,1,.09.091v.557a.086.086,0,0,1-.09.09h-2.251v6.1c0,1.385.36,1.8,1.278,1.8a3.918,3.918,0,0,0,.973-.107.083.083,0,0,1,.09.072Z" transform="translate(0 -18.613)" fill="#f8f8f8"/><path d="M319.34,123.92a.086.086,0,0,1-.09-.09v-1.1a.085.085,0,0,1,.09-.089h.738a.085.085,0,0,1,.091.089v1.1a.085.085,0,0,1-.091.09Zm0,10.317a.086.086,0,0,1-.09-.09l.019-4.807-.019-4.285a.086.086,0,0,1,.09-.091h.738a.086.086,0,0,1,.091.091l-.019,4.266.019,4.826a.085.085,0,0,1-.091.09Z" transform="translate(0 -18.613)" fill="#f8f8f8"/><path d="M327.225,134.436c-2.682,0-4.141-1.927-4.141-4.827s1.459-4.842,4.141-4.842c2.665,0,4.141,1.944,4.141,4.842C331.366,132.49,329.89,134.436,327.225,134.436Zm0-.7c2.161,0,3.223-1.6,3.223-4.123,0-2.5-1.081-4.14-3.223-4.14-2.16.017-3.241,1.62-3.241,4.14S325.082,133.732,327.225,133.732Z" transform="translate(0 -18.613)" fill="#f8f8f8"/><path d="M334.262,134.237a.085.085,0,0,1-.09-.09l.035-3.979-.017-5.113a.085.085,0,0,1,.089-.091h.7a.085.085,0,0,1,.09.091l-.036,1.818a3.568,3.568,0,0,1,3.169-2.125c1.855,0,3.026,1.206,3.026,3.745v1.765l.017,3.889a.085.085,0,0,1-.09.09h-.738a.085.085,0,0,1-.09-.09l.018-3.889v-1.675c0-2.232-.937-3.078-2.341-3.078-1.386,0-2.323,1.044-2.935,2.736v2.017l.018,3.889a.085.085,0,0,1-.09.09Z" transform="translate(0 -18.613)" fill="#f8f8f8"/><path d="M347.816,134.417c-2.358,0-3.816-1.063-3.853-3.367a.086.086,0,0,1,.09-.09h.684a.086.086,0,0,1,.091.09c.035,1.854,1.08,2.7,3.006,2.7,1.585,0,2.719-.721,2.719-2,0-3.007-6.373-.828-6.373-4.429,0-1.675,1.4-2.539,3.385-2.539,1.962,0,3.529.864,3.583,2.827a.086.086,0,0,1-.09.09h-.649a.086.086,0,0,1-.09-.09c-.072-1.53-1.26-2.161-2.754-2.161-1.549,0-2.54.613-2.54,1.837,0,2.736,6.393.558,6.393,4.411C351.418,133.409,349.852,134.417,347.816,134.417Z" transform="translate(0 -18.613)" fill="#f8f8f8"/><line y1="93.5" x2="350" y2="93.5" fill="none" stroke="#f8f8f8" stroke-miterlimit="10" stroke-width="4"/><path d="M23.5,72.914H6.5v27.7h17Zm24-34.624h-17V99.747h17ZM71.5,55.6h-17V99.747h17Zm24-35.489h-17V99.747h17Z" transform="translate(0 -18.613)" fill="none" stroke="#f8f8f8" stroke-miterlimit="10" stroke-width="3"/></g></g></svg>