<svg xmlns="http://www.w3.org/2000/svg" viewBox="0 0 761 975.175"><g id="Layer_2" data-name="Layer 2"><g id="Layer_1-2" data-name="Layer 1"><path d="M241.84,33.057h69.893c25.289,0,38.233,16.129,38.233,33.851,0,16.727-10.355,27.877-22.9,30.466,14.138,2.19,25.489,15.931,25.489,32.657,0,19.913-13.342,35.843-38.631,35.843H241.84Zm63.721,53.365c9.557,0,15.531-6.173,15.531-14.735,0-8.165-5.974-14.537-15.531-14.537H270.115V86.422Zm1,55.357c10.753,0,17.125-6.173,17.125-15.73,0-8.363-5.974-15.532-17.125-15.532H270.115v31.262Z" transform="translate(0 -31.064)" fill="#393939"/><path d="M430.813,118.282H410.1v47.592H381.827V33.057h62.128c27.679,0,44.605,18.12,44.605,42.811,0,23.5-14.736,36.042-29.074,39.428l29.869,50.578H456.9Zm8.96-60.932H410.1V93.989h29.669c11.35,0,19.913-7.169,19.913-18.32S451.123,57.35,439.773,57.35Z" transform="translate(0 -31.064)" fill="#393939"/><path d="M524.2,125.65a58.235,58.235,0,0,0,42.215,17.921c15.532,0,23.1-7.367,23.1-14.933,0-9.957-11.549-13.342-26.882-16.926-21.7-4.979-49.583-10.952-49.583-40.622,0-22.1,19.116-40.026,50.379-40.026,21.107,0,38.631,6.373,51.773,18.52L599.474,70.293c-10.753-9.956-25.09-14.536-38.034-14.536-12.744,0-19.514,5.575-19.514,13.54,0,8.961,11.151,11.749,26.484,15.333,21.9,4.978,49.782,11.55,49.782,41.02,0,24.294-17.324,42.614-53.167,42.614-25.488,0-43.808-8.563-56.353-21.108Z" transform="translate(0 -31.064)" fill="#393939"/><path d="M106.008,122.009H77.8v46.947h28.21Zm39.826-58.683h-28.21V167.488h28.21ZM185.66,92.668H157.45v74.82h28.21Zm39.827-60.15H197.276v134.97h28.211Z" transform="translate(0 -31.064)" fill="none" stroke="#072c50" stroke-miterlimit="10" stroke-width="2.835"/><path d="M193.244,211.6a.14.14,0,0,1-.149-.149l.059-10.875-.059-9.74a.141.141,0,0,1,.149-.15h7.26c4.183,0,6.961,1.824,6.961,4.93,0,2.69-1.344,4.123-4.033,4.751,3.316.807,4.631,2.6,4.69,5.139,0,4.362-3.346,6.094-7.648,6.094Zm1.344-11.8h5.856c3.346,0,5.438-.956,5.438-3.854,0-2.689-2.121-4-5.438-4h-5.8Zm.06,10.516h5.8c3.645,0,6.125-1.314,6.125-4.78,0-3.2-2.928-4.451-6.125-4.451h-5.856Z" transform="translate(0 -31.064)" fill="#393939"/><path d="M218.035,211.963c-3.077,0-5.018-2-5.018-6.214V202.82l-.031-6.453a.141.141,0,0,1,.15-.149h1.224a.141.141,0,0,1,.15.149l-.03,6.453v2.78c0,3.7,1.554,5.108,3.884,5.108,2.3,0,3.855-1.732,4.87-4.541V202.82l-.03-6.453a.141.141,0,0,1,.15-.149h1.224a.141.141,0,0,1,.15.149l-.06,6.6.03,8.485a.14.14,0,0,1-.149.149h-1.165a.141.141,0,0,1-.15-.149l.06-3.017A5.92,5.92,0,0,1,218.035,211.963Z" transform="translate(0 -31.064)" fill="#393939"/><path d="M230.222,194.485a.141.141,0,0,1-.15-.149v-1.822a.142.142,0,0,1,.15-.15h1.224a.142.142,0,0,1,.15.15v1.822a.141.141,0,0,1-.15.149Zm0,17.119a.141.141,0,0,1-.15-.149l.031-7.977-.031-7.111a.141.141,0,0,1,.15-.149h1.224a.141.141,0,0,1,.15.149l-.03,7.081.03,8.007a.141.141,0,0,1-.15.149Z" transform="translate(0 -31.064)" fill="#393939"/><path d="M237.24,211.6a.14.14,0,0,1-.149-.149l.059-10.517-.059-10.1a.141.141,0,0,1,.149-.15h1.2a.142.142,0,0,1,.149.15l-.06,10.039.06,10.576a.141.141,0,0,1-.149.149Z" transform="translate(0 -31.064)" fill="#393939"/><path d="M254.836,211.6a.14.14,0,0,1-.149-.149l.059-2.928a5.429,5.429,0,0,1-5.168,3.376c-4,0-6.155-3.5-6.155-7.977,0-4.421,2.181-8.036,6.155-8.036a5.332,5.332,0,0,1,5.109,3.226l-.03-8.276a.142.142,0,0,1,.15-.15h1.224a.142.142,0,0,1,.15.15l-.06,8.246.06,12.369a.141.141,0,0,1-.15.149Zm-4.989-.866c2.987,0,4.929-2.241,4.96-6.663.029-4.391-1.793-7.051-4.9-7.051-3.466,0-4.989,3.018-4.989,6.752C244.917,207.631,246.44,210.738,249.847,210.738Z" transform="translate(0 -31.064)" fill="#393939"/><path d="M261.673,194.485a.141.141,0,0,1-.15-.149v-1.822a.142.142,0,0,1,.15-.15H262.9a.142.142,0,0,1,.15.15v1.822a.141.141,0,0,1-.15.149Zm0,17.119a.141.141,0,0,1-.15-.149l.031-7.977-.031-7.111a.141.141,0,0,1,.15-.149H262.9a.141.141,0,0,1,.15.149l-.029,7.081.029,8.007a.141.141,0,0,1-.15.149Z" transform="translate(0 -31.064)" fill="#393939"/><path d="M268.542,211.6a.14.14,0,0,1-.149-.149l.059-6.6-.029-8.486a.14.14,0,0,1,.149-.149h1.165a.141.141,0,0,1,.15.149l-.06,3.018a5.919,5.919,0,0,1,5.258-3.526c3.077,0,5.019,2,5.019,6.215V205l.03,6.453a.141.141,0,0,1-.15.149H278.76a.141.141,0,0,1-.15-.149l.031-6.453v-2.778c0-3.7-1.554-5.11-3.885-5.11-2.3,0-3.854,1.733-4.869,4.541V205l.029,6.453a.141.141,0,0,1-.149.149Z" transform="translate(0 -31.064)" fill="#393939"/><path d="M291.035,217.371c-3.2.029-5.825-1.375-6.1-4.721a.141.141,0,0,1,.15-.149h1.165a.141.141,0,0,1,.149.149c.3,2.51,2.272,3.585,4.661,3.585,2.838,0,4.871-1.881,4.871-6.184v-1.644a5.345,5.345,0,0,1-5.02,3.138c-4.123,0-6.274-3.2-6.274-7.619s2.151-7.977,6.274-7.977a5.234,5.234,0,0,1,5.049,3.257l-.06-2.839a.141.141,0,0,1,.15-.149h1.195a.14.14,0,0,1,.149.149l-.059,4.571v9.113C297.369,214.891,294.92,217.371,291.035,217.371Zm.21-6.962c2.778-.029,4.72-2.031,4.75-6.363.03-4.362-1.793-6.991-4.9-6.991-3.317,0-4.96,2.868-4.96,6.841C286.136,207.96,287.779,210.439,291.245,210.409Z" transform="translate(0 -31.064)" fill="#393939"/><path d="M321.174,208.855l-4.063-6.422h-5.437l.059,9.022a.14.14,0,0,1-.149.149h-1.255a.14.14,0,0,1-.149-.149l.059-10.845-.059-9.77a.141.141,0,0,1,.149-.15H316.9c4.453,0,7.29,1.973,7.29,5.8,0,3.555-2.18,5.408-5.437,5.856l5.767,9.142c.059.06,0,.119-.06.119h-1.494a.365.365,0,0,1-.239-.119Zm-9.5-8.156v.448H317.2c3.376,0,5.438-1.344,5.438-4.63,0-2.958-2.032-4.541-5.438-4.541h-5.467Z" transform="translate(0 -31.064)" fill="#393939"/><path d="M340.8,206.167c.089,0,.149.06.119.149-.538,3.436-2.629,5.618-6.334,5.618-4.541,0-6.932-3.257-6.932-7.978s2.63-8.066,6.753-8.066c4.093,0,6.543,2.868,6.6,7.827a.141.141,0,0,1-.15.149l-11.742.03c0,4.333,1.853,6.872,5.5,6.872,2.809,0,4.362-1.673,4.84-4.452a.189.189,0,0,1,.179-.149Zm-6.394-9.112c-3.048,0-4.87,2.18-5.228,5.616h10.247C339.4,199.564,337.692,197.055,334.406,197.055Z" transform="translate(0 -31.064)" fill="#393939"/><path d="M351.461,211.9c-3.913,0-6.333-1.762-6.394-5.587a.142.142,0,0,1,.15-.149h1.136a.141.141,0,0,1,.149.149c.06,3.078,1.792,4.482,4.989,4.482,2.629,0,4.512-1.195,4.512-3.317,0-4.989-10.577-1.374-10.577-7.349,0-2.778,2.331-4.213,5.617-4.213,3.257,0,5.855,1.435,5.945,4.691a.141.141,0,0,1-.149.149h-1.075a.141.141,0,0,1-.15-.149c-.119-2.54-2.092-3.586-4.571-3.586-2.569,0-4.213,1.016-4.213,3.048,0,4.541,10.607.926,10.607,7.32C357.437,210.23,354.838,211.9,351.461,211.9Z" transform="translate(0 -31.064)" fill="#393939"/><path d="M374.7,206.167c.089,0,.15.06.119.149-.538,3.436-2.629,5.618-6.334,5.618-4.541,0-6.931-3.257-6.931-7.978s2.63-8.066,6.753-8.066c4.092,0,6.543,2.868,6.6,7.827a.14.14,0,0,1-.149.149l-11.742.03c0,4.333,1.852,6.872,5.5,6.872,2.808,0,4.361-1.673,4.839-4.452a.19.19,0,0,1,.179-.149Zm-6.393-9.112c-3.048,0-4.871,2.18-5.229,5.616h10.247C373.3,199.564,371.6,197.055,368.309,197.055Z" transform="translate(0 -31.064)" fill="#393939"/><path d="M390.442,211.6a.141.141,0,0,1-.149-.149l.06-2.928a5.446,5.446,0,0,1-5.168,3.346c-4,0-6.156-3.466-6.156-7.947,0-4.421,2.182-8.007,6.156-8.007a5.33,5.33,0,0,1,5.168,3.347l-.06-2.9a.141.141,0,0,1,.149-.149h1.2a.14.14,0,0,1,.149.149l-.059,7.26.059,7.828a.14.14,0,0,1-.149.149Zm-4.989-.9c2.987,0,4.93-2.24,4.96-6.633s-1.793-6.991-4.9-6.991c-3.436,0-4.99,2.958-4.99,6.692C380.523,207.631,382.047,210.708,385.453,210.708Z" transform="translate(0 -31.064)" fill="#393939"/><path d="M397.13,211.6a.141.141,0,0,1-.15-.149l.06-7.8-.06-7.29a.141.141,0,0,1,.15-.149h1.224a.141.141,0,0,1,.15.149l-.119,2.809a5.706,5.706,0,0,1,5.049-3.137,4.248,4.248,0,0,1,1.135.119.224.224,0,0,1,.15.209v.987a.137.137,0,0,1-.15.119,3.779,3.779,0,0,0-1.105-.15c-2.271,0-4.631,1.554-5.02,4.96l.06,9.172a.141.141,0,0,1-.15.149Z" transform="translate(0 -31.064)" fill="#393939"/><path d="M413.77,211.934c-4.392,0-6.723-3.167-6.723-7.978s2.331-8.066,6.782-8.066c3.7,0,5.916,2.18,6.215,5.407a.161.161,0,0,1-.149.149h-1.106a.19.19,0,0,1-.18-.149,4.44,4.44,0,0,0-4.78-4.213c-3.585,0-5.288,2.689-5.288,6.872s1.673,6.782,5.259,6.812c3.077,0,4.75-1.852,5.018-4.691a.141.141,0,0,1,.15-.149h1.1a.141.141,0,0,1,.15.149A6,6,0,0,1,413.77,211.934Z" transform="translate(0 -31.064)" fill="#393939"/><path d="M431.123,197.084c-2.33,0-3.943,1.793-4.959,4.571l.06,9.8a.141.141,0,0,1-.15.149h-1.195a.141.141,0,0,1-.15-.149l.06-10.547-.06-10.068a.142.142,0,0,1,.15-.15h1.195a.142.142,0,0,1,.15.15l-.06,8.515a5.849,5.849,0,0,1,5.228-3.5c3.137,0,5.049,1.972,5.049,6.334v2.928l.03,6.334a.141.141,0,0,1-.15.149H435.1a.141.141,0,0,1-.15-.149l.031-6.3v-2.927C434.978,198.488,433.424,197.084,431.123,197.084Z" transform="translate(0 -31.064)" fill="#393939"/><path d="M456.6,211.873c-5.258,0-7.977-2.778-8.186-7.409a.141.141,0,0,1,.149-.15h1.285a.141.141,0,0,1,.149.15c.239,3.824,2.062,6.125,6.663,6.125,3.346,0,6-1.375,6-4.811,0-6.6-13.8-2-13.8-9.769,0-3.675,2.988-5.617,7.2-5.617,4.691,0,7.41,2.151,7.678,6.394a.141.141,0,0,1-.149.149h-1.284a.141.141,0,0,1-.15-.149c-.209-3.436-2.151-5.079-6.125-5.079-3.585,0-5.736,1.344-5.736,4.212,0,6.155,13.8,1.674,13.8,9.74C464.1,209.842,460.9,211.873,456.6,211.873Z" transform="translate(0 -31.064)" fill="#393939"/><path d="M475.24,211.934c-4.451,0-6.871-3.2-6.871-8.008s2.42-8.036,6.871-8.036c4.422,0,6.872,3.226,6.872,8.036C482.112,208.706,479.662,211.934,475.24,211.934Zm0-1.166c3.586,0,5.349-2.659,5.349-6.842,0-4.153-1.793-6.871-5.349-6.871-3.585.029-5.377,2.688-5.377,6.871S471.686,210.768,475.24,210.768Z" transform="translate(0 -31.064)" fill="#393939"/><path d="M487.068,211.6a.141.141,0,0,1-.149-.149l.06-10.517-.06-10.1a.142.142,0,0,1,.149-.15h1.2a.141.141,0,0,1,.149.15l-.059,10.039.059,10.576a.14.14,0,0,1-.149.149Z" transform="translate(0 -31.064)" fill="#393939"/><path d="M498.688,211.963c-3.078,0-5.019-2-5.019-6.214V202.82l-.03-6.453a.14.14,0,0,1,.149-.149h1.225a.14.14,0,0,1,.149.149l-.029,6.453v2.78c0,3.7,1.554,5.108,3.884,5.108,2.3,0,3.854-1.732,4.87-4.541V202.82l-.031-6.453a.141.141,0,0,1,.15-.149h1.224a.141.141,0,0,1,.15.149l-.06,6.6.031,8.485a.141.141,0,0,1-.15.149h-1.165a.14.14,0,0,1-.149-.149l.059-3.017A5.918,5.918,0,0,1,498.688,211.963Z" transform="translate(0 -31.064)" fill="#393939"/><path d="M517.147,211.4a.167.167,0,0,1-.149.178,7.5,7.5,0,0,1-1.7.27c-2,0-3.5-1.016-3.5-4.273V197.443h-1.822a.141.141,0,0,1-.15-.149v-.927a.141.141,0,0,1,.15-.149H511.8l-.029-3.7a.141.141,0,0,1,.149-.15h1.225a.141.141,0,0,1,.149.15l-.03,3.7H517a.141.141,0,0,1,.149.149v.927a.141.141,0,0,1-.149.149h-3.735v10.128c0,2.3.6,2.988,2.122,2.988A6.523,6.523,0,0,0,517,210.38a.136.136,0,0,1,.149.119Z" transform="translate(0 -31.064)" fill="#393939"/><path d="M521.9,194.485a.141.141,0,0,1-.15-.149v-1.822a.142.142,0,0,1,.15-.15h1.224a.142.142,0,0,1,.15.15v1.822a.141.141,0,0,1-.15.149Zm0,17.119a.141.141,0,0,1-.15-.149l.03-7.977-.03-7.111a.141.141,0,0,1,.15-.149h1.224a.141.141,0,0,1,.15.149l-.03,7.081.03,8.007a.141.141,0,0,1-.15.149Z" transform="translate(0 -31.064)" fill="#393939"/><path d="M534.979,211.934c-4.452,0-6.872-3.2-6.872-8.008s2.42-8.036,6.872-8.036c4.421,0,6.872,3.226,6.872,8.036C541.851,208.706,539.4,211.934,534.979,211.934Zm0-1.166c3.585,0,5.348-2.659,5.348-6.842,0-4.153-1.793-6.871-5.348-6.871-3.585.029-5.377,2.688-5.377,6.871S531.424,210.768,534.979,210.768Z" transform="translate(0 -31.064)" fill="#393939"/><path d="M546.656,211.6a.14.14,0,0,1-.149-.149l.059-6.6-.029-8.486a.141.141,0,0,1,.15-.149h1.165a.141.141,0,0,1,.149.149l-.06,3.018a5.92,5.92,0,0,1,5.258-3.526c3.077,0,5.02,2,5.02,6.215V205l.029,6.453a.141.141,0,0,1-.149.149h-1.225a.14.14,0,0,1-.149-.149l.03-6.453v-2.778c0-3.7-1.554-5.11-3.884-5.11-2.3,0-3.854,1.733-4.87,4.541V205l.029,6.453a.14.14,0,0,1-.149.149Z" transform="translate(0 -31.064)" fill="#393939"/><path d="M569.149,211.9c-3.913,0-6.333-1.762-6.393-5.587a.141.141,0,0,1,.149-.149h1.136a.141.141,0,0,1,.149.149c.06,3.078,1.792,4.482,4.99,4.482,2.629,0,4.511-1.195,4.511-3.317,0-4.989-10.577-1.374-10.577-7.349,0-2.778,2.331-4.213,5.617-4.213,3.257,0,5.856,1.435,5.946,4.691a.141.141,0,0,1-.15.149h-1.075a.141.141,0,0,1-.149-.149c-.119-2.54-2.092-3.586-4.572-3.586-2.569,0-4.212,1.016-4.212,3.048,0,4.541,10.606.926,10.606,7.32C575.125,210.23,572.525,211.9,569.149,211.9Z" transform="translate(0 -31.064)" fill="#393939"/><path d="M193.244,211.6a.14.14,0,0,1-.149-.149l.059-10.875-.059-9.74a.141.141,0,0,1,.149-.15h7.26c4.183,0,6.961,1.824,6.961,4.93,0,2.69-1.344,4.123-4.033,4.751,3.316.807,4.631,2.6,4.69,5.139,0,4.362-3.346,6.094-7.648,6.094Zm1.344-11.8h5.856c3.346,0,5.438-.956,5.438-3.854,0-2.689-2.121-4-5.438-4h-5.8Zm.06,10.516h5.8c3.645,0,6.125-1.314,6.125-4.78,0-3.2-2.928-4.451-6.125-4.451h-5.856Z" transform="translate(0 -31.064)" fill="#072c50"/><path d="M218.035,211.963c-3.077,0-5.018-2-5.018-6.214V202.82l-.031-6.453a.141.141,0,0,1,.15-.149h1.224a.141.141,0,0,1,.15.149l-.03,6.453v2.78c0,3.7,1.554,5.108,3.884,5.108,2.3,0,3.855-1.732,4.87-4.541V202.82l-.03-6.453a.141.141,0,0,1,.15-.149h1.224a.141.141,0,0,1,.15.149l-.06,6.6.03,8.485a.14.14,0,0,1-.149.149h-1.165a.141.141,0,0,1-.15-.149l.06-3.017A5.92,5.92,0,0,1,218.035,211.963Z" transform="translate(0 -31.064)" fill="#072c50"/><path d="M230.222,194.485a.141.141,0,0,1-.15-.149v-1.822a.142.142,0,0,1,.15-.15h1.224a.142.142,0,0,1,.15.15v1.822a.141.141,0,0,1-.15.149Zm0,17.119a.141.141,0,0,1-.15-.149l.031-7.977-.031-7.111a.141.141,0,0,1,.15-.149h1.224a.141.141,0,0,1,.15.149l-.03,7.081.03,8.007a.141.141,0,0,1-.15.149Z" transform="translate(0 -31.064)" fill="#072c50"/><path d="M237.24,211.6a.14.14,0,0,1-.149-.149l.059-10.517-.059-10.1a.141.141,0,0,1,.149-.15h1.2a.142.142,0,0,1,.149.15l-.06,10.039.06,10.576a.141.141,0,0,1-.149.149Z" transform="translate(0 -31.064)" fill="#072c50"/><path d="M254.836,211.6a.14.14,0,0,1-.149-.149l.059-2.928a5.429,5.429,0,0,1-5.168,3.376c-4,0-6.155-3.5-6.155-7.977,0-4.421,2.181-8.036,6.155-8.036a5.332,5.332,0,0,1,5.109,3.226l-.03-8.276a.142.142,0,0,1,.15-.15h1.224a.142.142,0,0,1,.15.15l-.06,8.246.06,12.369a.141.141,0,0,1-.15.149Zm-4.989-.866c2.987,0,4.929-2.241,4.96-6.663.029-4.391-1.793-7.051-4.9-7.051-3.466,0-4.989,3.018-4.989,6.752C244.917,207.631,246.44,210.738,249.847,210.738Z" transform="translate(0 -31.064)" fill="#072c50"/><path d="M261.673,194.485a.141.141,0,0,1-.15-.149v-1.822a.142.142,0,0,1,.15-.15H262.9a.142.142,0,0,1,.15.15v1.822a.141.141,0,0,1-.15.149Zm0,17.119a.141.141,0,0,1-.15-.149l.031-7.977-.031-7.111a.141.141,0,0,1,.15-.149H262.9a.141.141,0,0,1,.15.149l-.029,7.081.029,8.007a.141.141,0,0,1-.15.149Z" transform="translate(0 -31.064)" fill="#072c50"/><path d="M268.542,211.6a.14.14,0,0,1-.149-.149l.059-6.6-.029-8.486a.14.14,0,0,1,.149-.149h1.165a.141.141,0,0,1,.15.149l-.06,3.018a5.919,5.919,0,0,1,5.258-3.526c3.077,0,5.019,2,5.019,6.215V205l.03,6.453a.141.141,0,0,1-.15.149H278.76a.141.141,0,0,1-.15-.149l.031-6.453v-2.778c0-3.7-1.554-5.11-3.885-5.11-2.3,0-3.854,1.733-4.869,4.541V205l.029,6.453a.141.141,0,0,1-.149.149Z" transform="translate(0 -31.064)" fill="#072c50"/><path d="M291.035,217.371c-3.2.029-5.825-1.375-6.1-4.721a.141.141,0,0,1,.15-.149h1.165a.141.141,0,0,1,.149.149c.3,2.51,2.272,3.585,4.661,3.585,2.838,0,4.871-1.881,4.871-6.184v-1.644a5.345,5.345,0,0,1-5.02,3.138c-4.123,0-6.274-3.2-6.274-7.619s2.151-7.977,6.274-7.977a5.234,5.234,0,0,1,5.049,3.257l-.06-2.839a.141.141,0,0,1,.15-.149h1.195a.14.14,0,0,1,.149.149l-.059,4.571v9.113C297.369,214.891,294.92,217.371,291.035,217.371Zm.21-6.962c2.778-.029,4.72-2.031,4.75-6.363.03-4.362-1.793-6.991-4.9-6.991-3.317,0-4.96,2.868-4.96,6.841C286.136,207.96,287.779,210.439,291.245,210.409Z" transform="translate(0 -31.064)" fill="#072c50"/><path d="M321.174,208.855l-4.063-6.422h-5.437l.059,9.022a.14.14,0,0,1-.149.149h-1.255a.14.14,0,0,1-.149-.149l.059-10.845-.059-9.77a.141.141,0,0,1,.149-.15H316.9c4.453,0,7.29,1.973,7.29,5.8,0,3.555-2.18,5.408-5.437,5.856l5.767,9.142c.059.06,0,.119-.06.119h-1.494a.365.365,0,0,1-.239-.119Zm-9.5-8.156v.448H317.2c3.376,0,5.438-1.344,5.438-4.63,0-2.958-2.032-4.541-5.438-4.541h-5.467Z" transform="translate(0 -31.064)" fill="#072c50"/><path d="M340.8,206.167c.089,0,.149.06.119.149-.538,3.436-2.629,5.618-6.334,5.618-4.541,0-6.932-3.257-6.932-7.978s2.63-8.066,6.753-8.066c4.093,0,6.543,2.868,6.6,7.827a.141.141,0,0,1-.15.149l-11.742.03c0,4.333,1.853,6.872,5.5,6.872,2.809,0,4.362-1.673,4.84-4.452a.189.189,0,0,1,.179-.149Zm-6.394-9.112c-3.048,0-4.87,2.18-5.228,5.616h10.247C339.4,199.564,337.692,197.055,334.406,197.055Z" transform="translate(0 -31.064)" fill="#072c50"/><path d="M351.461,211.9c-3.913,0-6.333-1.762-6.394-5.587a.142.142,0,0,1,.15-.149h1.136a.141.141,0,0,1,.149.149c.06,3.078,1.792,4.482,4.989,4.482,2.629,0,4.512-1.195,4.512-3.317,0-4.989-10.577-1.374-10.577-7.349,0-2.778,2.331-4.213,5.617-4.213,3.257,0,5.855,1.435,5.945,4.691a.141.141,0,0,1-.149.149h-1.075a.141.141,0,0,1-.15-.149c-.119-2.54-2.092-3.586-4.571-3.586-2.569,0-4.213,1.016-4.213,3.048,0,4.541,10.607.926,10.607,7.32C357.437,210.23,354.838,211.9,351.461,211.9Z" transform="translate(0 -31.064)" fill="#072c50"/><path d="M374.7,206.167c.089,0,.15.06.119.149-.538,3.436-2.629,5.618-6.334,5.618-4.541,0-6.931-3.257-6.931-7.978s2.63-8.066,6.753-8.066c4.092,0,6.543,2.868,6.6,7.827a.14.14,0,0,1-.149.149l-11.742.03c0,4.333,1.852,6.872,5.5,6.872,2.808,0,4.361-1.673,4.839-4.452a.19.19,0,0,1,.179-.149Zm-6.393-9.112c-3.048,0-4.871,2.18-5.229,5.616h10.247C373.3,199.564,371.6,197.055,368.309,197.055Z" transform="translate(0 -31.064)" fill="#072c50"/><path d="M390.442,211.6a.141.141,0,0,1-.149-.149l.06-2.928a5.446,5.446,0,0,1-5.168,3.346c-4,0-6.156-3.466-6.156-7.947,0-4.421,2.182-8.007,6.156-8.007a5.33,5.33,0,0,1,5.168,3.347l-.06-2.9a.141.141,0,0,1,.149-.149h1.2a.14.14,0,0,1,.149.149l-.059,7.26.059,7.828a.14.14,0,0,1-.149.149Zm-4.989-.9c2.987,0,4.93-2.24,4.96-6.633s-1.793-6.991-4.9-6.991c-3.436,0-4.99,2.958-4.99,6.692C380.523,207.631,382.047,210.708,385.453,210.708Z" transform="translate(0 -31.064)" fill="#072c50"/><path d="M397.13,211.6a.141.141,0,0,1-.15-.149l.06-7.8-.06-7.29a.141.141,0,0,1,.15-.149h1.224a.141.141,0,0,1,.15.149l-.119,2.809a5.706,5.706,0,0,1,5.049-3.137,4.248,4.248,0,0,1,1.135.119.224.224,0,0,1,.15.209v.987a.137.137,0,0,1-.15.119,3.779,3.779,0,0,0-1.105-.15c-2.271,0-4.631,1.554-5.02,4.96l.06,9.172a.141.141,0,0,1-.15.149Z" transform="translate(0 -31.064)" fill="#072c50"/><path d="M413.77,211.934c-4.392,0-6.723-3.167-6.723-7.978s2.331-8.066,6.782-8.066c3.7,0,5.916,2.18,6.215,5.407a.161.161,0,0,1-.149.149h-1.106a.19.19,0,0,1-.18-.149,4.44,4.44,0,0,0-4.78-4.213c-3.585,0-5.288,2.689-5.288,6.872s1.673,6.782,5.259,6.812c3.077,0,4.75-1.852,5.018-4.691a.141.141,0,0,1,.15-.149h1.1a.141.141,0,0,1,.15.149A6,6,0,0,1,413.77,211.934Z" transform="translate(0 -31.064)" fill="#072c50"/><path d="M431.123,197.084c-2.33,0-3.943,1.793-4.959,4.571l.06,9.8a.141.141,0,0,1-.15.149h-1.195a.141.141,0,0,1-.15-.149l.06-10.547-.06-10.068a.142.142,0,0,1,.15-.15h1.195a.142.142,0,0,1,.15.15l-.06,8.515a5.849,5.849,0,0,1,5.228-3.5c3.137,0,5.049,1.972,5.049,6.334v2.928l.03,6.334a.141.141,0,0,1-.15.149H435.1a.141.141,0,0,1-.15-.149l.031-6.3v-2.927C434.978,198.488,433.424,197.084,431.123,197.084Z" transform="translate(0 -31.064)" fill="#072c50"/><path d="M456.6,211.873c-5.258,0-7.977-2.778-8.186-7.409a.141.141,0,0,1,.149-.15h1.285a.141.141,0,0,1,.149.15c.239,3.824,2.062,6.125,6.663,6.125,3.346,0,6-1.375,6-4.811,0-6.6-13.8-2-13.8-9.769,0-3.675,2.988-5.617,7.2-5.617,4.691,0,7.41,2.151,7.678,6.394a.141.141,0,0,1-.149.149h-1.284a.141.141,0,0,1-.15-.149c-.209-3.436-2.151-5.079-6.125-5.079-3.585,0-5.736,1.344-5.736,4.212,0,6.155,13.8,1.674,13.8,9.74C464.1,209.842,460.9,211.873,456.6,211.873Z" transform="translate(0 -31.064)" fill="#072c50"/><path d="M475.24,211.934c-4.451,0-6.871-3.2-6.871-8.008s2.42-8.036,6.871-8.036c4.422,0,6.872,3.226,6.872,8.036C482.112,208.706,479.662,211.934,475.24,211.934Zm0-1.166c3.586,0,5.349-2.659,5.349-6.842,0-4.153-1.793-6.871-5.349-6.871-3.585.029-5.377,2.688-5.377,6.871S471.686,210.768,475.24,210.768Z" transform="translate(0 -31.064)" fill="#072c50"/><path d="M487.068,211.6a.141.141,0,0,1-.149-.149l.06-10.517-.06-10.1a.142.142,0,0,1,.149-.15h1.2a.141.141,0,0,1,.149.15l-.059,10.039.059,10.576a.14.14,0,0,1-.149.149Z" transform="translate(0 -31.064)" fill="#072c50"/><path d="M498.688,211.963c-3.078,0-5.019-2-5.019-6.214V202.82l-.03-6.453a.14.14,0,0,1,.149-.149h1.225a.14.14,0,0,1,.149.149l-.029,6.453v2.78c0,3.7,1.554,5.108,3.884,5.108,2.3,0,3.854-1.732,4.87-4.541V202.82l-.031-6.453a.141.141,0,0,1,.15-.149h1.224a.141.141,0,0,1,.15.149l-.06,6.6.031,8.485a.141.141,0,0,1-.15.149h-1.165a.14.14,0,0,1-.149-.149l.059-3.017A5.918,5.918,0,0,1,498.688,211.963Z" transform="translate(0 -31.064)" fill="#072c50"/><path d="M517.147,211.4a.167.167,0,0,1-.149.178,7.5,7.5,0,0,1-1.7.27c-2,0-3.5-1.016-3.5-4.273V197.443h-1.822a.141.141,0,0,1-.15-.149v-.927a.141.141,0,0,1,.15-.149H511.8l-.029-3.7a.141.141,0,0,1,.149-.15h1.225a.141.141,0,0,1,.149.15l-.03,3.7H517a.141.141,0,0,1,.149.149v.927a.141.141,0,0,1-.149.149h-3.735v10.128c0,2.3.6,2.988,2.122,2.988A6.523,6.523,0,0,0,517,210.38a.136.136,0,0,1,.149.119Z" transform="translate(0 -31.064)" fill="#072c50"/><path d="M521.9,194.485a.141.141,0,0,1-.15-.149v-1.822a.142.142,0,0,1,.15-.15h1.224a.142.142,0,0,1,.15.15v1.822a.141.141,0,0,1-.15.149Zm0,17.119a.141.141,0,0,1-.15-.149l.03-7.977-.03-7.111a.141.141,0,0,1,.15-.149h1.224a.141.141,0,0,1,.15.149l-.03,7.081.03,8.007a.141.141,0,0,1-.15.149Z" transform="translate(0 -31.064)" fill="#072c50"/><path d="M534.979,211.934c-4.452,0-6.872-3.2-6.872-8.008s2.42-8.036,6.872-8.036c4.421,0,6.872,3.226,6.872,8.036C541.851,208.706,539.4,211.934,534.979,211.934Zm0-1.166c3.585,0,5.348-2.659,5.348-6.842,0-4.153-1.793-6.871-5.348-6.871-3.585.029-5.377,2.688-5.377,6.871S531.424,210.768,534.979,210.768Z" transform="translate(0 -31.064)" fill="#072c50"/><path d="M546.656,211.6a.14.14,0,0,1-.149-.149l.059-6.6-.029-8.486a.141.141,0,0,1,.15-.149h1.165a.141.141,0,0,1,.149.149l-.06,3.018a5.92,5.92,0,0,1,5.258-3.526c3.077,0,5.02,2,5.02,6.215V205l.029,6.453a.141.141,0,0,1-.149.149h-1.225a.14.14,0,0,1-.149-.149l.03-6.453v-2.778c0-3.7-1.554-5.11-3.884-5.11-2.3,0-3.854,1.733-4.87,4.541V205l.029,6.453a.14.14,0,0,1-.149.149Z" transform="translate(0 -31.064)" fill="#072c50"/><path d="M569.149,211.9c-3.913,0-6.333-1.762-6.393-5.587a.141.141,0,0,1,.149-.149h1.136a.141.141,0,0,1,.149.149c.06,3.078,1.792,4.482,4.99,4.482,2.629,0,4.511-1.195,4.511-3.317,0-4.989-10.577-1.374-10.577-7.349,0-2.778,2.331-4.213,5.617-4.213,3.257,0,5.856,1.435,5.946,4.691a.141.141,0,0,1-.15.149h-1.075a.141.141,0,0,1-.149-.149c-.119-2.54-2.092-3.586-4.572-3.586-2.569,0-4.212,1.016-4.212,3.048,0,4.541,10.606.926,10.606,7.32C575.125,210.23,572.525,211.9,569.149,211.9Z" transform="translate(0 -31.064)" fill="#072c50"/><rect x="1.5" y="148.675" width="758" height="825" rx="147.5" stroke-width="3" stroke="#393939" stroke-linecap="round" stroke-linejoin="round" fill="none"/><path d="M455.129,835.226a.2.2,0,0,1-.182-.129l-2.133-5.955h-7.877L442.83,835.1a.194.194,0,0,1-.182.129h-1.091c-.078,0-.1-.052-.078-.129l6.578-17.942a.193.193,0,0,1,.181-.13h1.4a.193.193,0,0,1,.181.13l6.553,17.942c.025.077,0,.129-.078.129Zm-2.7-7.228-3.536-9.907L445.353,828Z" transform="translate(0 -31.064)" fill="#393939"/><path d="M467.375,835.486c-3.406,0-5.512-1.534-5.564-4.862a.123.123,0,0,1,.13-.13h.988a.123.123,0,0,1,.13.13c.052,2.678,1.56,3.9,4.341,3.9,2.289,0,3.927-1.041,3.927-2.886,0-4.342-9.2-1.2-9.2-6.4,0-2.418,2.027-3.666,4.888-3.666,2.835,0,5.1,1.248,5.175,4.082a.124.124,0,0,1-.131.131h-.936a.124.124,0,0,1-.131-.131c-.1-2.209-1.819-3.119-3.977-3.119-2.236,0-3.666.884-3.666,2.651,0,3.953,9.23.806,9.23,6.371C472.575,834.03,470.313,835.486,467.375,835.486Z" transform="translate(0 -31.064)" fill="#393939"/><path d="M484.326,835.486c-3.406,0-5.512-1.534-5.564-4.862a.123.123,0,0,1,.131-.13h.988a.122.122,0,0,1,.129.13c.053,2.678,1.56,3.9,4.343,3.9,2.288,0,3.926-1.041,3.926-2.886,0-4.342-9.2-1.2-9.2-6.4,0-2.418,2.029-3.666,4.889-3.666,2.834,0,5.1,1.248,5.174,4.082a.124.124,0,0,1-.13.131h-.937a.123.123,0,0,1-.129-.131c-.1-2.209-1.82-3.119-3.978-3.119-2.236,0-3.666.884-3.666,2.651,0,3.953,9.23.806,9.23,6.371C489.527,834.03,487.265,835.486,484.326,835.486Z" transform="translate(0 -31.064)" fill="#393939"/><path d="M507.154,830.494c.078,0,.131.052.105.13-.468,2.99-2.288,4.889-5.513,4.889-3.951,0-6.031-2.835-6.031-6.944s2.287-7.019,5.876-7.019c3.561,0,5.694,2.5,5.746,6.812a.122.122,0,0,1-.13.129l-10.219.027c0,3.77,1.613,5.98,4.785,5.98,2.444,0,3.795-1.456,4.211-3.874a.167.167,0,0,1,.157-.13Zm-5.563-7.931c-2.653,0-4.238,1.9-4.55,4.889h8.918C505.934,824.747,504.451,822.563,501.591,822.563Z" transform="translate(0 -31.064)" fill="#393939"/><path d="M519.4,835.044a.146.146,0,0,1-.13.156,6.546,6.546,0,0,1-1.482.235c-1.741,0-3.042-.885-3.042-3.719V822.9H513.16a.123.123,0,0,1-.131-.13v-.8a.124.124,0,0,1,.131-.131h1.586l-.025-3.224a.122.122,0,0,1,.129-.13h1.066a.124.124,0,0,1,.131.13l-.027,3.224h3.25a.124.124,0,0,1,.13.131v.8a.122.122,0,0,1-.13.13h-3.25v8.815c0,2,.52,2.6,1.846,2.6a5.607,5.607,0,0,0,1.4-.155.119.119,0,0,1,.13.105Z" transform="translate(0 -31.064)" fill="#393939"/><path d="M541.629,835.46c-4.576,0-6.941-2.418-7.123-6.448a.122.122,0,0,1,.129-.13h1.119a.122.122,0,0,1,.129.13c.209,3.328,1.795,5.33,5.8,5.33,2.912,0,5.226-1.2,5.226-4.187,0-5.746-12.012-1.741-12.012-8.5,0-3.2,2.6-4.887,6.266-4.887,4.082,0,6.447,1.872,6.682,5.563a.124.124,0,0,1-.13.131H546.6a.124.124,0,0,1-.13-.131c-.183-2.99-1.872-4.42-5.33-4.42-3.12,0-4.992,1.17-4.992,3.666,0,5.357,12.012,1.457,12.012,8.477C548.156,833.692,545.373,835.46,541.629,835.46Z" transform="translate(0 -31.064)" fill="#393939"/><path d="M559.076,835.538c-2.679,0-4.369-1.742-4.369-5.408v-2.548l-.025-5.616a.123.123,0,0,1,.13-.131h1.065a.124.124,0,0,1,.131.131l-.027,5.616V830c0,3.224,1.353,4.446,3.38,4.446,2,0,3.355-1.508,4.239-3.952v-2.912l-.026-5.616a.123.123,0,0,1,.129-.131h1.067a.124.124,0,0,1,.13.131l-.052,5.746.025,7.385a.122.122,0,0,1-.129.129H563.73a.123.123,0,0,1-.13-.129l.052-2.627A5.152,5.152,0,0,1,559.076,835.538Z" transform="translate(0 -31.064)" fill="#393939"/><path d="M572.152,835.226a.122.122,0,0,1-.129-.129l.051-6.787-.051-6.344a.123.123,0,0,1,.129-.131h1.067a.124.124,0,0,1,.131.131l-.106,2.443a4.964,4.964,0,0,1,4.395-2.729,3.717,3.717,0,0,1,.988.1.2.2,0,0,1,.131.182v.857a.12.12,0,0,1-.131.105,3.307,3.307,0,0,0-.962-.13c-1.976,0-4.03,1.351-4.368,4.316l.053,7.983a.123.123,0,0,1-.131.129Z" transform="translate(0 -31.064)" fill="#393939"/><path d="M591.367,835.122a.193.193,0,0,1-.181.13h-1.327a.193.193,0,0,1-.181-.13l-5.019-13.156c-.026-.078,0-.131.078-.131h1.17a.2.2,0,0,1,.183.131l4.445,12.064,4.369-12.064a.2.2,0,0,1,.182-.131h1.066c.077,0,.1.053.077.131Z" transform="translate(0 -31.064)" fill="#393939"/><path d="M612.844,830.494c.078,0,.131.052.1.13-.467,2.99-2.287,4.889-5.511,4.889-3.953,0-6.033-2.835-6.033-6.944s2.288-7.019,5.876-7.019c3.563,0,5.7,2.5,5.746,6.812a.121.121,0,0,1-.129.129l-10.218.027c0,3.77,1.611,5.98,4.783,5.98,2.445,0,3.8-1.456,4.213-3.874a.164.164,0,0,1,.156-.13Zm-5.565-7.931c-2.652,0-4.238,1.9-4.55,4.889h8.919C611.621,824.747,610.14,822.563,607.279,822.563Z" transform="translate(0 -31.064)" fill="#393939"/><path d="M623.113,839.517a.192.192,0,0,1-.181.129h-.963a.091.091,0,0,1-.078-.129l1.508-4.291-5.225-13.26c-.028-.078,0-.131.078-.131h1.2a.2.2,0,0,1,.182.131l4.447,11.44,3.795-11.44a.2.2,0,0,1,.183-.131h1.118c.078,0,.1.053.078.131Z" transform="translate(0 -31.064)" fill="#393939"/><path d="M635.7,820.327a.123.123,0,0,1-.13-.13v-1.586a.123.123,0,0,1,.13-.13h1.067a.123.123,0,0,1,.13.13V820.2a.123.123,0,0,1-.13.13Zm0,14.9a.123.123,0,0,1-.13-.129l.027-6.944-.027-6.187a.124.124,0,0,1,.13-.131h1.067a.124.124,0,0,1,.13.131l-.027,6.162.027,6.969a.123.123,0,0,1-.13.129Z" transform="translate(0 -31.064)" fill="#393939"/><path d="M644.277,835.226a.123.123,0,0,1-.131-.129l.053-5.747-.026-7.384a.124.124,0,0,1,.13-.131h1.013a.124.124,0,0,1,.131.131l-.052,2.626a5.149,5.149,0,0,1,4.576-3.069c2.677,0,4.369,1.743,4.369,5.409v2.547l.025,5.618a.123.123,0,0,1-.13.129H653.17a.123.123,0,0,1-.131-.129l.025-5.618v-2.417c0-3.224-1.351-4.446-3.378-4.446-2,0-3.355,1.508-4.239,3.951v2.912l.026,5.618a.123.123,0,0,1-.13.129Z" transform="translate(0 -31.064)" fill="#393939"/><path d="M666.455,840.244c-2.782.027-5.07-1.2-5.305-4.108a.124.124,0,0,1,.131-.13H662.3a.123.123,0,0,1,.13.13c.261,2.184,1.975,3.121,4.055,3.121,2.471,0,4.239-1.639,4.239-5.383v-1.43a4.65,4.65,0,0,1-4.367,2.73c-3.589,0-5.461-2.782-5.461-6.63s1.872-6.942,5.461-6.942a4.556,4.556,0,0,1,4.393,2.834l-.052-2.47a.124.124,0,0,1,.13-.131h1.04a.124.124,0,0,1,.13.131l-.052,3.978v7.93C671.967,838.086,669.835,840.244,666.455,840.244Zm.182-6.057c2.418-.027,4.108-1.769,4.134-5.54.026-3.8-1.56-6.084-4.264-6.084-2.886,0-4.316,2.5-4.316,5.955C662.191,832.054,663.621,834.212,666.637,834.187Z" transform="translate(0 -31.064)" fill="#393939"/><path d="M440.813,537.831a.124.124,0,0,1-.131-.13l.052-9.464-.052-8.476a.124.124,0,0,1,.131-.131h6.318c3.639,0,6.057,1.586,6.057,4.291,0,2.34-1.17,3.588-3.51,4.134,2.886.7,4.031,2.262,4.082,4.471,0,3.8-2.912,5.305-6.656,5.305Zm1.169-10.27h5.1c2.912,0,4.733-.832,4.733-3.355,0-2.34-1.846-3.484-4.733-3.484h-5.045Zm.051,9.152h5.045c3.172,0,5.33-1.144,5.33-4.16,0-2.782-2.548-3.874-5.33-3.874h-5.1Z" transform="translate(0 -31.064)" fill="#072c50"/><path d="M464.992,538.144c-2.678,0-4.368-1.743-4.368-5.409v-2.548l-.026-5.616a.124.124,0,0,1,.131-.131h1.065a.124.124,0,0,1,.13.131l-.026,5.616V532.6c0,3.225,1.352,4.448,3.379,4.448,2,0,3.356-1.509,4.239-3.953v-2.912l-.026-5.616a.124.124,0,0,1,.13-.131h1.066a.124.124,0,0,1,.13.131l-.052,5.746.027,7.384a.124.124,0,0,1-.131.13h-1.014a.123.123,0,0,1-.13-.13l.052-2.626A5.151,5.151,0,0,1,464.992,538.144Z" transform="translate(0 -31.064)" fill="#072c50"/><path d="M478.2,522.933a.124.124,0,0,1-.13-.131v-1.586a.122.122,0,0,1,.13-.129h1.067a.122.122,0,0,1,.13.129V522.8a.124.124,0,0,1-.13.131Zm0,14.9a.123.123,0,0,1-.13-.13l.027-6.942-.027-6.188a.124.124,0,0,1,.13-.131h1.067a.124.124,0,0,1,.13.131l-.027,6.162.027,6.968a.123.123,0,0,1-.13.13Z" transform="translate(0 -31.064)" fill="#072c50"/><path d="M486.909,537.831a.124.124,0,0,1-.13-.13l.053-9.152-.053-8.788a.124.124,0,0,1,.13-.131h1.04a.124.124,0,0,1,.131.131l-.053,8.736.053,9.2a.124.124,0,0,1-.131.13Z" transform="translate(0 -31.064)" fill="#072c50"/><path d="M504.823,537.831a.123.123,0,0,1-.13-.13l.052-2.548a4.722,4.722,0,0,1-4.5,2.938c-3.484,0-5.356-3.042-5.356-6.942,0-3.848,1.9-6.994,5.356-6.994a4.642,4.642,0,0,1,4.446,2.807l-.026-7.2a.124.124,0,0,1,.13-.131h1.066a.124.124,0,0,1,.13.131l-.052,7.176.052,10.764a.123.123,0,0,1-.13.13Zm-4.343-.754c2.6,0,4.291-1.95,4.317-5.8.026-3.822-1.561-6.135-4.264-6.135-3.015,0-4.342,2.626-4.342,5.876C496.191,534.373,497.518,537.077,500.48,537.077Z" transform="translate(0 -31.064)" fill="#072c50"/><path d="M513.377,522.933a.124.124,0,0,1-.13-.131v-1.586a.122.122,0,0,1,.13-.129h1.066a.122.122,0,0,1,.13.129V522.8a.124.124,0,0,1-.13.131Zm0,14.9a.123.123,0,0,1-.13-.13l.026-6.942-.026-6.188a.124.124,0,0,1,.13-.131h1.066a.124.124,0,0,1,.13.131l-.026,6.162.026,6.968a.123.123,0,0,1-.13.13Z" transform="translate(0 -31.064)" fill="#072c50"/><path d="M521.957,537.831a.124.124,0,0,1-.131-.13l.053-5.747-.026-7.383a.123.123,0,0,1,.129-.131H523a.124.124,0,0,1,.131.131l-.053,2.625a5.152,5.152,0,0,1,4.576-3.068c2.678,0,4.37,1.742,4.37,5.408v2.549l.025,5.616a.124.124,0,0,1-.13.13H530.85a.124.124,0,0,1-.131-.13l.025-5.616v-2.418c0-3.225-1.351-4.446-3.379-4.446-2,0-3.354,1.508-4.238,3.952v2.912l.025,5.616a.123.123,0,0,1-.13.13Z" transform="translate(0 -31.064)" fill="#072c50"/><path d="M544.135,542.849c-2.782.027-5.071-1.2-5.3-4.108a.124.124,0,0,1,.131-.131h1.014a.123.123,0,0,1,.129.131c.261,2.184,1.976,3.12,4.056,3.12,2.471,0,4.238-1.637,4.238-5.382v-1.43a4.647,4.647,0,0,1-4.367,2.729c-3.589,0-5.461-2.781-5.461-6.629s1.872-6.943,5.461-6.943a4.557,4.557,0,0,1,4.394,2.834l-.052-2.469a.124.124,0,0,1,.13-.131h1.04a.124.124,0,0,1,.13.131l-.052,3.978v7.93C549.646,540.69,547.515,542.849,544.135,542.849Zm.181-6.058c2.418-.026,4.109-1.769,4.135-5.538.026-3.8-1.56-6.084-4.264-6.084-2.886,0-4.316,2.5-4.316,5.953C539.871,534.659,541.3,536.817,544.316,536.791Z" transform="translate(0 -31.064)" fill="#072c50"/><path d="M571.59,530.343H567.3l.051,7.358a.123.123,0,0,1-.129.13h-1.092a.124.124,0,0,1-.131-.13l.053-9.386L566,519.761a.124.124,0,0,1,.131-.131h5.381c3.718,0,6.163,1.795,6.163,5.3C577.675,528.679,575.152,530.343,571.59,530.343Zm-4.289-2.028v.936h4.342c2.912,0,4.679-1.17,4.679-4.316,0-2.86-1.742-4.186-4.783-4.186h-4.187Z" transform="translate(0 -31.064)" fill="#072c50"/><path d="M589.9,525.194c-2.028,0-3.432,1.561-4.317,3.979l.053,8.528a.124.124,0,0,1-.131.13h-1.039a.124.124,0,0,1-.131-.13l.053-9.179-.053-8.761a.124.124,0,0,1,.131-.131H585.5a.124.124,0,0,1,.131.131l-.053,7.41a5.092,5.092,0,0,1,4.551-3.043c2.73,0,4.394,1.717,4.394,5.513v2.547l.026,5.513a.124.124,0,0,1-.13.13h-1.065a.124.124,0,0,1-.131-.13l.025-5.486v-2.548C593.248,526.417,591.9,525.194,589.9,525.194Z" transform="translate(0 -31.064)" fill="#072c50"/><path d="M605.1,542.121a.2.2,0,0,1-.182.13h-.962a.09.09,0,0,1-.077-.13l1.508-4.29-5.227-13.26c-.025-.078,0-.131.078-.131h1.2a.2.2,0,0,1,.182.131l4.446,11.44,3.8-11.44a.2.2,0,0,1,.183-.131h1.117c.078,0,.1.053.078.131Z" transform="translate(0 -31.064)" fill="#072c50"/><path d="M622.16,538.091c-3.406,0-5.512-1.533-5.564-4.862a.123.123,0,0,1,.131-.13h.988a.122.122,0,0,1,.129.13c.052,2.678,1.56,3.9,4.343,3.9,2.288,0,3.926-1.04,3.926-2.886,0-4.342-9.205-1.2-9.205-6.4,0-2.418,2.029-3.666,4.889-3.666,2.834,0,5.1,1.248,5.174,4.082a.123.123,0,0,1-.13.13H625.9a.122.122,0,0,1-.129-.13c-.105-2.21-1.82-3.12-3.978-3.12-2.236,0-3.666.883-3.666,2.651,0,3.953,9.23.807,9.23,6.371C627.361,536.636,625.1,538.091,622.16,538.091Z" transform="translate(0 -31.064)" fill="#072c50"/><path d="M634.275,522.933a.123.123,0,0,1-.129-.131v-1.586a.121.121,0,0,1,.129-.129h1.067a.123.123,0,0,1,.131.129V522.8a.124.124,0,0,1-.131.131Zm0,14.9a.123.123,0,0,1-.129-.13l.026-6.942-.026-6.188a.123.123,0,0,1,.129-.131h1.067a.124.124,0,0,1,.131.131l-.028,6.162.028,6.968a.124.124,0,0,1-.131.13Z" transform="translate(0 -31.064)" fill="#072c50"/><path d="M648.107,538.117c-3.821,0-5.849-2.757-5.849-6.942s2.028-7.02,5.9-7.02c3.225,0,5.149,1.9,5.408,4.705a.139.139,0,0,1-.13.131h-.961a.166.166,0,0,1-.157-.131,3.865,3.865,0,0,0-4.16-3.666c-3.12,0-4.6,2.34-4.6,5.981s1.455,5.9,4.576,5.928c2.678,0,4.133-1.612,4.367-4.082a.122.122,0,0,1,.131-.129h.961a.122.122,0,0,1,.131.129A5.226,5.226,0,0,1,648.107,538.117Z" transform="translate(0 -31.064)" fill="#072c50"/><path d="M665.346,538.091c-3.407,0-5.512-1.533-5.565-4.862a.124.124,0,0,1,.131-.13h.987a.122.122,0,0,1,.13.13c.053,2.678,1.561,3.9,4.342,3.9,2.289,0,3.927-1.04,3.927-2.886,0-4.342-9.2-1.2-9.2-6.4,0-2.418,2.027-3.666,4.887-3.666,2.835,0,5.1,1.248,5.175,4.082a.123.123,0,0,1-.131.13h-.935a.124.124,0,0,1-.131-.13c-.1-2.21-1.819-3.12-3.978-3.12-2.235,0-3.666.883-3.666,2.651,0,3.953,9.231.807,9.231,6.371C670.546,536.636,668.283,538.091,665.346,538.091Z" transform="translate(0 -31.064)" fill="#072c50"/><path d="M103.734,835.533c-4.576,0-6.941-2.418-7.123-6.448a.122.122,0,0,1,.129-.13h1.119a.122.122,0,0,1,.129.13c.209,3.328,1.8,5.33,5.8,5.33,2.912,0,5.227-1.195,5.227-4.186,0-5.746-12.013-1.742-12.013-8.5,0-3.2,2.6-4.888,6.267-4.888,4.082,0,6.447,1.872,6.681,5.564a.122.122,0,0,1-.13.129H108.7a.122.122,0,0,1-.13-.129c-.182-2.99-1.872-4.421-5.33-4.421-3.12,0-4.992,1.171-4.992,3.667,0,5.356,12.013,1.455,12.013,8.476C110.262,833.765,107.479,835.533,103.734,835.533Z" transform="translate(0 -31.064)" fill="#393939"/><path d="M125.861,835.611c-2.678,0-4.369-1.742-4.369-5.408v-2.548l-.025-5.616a.123.123,0,0,1,.13-.13h1.065a.124.124,0,0,1,.131.13l-.026,5.616v2.418c0,3.225,1.352,4.447,3.379,4.447,2,0,3.355-1.509,4.239-3.953v-2.912l-.026-5.616a.122.122,0,0,1,.129-.13h1.067a.124.124,0,0,1,.131.13l-.053,5.746.025,7.384a.123.123,0,0,1-.129.131h-1.013a.124.124,0,0,1-.131-.131l.053-2.626A5.152,5.152,0,0,1,125.861,835.611Z" transform="translate(0 -31.064)" fill="#393939"/><path d="M148.584,835.56c-3.406,0-5.512-1.535-5.564-4.863a.123.123,0,0,1,.13-.13h.989a.122.122,0,0,1,.129.13c.052,2.678,1.56,3.9,4.342,3.9,2.288,0,3.927-1.039,3.927-2.886,0-4.342-9.205-1.2-9.205-6.4,0-2.418,2.028-3.666,4.889-3.666,2.834,0,5.095,1.248,5.174,4.082a.122.122,0,0,1-.13.129h-.937a.121.121,0,0,1-.129-.129c-.105-2.21-1.82-3.121-3.978-3.121-2.237,0-3.666.885-3.666,2.653,0,3.952,9.23.806,9.23,6.371C153.785,834.1,151.522,835.56,148.584,835.56Z" transform="translate(0 -31.064)" fill="#393939"/><path d="M170.529,835.117a.146.146,0,0,1-.131.156,6.491,6.491,0,0,1-1.482.234c-1.742,0-3.041-.884-3.041-3.718v-8.814h-1.586a.124.124,0,0,1-.131-.13v-.806a.124.124,0,0,1,.131-.13h1.586l-.026-3.224a.122.122,0,0,1,.13-.13h1.066a.122.122,0,0,1,.129.13l-.026,3.224h3.25a.123.123,0,0,1,.131.13v.806a.123.123,0,0,1-.131.13h-3.25v8.814c0,2,.52,2.6,1.846,2.6a5.642,5.642,0,0,0,1.4-.157.119.119,0,0,1,.131.1Z" transform="translate(0 -31.064)" fill="#393939"/><path d="M190.418,835.3a.123.123,0,0,1-.129-.131l.051-2.548a4.739,4.739,0,0,1-4.5,2.912c-3.485,0-5.356-3.016-5.356-6.916,0-3.848,1.9-6.968,5.356-6.968a4.639,4.639,0,0,1,4.5,2.913l-.051-2.523a.122.122,0,0,1,.129-.13h1.041a.122.122,0,0,1,.129.13l-.051,6.317.051,6.813a.123.123,0,0,1-.129.131Zm-4.342-.78c2.6,0,4.29-1.951,4.317-5.773s-1.561-6.084-4.264-6.084c-2.99,0-4.343,2.574-4.343,5.824C181.786,831.841,183.111,834.52,186.076,834.52Z" transform="translate(0 -31.064)" fill="#393939"/><path d="M203.652,820.4a.124.124,0,0,1-.131-.13v-1.586a.123.123,0,0,1,.131-.13h1.067a.122.122,0,0,1,.129.13v1.586a.123.123,0,0,1-.129.13Zm0,14.9a.124.124,0,0,1-.131-.131l.027-6.941-.027-6.189a.124.124,0,0,1,.131-.13h1.067a.123.123,0,0,1,.129.13l-.026,6.162.026,6.968a.123.123,0,0,1-.129.131Z" transform="translate(0 -31.064)" fill="#393939"/><path d="M216.912,835.3a.124.124,0,0,1-.131-.131l.053-5.746-.026-7.384a.122.122,0,0,1,.13-.13h1.013a.124.124,0,0,1,.131.13l-.053,2.626a5.152,5.152,0,0,1,4.576-3.068c2.678,0,4.37,1.742,4.37,5.408v2.549l.025,5.615a.124.124,0,0,1-.13.131h-1.065a.124.124,0,0,1-.131-.131l.025-5.615v-2.419c0-3.224-1.351-4.447-3.379-4.447-2,0-3.354,1.508-4.238,3.954v2.912l.025,5.615a.123.123,0,0,1-.129.131Z" transform="translate(0 -31.064)" fill="#393939"/><path d="M248.138,835.3a.124.124,0,0,1-.13-.131l.052-2.548a4.741,4.741,0,0,1-4.5,2.912c-3.485,0-5.357-3.016-5.357-6.916,0-3.848,1.9-6.968,5.357-6.968a4.64,4.64,0,0,1,4.5,2.913l-.052-2.523a.123.123,0,0,1,.13-.13h1.04a.123.123,0,0,1,.13.13l-.052,6.317.052,6.813a.124.124,0,0,1-.13.131Zm-4.343-.78c2.6,0,4.291-1.951,4.316-5.773s-1.56-6.084-4.263-6.084c-2.991,0-4.342,2.574-4.342,5.824C239.506,831.841,240.832,834.52,243.8,834.52Z" transform="translate(0 -31.064)" fill="#393939"/><path d="M266.857,835.56a4.641,4.641,0,0,1-4.5-2.913l.053,2.5a.123.123,0,0,1-.131.129h-1.039a.123.123,0,0,1-.131-.129l.053-10.557-.053-7.358a.123.123,0,0,1,.131-.13h1.066a.122.122,0,0,1,.13.13l-.026,7.228a4.733,4.733,0,0,1,4.445-2.808c3.485,0,5.358,3.016,5.358,6.916C272.215,832.413,270.316,835.56,266.857,835.56Zm-.285-1.014c2.991,0,4.317-2.574,4.317-5.851,0-3.354-1.3-6.032-4.291-6.032-2.575,0-4.264,1.949-4.29,5.772C262.281,832.283,263.867,834.546,266.572,834.546Z" transform="translate(0 -31.064)" fill="#393939"/><path d="M283.81,835.3a.124.124,0,0,1-.13-.131l.052-9.152-.052-8.788a.122.122,0,0,1,.13-.13h1.04a.122.122,0,0,1,.13.13l-.052,8.736.052,9.2a.124.124,0,0,1-.13.131Z" transform="translate(0 -31.064)" fill="#393939"/><path d="M307.912,830.567c.078,0,.129.052.1.13-.468,2.991-2.288,4.888-5.512,4.888-3.953,0-6.033-2.834-6.033-6.941s2.289-7.021,5.877-7.021c3.562,0,5.693,2.5,5.746,6.812a.123.123,0,0,1-.13.13l-10.218.026c0,3.77,1.611,5.98,4.783,5.98,2.445,0,3.8-1.456,4.213-3.874a.165.165,0,0,1,.156-.13Zm-5.564-7.93c-2.653,0-4.239,1.9-4.551,4.887h8.919C306.689,824.821,305.207,822.637,302.348,822.637Z" transform="translate(0 -31.064)" fill="#393939"/><path d="M95.793,866.786c-5.123,0-8.112-3.354-8.112-9.491,0-5.72,3.067-9.282,8.137-9.282,3.459,0,6.5,1.716,7.2,6.37.026.078-.026.13-.1.13h-1.092a.165.165,0,0,1-.156-.13c-.571-3.744-2.964-5.226-5.9-5.226-4.239,0-6.684,3.328-6.684,8.164,0,5.617,2.549,8.321,6.684,8.321,3.353,0,5.8-1.924,6.031-5.617a.123.123,0,0,1,.131-.129h1.117a.123.123,0,0,1,.131.129C102.762,864.445,99.875,866.786,95.793,866.786Z" transform="translate(0 -31.064)" fill="#393939"/><path d="M120.232,866.786c-3.874,0-5.98-2.783-5.98-6.969s2.106-6.994,5.98-6.994c3.848,0,5.981,2.808,5.981,6.994C126.213,863.978,124.08,866.786,120.232,866.786Zm0-1.015c3.121,0,4.655-2.313,4.655-5.954,0-3.614-1.561-5.98-4.655-5.98-3.12.026-4.679,2.34-4.679,5.98S117.139,865.771,120.232,865.771Z" transform="translate(0 -31.064)" fill="#393939"/><path d="M138.848,860.909l.025,5.461a.122.122,0,0,1-.129.129h-1.066a.123.123,0,0,1-.13-.129l.052-5.461-.026-7.67a.123.123,0,0,1,.129-.131h1.015a.124.124,0,0,1,.13.131l-.052,2.626a4.887,4.887,0,0,1,4.343-3.068,3.7,3.7,0,0,1,3.873,3.068,4.838,4.838,0,0,1,4.316-3.068c2.574,0,4.135,1.69,4.135,5.408v2.7l.025,5.461a.122.122,0,0,1-.13.129h-1.065a.123.123,0,0,1-.131-.129l.026-5.461v-2.574c0-3.25-1.248-4.445-3.145-4.445-1.742,0-2.939,1.325-3.8,3.431.025.286.025.573.025.884v2.7l.028,5.461a.123.123,0,0,1-.131.129H146.1a.121.121,0,0,1-.129-.129l.025-5.461v-2.574c0-3.25-1.248-4.445-3.146-4.445s-3.12,1.533-4,3.951Z" transform="translate(0 -31.064)" fill="#393939"/><path d="M168.462,860.909l.026,5.461a.123.123,0,0,1-.131.129h-1.065a.123.123,0,0,1-.13-.129l.052-5.461-.026-7.67a.124.124,0,0,1,.13-.131h1.014a.124.124,0,0,1,.13.131l-.052,2.626a4.887,4.887,0,0,1,4.342-3.068,3.7,3.7,0,0,1,3.875,3.068,4.837,4.837,0,0,1,4.315-3.068c2.575,0,4.134,1.69,4.134,5.408v2.7l.027,5.461a.123.123,0,0,1-.13.129h-1.067a.122.122,0,0,1-.129-.129l.026-5.461v-2.574c0-3.25-1.248-4.445-3.147-4.445-1.742,0-2.937,1.325-3.8,3.431.027.286.027.573.027.884v2.7l.025,5.461a.123.123,0,0,1-.13.129h-1.065a.123.123,0,0,1-.131-.129l.026-5.461v-2.574c0-3.25-1.248-4.445-3.145-4.445s-3.121,1.533-4.005,3.951Z" transform="translate(0 -31.064)" fill="#393939"/><path d="M201.04,866.812c-2.679,0-4.368-1.743-4.368-5.409v-2.548l-.026-5.616a.123.123,0,0,1,.129-.131h1.067a.124.124,0,0,1,.13.131l-.027,5.616v2.418c0,3.224,1.353,4.447,3.381,4.447,2,0,3.354-1.508,4.238-3.952v-2.913l-.026-5.616a.124.124,0,0,1,.13-.131h1.066a.123.123,0,0,1,.13.131l-.051,5.746.025,7.385a.123.123,0,0,1-.13.129h-1.015a.122.122,0,0,1-.129-.129l.052-2.627A5.154,5.154,0,0,1,201.04,866.812Z" transform="translate(0 -31.064)" fill="#393939"/><path d="M218.8,866.5a.122.122,0,0,1-.129-.129l.051-5.747-.026-7.384a.124.124,0,0,1,.13-.131h1.015a.123.123,0,0,1,.129.131l-.051,2.626a5.15,5.15,0,0,1,4.576-3.068c2.678,0,4.367,1.742,4.367,5.408v2.548l.027,5.617a.123.123,0,0,1-.13.129h-1.067a.122.122,0,0,1-.129-.129l.026-5.617v-2.418c0-3.224-1.352-4.445-3.381-4.445-2,0-3.353,1.507-4.238,3.951v2.912l.027,5.617a.123.123,0,0,1-.131.129Z" transform="translate(0 -31.064)" fill="#393939"/><path d="M240.818,851.6a.122.122,0,0,1-.129-.13v-1.586a.122.122,0,0,1,.129-.13h1.067a.124.124,0,0,1,.131.13v1.586a.124.124,0,0,1-.131.13Zm0,14.9a.122.122,0,0,1-.129-.129l.026-6.943-.026-6.188a.123.123,0,0,1,.129-.131h1.067a.124.124,0,0,1,.131.131l-.028,6.162.028,6.969a.123.123,0,0,1-.131.129Z" transform="translate(0 -31.064)" fill="#393939"/><path d="M259.669,866.317a.146.146,0,0,1-.13.157,6.6,6.6,0,0,1-1.482.234c-1.743,0-3.042-.885-3.042-3.719v-8.814h-1.586a.123.123,0,0,1-.13-.13v-.806a.124.124,0,0,1,.13-.131h1.586l-.027-3.223a.124.124,0,0,1,.131-.13h1.066a.122.122,0,0,1,.129.13l-.025,3.223h3.25a.124.124,0,0,1,.13.131v.806a.123.123,0,0,1-.13.13h-3.25v8.814c0,2,.52,2.6,1.846,2.6a5.654,5.654,0,0,0,1.4-.155.118.118,0,0,1,.13.1Z" transform="translate(0 -31.064)" fill="#393939"/><path d="M271.082,851.6a.122.122,0,0,1-.129-.13v-1.586a.122.122,0,0,1,.129-.13h1.066a.123.123,0,0,1,.131.13v1.586a.123.123,0,0,1-.131.13Zm0,14.9a.122.122,0,0,1-.129-.129l.026-6.943-.026-6.188a.123.123,0,0,1,.129-.131h1.066a.124.124,0,0,1,.131.131l-.027,6.162.027,6.969a.123.123,0,0,1-.131.129Z" transform="translate(0 -31.064)" fill="#393939"/><path d="M295.185,861.768c.078,0,.129.051.1.129-.469,2.991-2.289,4.889-5.513,4.889-3.952,0-6.032-2.835-6.032-6.943s2.288-7.02,5.877-7.02c3.562,0,5.693,2.5,5.746,6.813a.123.123,0,0,1-.131.129l-10.218.026c0,3.771,1.613,5.98,4.785,5.98,2.443,0,3.8-1.456,4.212-3.874a.164.164,0,0,1,.155-.129Zm-5.564-7.931c-2.652,0-4.238,1.9-4.551,4.889h8.918C293.963,856.021,292.48,853.837,289.621,853.837Z" transform="translate(0 -31.064)" fill="#393939"/><path d="M311.746,866.76c-3.406,0-5.512-1.534-5.564-4.863a.122.122,0,0,1,.131-.129h.987a.122.122,0,0,1,.13.129c.052,2.678,1.56,3.9,4.341,3.9,2.29,0,3.927-1.041,3.927-2.887,0-4.342-9.2-1.195-9.2-6.4,0-2.418,2.027-3.666,4.888-3.666,2.835,0,5.1,1.248,5.175,4.082a.124.124,0,0,1-.131.131h-.936a.124.124,0,0,1-.131-.131c-.1-2.209-1.819-3.119-3.977-3.119-2.236,0-3.666.883-3.666,2.651,0,3.952,9.23.806,9.23,6.37C316.946,865.3,314.684,866.76,311.746,866.76Z" transform="translate(0 -31.064)" fill="#393939"/><path d="M91.369,546.221a.124.124,0,0,1-.131-.13l.053-9.517-.053-8.425a.123.123,0,0,1,.131-.128h10.27a.123.123,0,0,1,.131.128v.859a.124.124,0,0,1-.131.13H92.59l-.051,6.734h8.58a.124.124,0,0,1,.13.131v.857a.123.123,0,0,1-.13.13h-8.58l.051,8.113h9.258a.122.122,0,0,1,.129.129v.859a.123.123,0,0,1-.129.13Z" transform="translate(0 -31.064)" fill="#393939"/><path d="M106.162,546.221a.122.122,0,0,1-.129-.13l.051-5.746-.025-7.385a.123.123,0,0,1,.129-.13H107.2a.122.122,0,0,1,.129.13l-.051,2.627a5.15,5.15,0,0,1,4.576-3.068c2.678,0,4.368,1.742,4.368,5.408v2.548l.026,5.616a.123.123,0,0,1-.13.13h-1.066a.123.123,0,0,1-.13-.13l.026-5.616v-2.418c0-3.225-1.351-4.447-3.381-4.447-2,0-3.353,1.508-4.238,3.953v2.912l.027,5.616a.123.123,0,0,1-.13.13Z" transform="translate(0 -31.064)" fill="#393939"/><path d="M131.617,541.488c.078,0,.129.052.1.13-.468,2.99-2.288,4.889-5.512,4.889-3.953,0-6.033-2.834-6.033-6.943s2.289-7.02,5.877-7.02c3.562,0,5.693,2.5,5.746,6.812a.123.123,0,0,1-.13.13l-10.218.027c0,3.769,1.612,5.98,4.783,5.98,2.445,0,3.8-1.457,4.213-3.875a.165.165,0,0,1,.157-.13Zm-5.564-7.93c-2.653,0-4.239,1.9-4.551,4.888h8.919C130.4,535.742,128.912,533.558,126.053,533.558Z" transform="translate(0 -31.064)" fill="#393939"/><path d="M135.984,546.221a.123.123,0,0,1-.13-.13l.052-6.786-.052-6.345a.123.123,0,0,1,.13-.13h1.066a.123.123,0,0,1,.13.13l-.1,2.444a4.964,4.964,0,0,1,4.4-2.729,3.717,3.717,0,0,1,.987.1.2.2,0,0,1,.13.182v.858a.12.12,0,0,1-.13.105,3.3,3.3,0,0,0-.962-.131c-1.976,0-4.03,1.353-4.368,4.316l.052,7.983a.123.123,0,0,1-.13.13Z" transform="translate(0 -31.064)" fill="#393939"/><path d="M150.181,551.239c-2.783.026-5.071-1.2-5.3-4.108a.122.122,0,0,1,.129-.13h1.015a.123.123,0,0,1,.129.13c.26,2.184,1.977,3.12,4.057,3.12,2.47,0,4.238-1.639,4.238-5.383v-1.43a4.652,4.652,0,0,1-4.369,2.731c-3.588,0-5.46-2.782-5.46-6.631s1.872-6.941,5.46-6.941a4.554,4.554,0,0,1,4.4,2.834l-.053-2.471a.124.124,0,0,1,.131-.13h1.04a.123.123,0,0,1,.13.13l-.053,3.978v7.93C155.693,549.081,153.561,551.239,150.181,551.239Zm.182-6.058c2.418-.026,4.108-1.768,4.133-5.538.027-3.8-1.559-6.085-4.264-6.085-2.886,0-4.316,2.5-4.316,5.955C145.916,543.049,147.346,545.206,150.363,545.181Z" transform="translate(0 -31.064)" fill="#393939"/><path d="M164.246,550.511a.194.194,0,0,1-.182.13H163.1a.091.091,0,0,1-.078-.13l1.508-4.29-5.226-13.261c-.026-.078,0-.13.078-.13h1.2a.2.2,0,0,1,.183.13l4.446,11.44,3.8-11.44a.2.2,0,0,1,.183-.13h1.117c.078,0,.1.052.078.13Z" transform="translate(0 -31.064)" fill="#393939"/><path d="M180.443,546.221a.122.122,0,0,1-.129-.13l.051-9.517-.051-8.425a.121.121,0,0,1,.129-.128h10.272a.122.122,0,0,1,.129.128v.859a.123.123,0,0,1-.129.13h-9.049l-.053,6.734h8.58a.124.124,0,0,1,.131.131v.857a.124.124,0,0,1-.131.13h-8.58l.053,8.113h9.256a.123.123,0,0,1,.131.129v.859a.124.124,0,0,1-.131.13Z" transform="translate(0 -31.064)" fill="#393939"/><path d="M195.238,546.221a.124.124,0,0,1-.131-.13l.053-6.786-.053-6.345a.124.124,0,0,1,.131-.13H196.3a.123.123,0,0,1,.13.13l-.1,2.444a4.964,4.964,0,0,1,4.395-2.729,3.717,3.717,0,0,1,.987.1.2.2,0,0,1,.13.182v.858a.12.12,0,0,1-.13.105,3.3,3.3,0,0,0-.962-.131c-1.977,0-4.03,1.353-4.368,4.316l.052,7.983a.123.123,0,0,1-.13.13Z" transform="translate(0 -31.064)" fill="#393939"/><path d="M209.435,551.239c-2.783.026-5.071-1.2-5.3-4.108a.122.122,0,0,1,.129-.13h1.014a.123.123,0,0,1,.13.13c.26,2.184,1.977,3.12,4.057,3.12,2.47,0,4.238-1.639,4.238-5.383v-1.43a4.652,4.652,0,0,1-4.369,2.731c-3.588,0-5.46-2.782-5.46-6.631s1.872-6.941,5.46-6.941a4.554,4.554,0,0,1,4.395,2.834l-.053-2.471a.124.124,0,0,1,.131-.13h1.04a.123.123,0,0,1,.13.13l-.053,3.978v7.93C214.947,549.081,212.814,551.239,209.435,551.239Zm.182-6.058c2.418-.026,4.108-1.768,4.133-5.538.027-3.8-1.56-6.085-4.264-6.085-2.886,0-4.316,2.5-4.316,5.955C205.17,543.049,206.6,545.206,209.617,545.181Z" transform="translate(0 -31.064)" fill="#393939"/><path d="M225.035,546.507c-3.875,0-5.98-2.782-5.98-6.969s2.1-6.994,5.98-6.994c3.848,0,5.981,2.809,5.981,6.994C231.016,543.7,228.883,546.507,225.035,546.507Zm0-1.014c3.119,0,4.654-2.314,4.654-5.955,0-3.613-1.56-5.98-4.654-5.98-3.121.026-4.681,2.34-4.681,5.98S221.94,545.493,225.035,545.493Z" transform="translate(0 -31.064)" fill="#393939"/><path d="M235.2,546.221a.122.122,0,0,1-.129-.13l.051-5.746-.025-7.385a.123.123,0,0,1,.13-.13h1.014a.122.122,0,0,1,.129.13l-.051,2.627a5.15,5.15,0,0,1,4.577-3.068c2.677,0,4.367,1.742,4.367,5.408v2.548l.026,5.616a.123.123,0,0,1-.13.13h-1.066a.123.123,0,0,1-.13-.13l.026-5.616v-2.418c0-3.225-1.351-4.447-3.381-4.447-2,0-3.353,1.508-4.238,3.953v2.912l.027,5.616a.123.123,0,0,1-.13.13Z" transform="translate(0 -31.064)" fill="#393939"/><path d="M255.22,546.507c-3.874,0-5.98-2.782-5.98-6.969s2.106-6.994,5.98-6.994c3.848,0,5.979,2.809,5.979,6.994C261.2,543.7,259.068,546.507,255.22,546.507Zm0-1.014c3.12,0,4.654-2.314,4.654-5.955,0-3.613-1.56-5.98-4.654-5.98-3.12.026-4.681,2.34-4.681,5.98S252.125,545.493,255.22,545.493Z" transform="translate(0 -31.064)" fill="#393939"/><path d="M266.555,540.63l.027,5.461a.124.124,0,0,1-.131.13h-1.066a.122.122,0,0,1-.129-.13l.051-5.461-.026-7.67a.123.123,0,0,1,.13-.13h1.015a.122.122,0,0,1,.129.13l-.051,2.627a4.884,4.884,0,0,1,4.342-3.068,3.7,3.7,0,0,1,3.874,3.068,4.834,4.834,0,0,1,4.315-3.068c2.574,0,4.135,1.689,4.135,5.408v2.7l.025,5.461a.122.122,0,0,1-.129.13H282a.124.124,0,0,1-.131-.13l.027-5.461v-2.573c0-3.251-1.248-4.447-3.146-4.447-1.742,0-2.938,1.327-3.8,3.432.026.286.026.572.026.885v2.7l.027,5.461a.124.124,0,0,1-.131.13H273.81a.122.122,0,0,1-.13-.13l.025-5.461v-2.573c0-3.251-1.248-4.447-3.145-4.447s-3.121,1.535-4,3.953Z" transform="translate(0 -31.064)" fill="#393939"/><path d="M287.85,531.322a.123.123,0,0,1-.131-.13v-1.586a.123.123,0,0,1,.131-.13h1.066a.123.123,0,0,1,.129.13v1.586a.122.122,0,0,1-.129.13Zm0,14.9a.123.123,0,0,1-.131-.13l.026-6.943-.026-6.188a.123.123,0,0,1,.131-.13h1.066a.123.123,0,0,1,.129.13l-.025,6.162.025,6.969a.123.123,0,0,1-.129.13Z" transform="translate(0 -31.064)" fill="#393939"/><path d="M299.08,546.507c-3.821,0-5.85-2.756-5.85-6.943s2.029-7.02,5.9-7.02c3.224,0,5.148,1.9,5.408,4.707a.14.14,0,0,1-.13.129h-.962a.164.164,0,0,1-.156-.129,3.865,3.865,0,0,0-4.16-3.667c-3.12,0-4.6,2.341-4.6,5.98s1.455,5.9,4.576,5.929c2.678,0,4.133-1.612,4.368-4.082a.124.124,0,0,1,.13-.131h.961a.124.124,0,0,1,.131.131A5.224,5.224,0,0,1,299.08,546.507Z" transform="translate(0 -31.064)" fill="#393939"/><path d="M313.719,546.48c-3.406,0-5.512-1.534-5.565-4.862a.124.124,0,0,1,.131-.13h.987a.122.122,0,0,1,.13.13c.053,2.679,1.561,3.9,4.342,3.9,2.289,0,3.927-1.04,3.927-2.886,0-4.343-9.2-1.2-9.2-6.4,0-2.418,2.027-3.666,4.887-3.666,2.835,0,5.1,1.248,5.175,4.082a.123.123,0,0,1-.131.13h-.935a.124.124,0,0,1-.131-.13c-.1-2.21-1.819-3.12-3.978-3.12-2.235,0-3.666.884-3.666,2.653,0,3.952,9.231.805,9.231,6.37C318.919,545.024,316.656,546.48,313.719,546.48Z" transform="translate(0 -31.064)" fill="#393939"/><path d="M147.6,690.015a13.729,13.729,0,1,0,13.729,13.729A13.745,13.745,0,0,0,147.6,690.015Zm0,22.912a9.183,9.183,0,1,1,9.168-9.183A9.19,9.19,0,0,1,147.6,712.927Z" transform="translate(0 -31.064)" fill="#ef4136" stroke="#ef4136" stroke-miterlimit="10"/><path d="M256.978,611.055a27.464,27.464,0,0,0-23.36,41.9l21.8,35.125a2.287,2.287,0,0,0,1.944,1.082h.018a2.289,2.289,0,0,0,1.945-1.113l21.241-35.465a27.465,27.465,0,0,0-23.585-41.527Zm19.658,39.177-19.312,32.244-19.817-31.935a22.9,22.9,0,1,1,39.129-.309Z" transform="translate(0 -31.064)" fill="#ef4136" stroke="#ef4136" stroke-miterlimit="10"/><path d="M256.978,624.784a13.73,13.73,0,1,0,13.729,13.73A13.745,13.745,0,0,0,256.978,624.784Zm0,22.913a9.184,9.184,0,1,1,9.168-9.183A9.19,9.19,0,0,1,256.978,647.7Z" transform="translate(0 -31.064)" fill="#ef4136" stroke="#ef4136" stroke-miterlimit="10"/><path d="M257,689.16q-.417,1.19-.848,2.352" transform="translate(0 -31.064)" fill="none" stroke="#ef4136" stroke-miterlimit="10" stroke-width="3"/><path d="M254.333,696.15c-26.3,63.653-84.218,61.287-101.427,59.05" transform="translate(0 -31.064)" fill="none" stroke="#ef4136" stroke-miterlimit="10" stroke-width="3" stroke-dasharray="4.98 4.98"/><path d="M150.448,754.843c-1.588-.257-2.455-.453-2.455-.453" transform="translate(0 -31.064)" fill="none" stroke="#ef4136" stroke-miterlimit="10" stroke-width="3"/><path d="M178.968,601.335a18.808,18.808,0,0,0-16,28.695L177.9,654.087a1.568,1.568,0,0,0,1.332.741h.012a1.566,1.566,0,0,0,1.332-.762l14.548-24.29a18.81,18.81,0,0,0-16.153-28.441Zm13.463,26.832L179.205,650.25l-13.572-21.871a15.682,15.682,0,1,1,26.8-.212Z" transform="translate(0 -31.064)" fill="#ef4136" stroke="#ef4136" stroke-miterlimit="10"/><path d="M178.968,610.738a9.4,9.4,0,1,0,9.4,9.4A9.413,9.413,0,0,0,178.968,610.738Zm0,15.693a6.29,6.29,0,1,1,6.279-6.29A6.295,6.295,0,0,1,178.968,626.431Z" transform="translate(0 -31.064)" fill="#ef4136" stroke="#ef4136" stroke-miterlimit="10"/><path d="M254.82,687.12s-.879.2-2.452.471" transform="translate(0 -31.064)" fill="none" stroke="#ef4136" stroke-miterlimit="10" stroke-width="3"/><path d="M247.361,688.321c-16.166,1.955-54.006,2.854-66.809-28.733" transform="translate(0 -31.064)" fill="none" stroke="#ef4136" stroke-miterlimit="10" stroke-width="3" stroke-dasharray="5.064 5.064"/><path d="M179.657,657.208q-.405-1.163-.766-2.38" transform="translate(0 -31.064)" fill="none" stroke="#ef4136" stroke-miterlimit="10" stroke-width="3"/><path d="M159.544,680.83c4.225-10.531,10.045-19.785,18.06-25.573" transform="translate(0 -31.064)" fill="none" stroke="#ef4136" stroke-miterlimit="10" stroke-width="3" stroke-dasharray="5"/><path d="M147.6,676.285a27.464,27.464,0,0,0-23.36,41.9l21.8,35.125a2.287,2.287,0,0,0,1.944,1.082H148a2.288,2.288,0,0,0,1.945-1.112l21.241-35.466A27.465,27.465,0,0,0,147.6,676.285Zm19.658,39.177-19.312,32.244-19.817-31.934a22.9,22.9,0,1,1,39.129-.31Z" transform="translate(0 -31.064)" fill="#ef4136" stroke="#ef4136" stroke-miterlimit="10"/><polyline points="554.309 437.31 627.867 389.78 627.867 310.563 554.309 347.342" fill="none" stroke="#ef4136" stroke-linecap="round" stroke-linejoin="round" stroke-width="6"/><polyline points="627.867 310.563 590.522 253.98 516.964 284.535" fill="none" stroke="#ef4136" stroke-linecap="round" stroke-linejoin="round" stroke-width="6"/><path d="M542.708,460.525V360.989M530.15,452.618v-110.7M517.127,444.245V320.523M505.964,437.734V328.9m-12.093,101.4V339.128m60.465,110.7L485.5,408.9M554.336,436.8l-68.838-40m68.838,27.907-68.838-40M554.336,408.9,485.5,373.547m68.838,21.395L485.5,357.733m68.838,22.326L485.5,346.57m11.163-7.442,44.652,18.605M530.15,341.918l-24.186-11.162" transform="translate(0 -31.064)" fill="none" stroke="#ef4136" stroke-linecap="round" stroke-linejoin="round"/><polygon points="485.278 394.306 485.278 315.09 516.964 284.535 554.309 345.645 554.309 436.178 485.278 394.306" fill="none" stroke="#ef4136" stroke-linecap="round" stroke-linejoin="round" stroke-width="6"/><path d="M466.107,743.675c11.941,31.361,164.8-17.974,173.231-14.437C729.829,677.456,417.246,643.152,466.107,743.675Z" transform="translate(0 -31.064)" fill="none" stroke="#ef4136" stroke-linecap="round" stroke-linejoin="round" stroke-width="3"/><path d="M469.93,720.6c10.754,28.246,148.427-16.188,156.021-13C707.453,660.958,425.922,630.062,469.93,720.6Z" transform="translate(0 -31.064)" fill="none" stroke="#ef4136" stroke-linecap="round" stroke-linejoin="round"/><path d="M476.637,697.627c9.515,24.99,131.32-14.322,138.039-11.5C686.784,644.86,437.7,617.525,476.637,697.627Z" transform="translate(0 -31.064)" fill="none" stroke="#ef4136" stroke-linecap="round" stroke-linejoin="round" stroke-width="3"/><path d="M484.255,662.514c7.488,19.668,103.353-11.272,108.641-9.054C649.647,620.985,453.612,599.472,484.255,662.514Z" transform="translate(0 -31.064)" fill="none" stroke="#ef4136" stroke-linecap="round" stroke-linejoin="round"/><path d="M493.429,627.454c5.4,14.19,74.569-8.133,78.384-6.533C612.759,597.491,471.321,581.969,493.429,627.454Z" transform="translate(0 -31.064)" fill="none" stroke="#ef4136" stroke-linecap="round" stroke-linejoin="round" stroke-width="3"/><path d="M134.936,423.8V341.693l32.843-31.67,38.707,63.339V467.2Zm71.478,44.8,76.456-49.4V336.856l-76.456,38.228M282.7,336.856l-38.816-58.812L167.431,309.8M126.262,429.779l-22.348,12.938m92.735,33.623L174.3,489.279m11.348-6.569L114.5,436.836m175.848-15.879,20,11.762m0-79.984-20-11.762m8.959,86.107V346.828" transform="translate(0 -31.064)" fill="none" stroke="#ef4136" stroke-linecap="round" stroke-linejoin="round" stroke-width="6"/><line x1="92.629" y1="475.747" x2="321.629" y2="475.747" fill="none" stroke="#072c50" stroke-linecap="round" stroke-linejoin="round"/><line x1="442.072" y1="468.247" x2="671.072" y2="468.247" fill="none" stroke="#072c50" stroke-linecap="round" stroke-linejoin="round"/><line x1="87.788" y1="765.247" x2="316.788" y2="765.247" fill="none" stroke="#072c50" stroke-linecap="round" stroke-linejoin="round"/><line x1="441.383" y1="765.247" x2="675.383" y2="765.247" fill="none" stroke="#072c50" stroke-linecap="round" stroke-linejoin="round"/></g></g></svg>