<svg xmlns="http://www.w3.org/2000/svg" xmlns:xlink="http://www.w3.org/1999/xlink" viewBox="0 0 165.298 156.7"><defs><linearGradient id="New_Gradient_Swatch" x1="14.229" y1="102.909" x2="41.688" y2="102.909" gradientUnits="userSpaceOnUse"><stop offset="0" stop-color="#ef4136"/><stop offset="0.144" stop-color="#f15238"/><stop offset="0.725" stop-color="#f8933e"/><stop offset="1" stop-color="#fbac40"/></linearGradient><linearGradient id="New_Gradient_Swatch-2" x1="13.729" y1="102.909" x2="42.188" y2="102.909" xlink:href="#New_Gradient_Swatch"/><linearGradient id="New_Gradient_Swatch-3" x1="109.88" y1="49.272" x2="164.798" y2="49.272" xlink:href="#New_Gradient_Swatch"/><linearGradient id="New_Gradient_Swatch-4" x1="109.38" y1="49.272" x2="165.298" y2="49.272" xlink:href="#New_Gradient_Swatch"/><linearGradient id="New_Gradient_Swatch-5" x1="123.609" y1="37.679" x2="151.068" y2="37.679" xlink:href="#New_Gradient_Swatch"/><linearGradient id="New_Gradient_Swatch-6" x1="123.109" y1="37.679" x2="151.568" y2="37.679" xlink:href="#New_Gradient_Swatch"/><linearGradient id="New_Gradient_Swatch-7" x1="28.023" y1="89.513" x2="138.773" y2="89.513" xlink:href="#New_Gradient_Swatch"/><linearGradient id="New_Gradient_Swatch-8" x1="28.023" y1="125.721" x2="138.773" y2="125.721" xlink:href="#New_Gradient_Swatch"/><linearGradient id="New_Gradient_Swatch-9" x1="28.023" y1="153.79" x2="138.773" y2="153.79" xlink:href="#New_Gradient_Swatch"/><linearGradient id="New_Gradient_Swatch-10" x1="40.523" y1="27.246" x2="78.135" y2="27.246" xlink:href="#New_Gradient_Swatch"/><linearGradient id="New_Gradient_Swatch-11" x1="40.023" y1="27.246" x2="78.635" y2="27.246" xlink:href="#New_Gradient_Swatch"/><linearGradient id="New_Gradient_Swatch-12" x1="49.926" y1="19.306" x2="68.732" y2="19.306" xlink:href="#New_Gradient_Swatch"/><linearGradient id="New_Gradient_Swatch-13" x1="49.426" y1="19.306" x2="69.232" y2="19.306" xlink:href="#New_Gradient_Swatch"/><linearGradient id="New_Gradient_Swatch-14" x1="57.814" y1="86.528" x2="135.512" y2="86.528" xlink:href="#New_Gradient_Swatch"/><linearGradient id="New_Gradient_Swatch-15" x1="57.814" y1="73.989" x2="135.512" y2="73.989" xlink:href="#New_Gradient_Swatch"/><linearGradient id="New_Gradient_Swatch-16" x1="57.814" y1="55.217" x2="135.512" y2="55.217" xlink:href="#New_Gradient_Swatch"/><linearGradient id="New_Gradient_Swatch-17" x1="38.513" y1="66.88" x2="58.843" y2="66.88" xlink:href="#New_Gradient_Swatch"/><linearGradient id="New_Gradient_Swatch-18" x1="0.5" y1="114.503" x2="55.417" y2="114.503" xlink:href="#New_Gradient_Swatch"/><linearGradient id="New_Gradient_Swatch-19" x1="0" y1="114.503" x2="55.917" y2="114.503" xlink:href="#New_Gradient_Swatch"/></defs><g id="Layer_2" data-name="Layer 2"><g id="Layer_1-2" data-name="Layer 1"><path d="M27.959,89.18a13.729,13.729,0,1,0,13.729,13.729A13.745,13.745,0,0,0,27.959,89.18Zm0,22.912a9.184,9.184,0,1,1,9.168-9.183A9.19,9.19,0,0,1,27.959,112.092Z" stroke-miterlimit="10" fill="url(#New_Gradient_Swatch)" stroke="url(#New_Gradient_Swatch-2)"/><path d="M137.339,10.22a27.464,27.464,0,0,0-23.36,41.9l21.8,35.125a2.287,2.287,0,0,0,1.944,1.082h.018a2.289,2.289,0,0,0,1.945-1.113l21.241-35.465A27.464,27.464,0,0,0,137.339,10.22ZM157,49.4,137.685,81.641,117.869,49.706A22.9,22.9,0,1,1,157,49.4Z" stroke-miterlimit="10" fill="url(#New_Gradient_Swatch-3)" stroke="url(#New_Gradient_Swatch-4)"/><path d="M137.339,23.949a13.73,13.73,0,1,0,13.729,13.73A13.745,13.745,0,0,0,137.339,23.949Zm0,22.913a9.184,9.184,0,1,1,9.168-9.183A9.191,9.191,0,0,1,137.339,46.862Z" stroke-miterlimit="10" fill="url(#New_Gradient_Swatch-5)" stroke="url(#New_Gradient_Swatch-6)"/><path d="M137.357,88.324q-.417,1.191-.848,2.352" fill="none" stroke-miterlimit="10" stroke-width="3" stroke="url(#New_Gradient_Swatch-7)"/><path d="M134.694,95.315C108.4,158.968,50.476,156.6,33.268,154.364" fill="none" stroke-miterlimit="10" stroke-width="3" stroke-dasharray="4.98 4.98" stroke="url(#New_Gradient_Swatch-8)"/><path d="M30.809,154.008c-1.588-.257-2.455-.453-2.455-.453" fill="none" stroke-miterlimit="10" stroke-width="3" stroke="url(#New_Gradient_Swatch-9)"/><path d="M59.329.5a18.81,18.81,0,0,0-16,28.7L58.258,53.252a1.568,1.568,0,0,0,1.332.741H59.6a1.564,1.564,0,0,0,1.332-.762l14.548-24.29A18.81,18.81,0,0,0,59.329.5ZM72.792,27.332,59.566,49.415,45.994,27.544a15.682,15.682,0,1,1,26.8-.212Z" stroke-miterlimit="10" fill="url(#New_Gradient_Swatch-10)" stroke="url(#New_Gradient_Swatch-11)"/><path d="M59.329,9.9a9.4,9.4,0,1,0,9.4,9.4A9.413,9.413,0,0,0,59.329,9.9Zm0,15.693a6.29,6.29,0,1,1,6.279-6.29A6.295,6.295,0,0,1,59.329,25.6Z" stroke-miterlimit="10" fill="url(#New_Gradient_Swatch-12)" stroke="url(#New_Gradient_Swatch-13)"/><path d="M135.181,86.285s-.879.2-2.452.471" fill="none" stroke-miterlimit="10" stroke-width="3" stroke="url(#New_Gradient_Swatch-14)"/><path d="M127.722,87.486c-16.166,1.955-54,2.854-66.809-28.733" fill="none" stroke-miterlimit="10" stroke-width="3" stroke-dasharray="5.064 5.064" stroke="url(#New_Gradient_Swatch-15)"/><path d="M60.018,56.373q-.405-1.163-.765-2.38" fill="none" stroke-miterlimit="10" stroke-width="3" stroke="url(#New_Gradient_Swatch-16)"/><path d="M39.905,80C44.13,69.464,49.95,60.21,57.965,54.422" fill="none" stroke-miterlimit="10" stroke-width="3" stroke-dasharray="5" stroke="url(#New_Gradient_Swatch-17)"/><path d="M27.959,75.45a27.464,27.464,0,0,0-23.36,41.9l21.8,35.125a2.287,2.287,0,0,0,1.944,1.082h.018a2.288,2.288,0,0,0,1.945-1.112l21.241-35.466A27.465,27.465,0,0,0,27.959,75.45Zm19.658,39.177L28.305,146.871,8.488,114.937a22.9,22.9,0,1,1,39.129-.31Z" stroke-miterlimit="10" fill="url(#New_Gradient_Swatch-18)" stroke="url(#New_Gradient_Swatch-19)"/></g></g></svg>