<svg xmlns="http://www.w3.org/2000/svg" viewBox="0 0 78.33 89.72"><g id="Layer_2" data-name="Layer 2"><g id="_0" data-name="0"><polygon points="21.04 1.58 22.56 3.92 36.33 25.05 36.61 25.49 36.93 25.87 37.12 26.11 37.24 26.26 37.54 26.67 37.58 26.73 37.79 27.04 38.09 27.45 38.12 27.49 38.11 27.5 38.01 27.66 37.97 27.8 38 27.91 38.3 28.36 38.3 28.31 38.42 28.04 38.42 28.04 38.42 28.04 38.44 28.01 38.57 27.84 38.59 27.83 38.78 27.66 38.79 27.66 38.83 27.63 39.03 27.51 39.08 27.48 39.21 27.42 39.28 27.39 39.46 27.29 39.51 27.27 39.65 27.18 39.7 27.16 39.79 27.1 39.85 27.07 39.88 27.04 39.94 27.01 39.94 27 39.95 26.98 39.95 26.98 39.8 26.74 39.74 26.69 39.71 26.67 39.57 26.65 39.38 26.67 39.31 26.7 39.28 26.65 39.24 26.57 39.03 26.17 38.82 25.67 38.79 25.61 38.67 25.39 38.66 25.37 38.6 25.2 38.57 25.12 38.55 25.05 38.46 24.65 38.41 24.46 38.41 24.45 38.4 24.42 38.4 24.4 38.39 24.37 38.38 24.34 38.38 24.34 38.38 24.32 38.3 23.83 38.25 23.16 31.24 13.48 27.89 8.87 24.64 4.39 21.47 0.03 21.4 0.1 21.33 0.17 21.25 0.24 21.18 0.32 21.11 0.41 21.04 0.49 20.97 0.58 20.9 0.67 20.84 0.75 20.79 0.83 20.73 0.92 20.69 0.99 20.68 1 20.68 1.01 20.68 1.02 20.68 1.03 20.68 1.03 21.04 1.58" fill="#8b8b8b" stroke="#ef4136" stroke-linecap="round" stroke-linejoin="round" stroke-width="0.06"/><polygon points="14.52 85.69 14.52 85.24 14.52 85.24 14.52 85.69" fill="#8b8b8b" stroke="#ef4136" stroke-linecap="round" stroke-linejoin="round" stroke-width="0.06"/><polygon points="14.37 85.11 14.38 85.11 14.4 85.11 14.41 85.1 14.42 85.09 14.43 85.08 14.44 85.07 14.34 85.11 14.36 85.11 14.37 85.11" fill="#8b8b8b" stroke="#ef4136" stroke-linecap="round" stroke-linejoin="round" stroke-width="0.06"/><polygon points="78.3 21.51 78.3 21.49 78.3 21.48 78.29 21.46 78.29 21.44 78.29 21.42 78.29 21.41 78.29 21.39 78.29 21.37 78.28 21.36 78.28 21.34 78.28 21.32 78.28 21.31 78.28 21.26 78.27 21.14 78.27 21.02 78.26 20.89 78.24 20.76 78.23 20.63 78.22 20.5 78.2 20.37 78.18 20.24 78.16 20.11 78.14 19.98 78.12 19.86 78.11 19.84 78.11 19.82 78.1 19.8 78.1 19.8 78.09 19.79 78.09 19.79 74 20.63 45.08 26.57 44.5 26.69 42.12 26.69 42.14 26.72 42.16 26.76 42.18 26.8 42.19 26.85 42.2 26.9 42.2 26.95 42.2 27.35 41.89 27.43 41.8 27.46 41.55 27.53 41.48 27.55 41.41 27.48 41.25 27.37 41.08 27.34 40.92 27.37 40.78 27.48 40.67 27.65 40.6 27.87 40.57 28.12 40.58 28.39 40.63 28.67 40.73 28.92 40.85 29.14 41 29.31 41.17 29.41 41.33 29.44 41.49 29.4 41.63 29.3 41.74 29.13 41.78 29.02 41.84 29.02 41.8 29.24 41.62 29.64 41.37 29.98 41.05 30.23 40.7 30.37 40.34 30.4 40.35 30.35 40.33 30.3 40.32 30.26 40.27 30.22 40.22 30.17 40.15 30.14 40.06 30.08 39.99 30.07 39.84 30 39.79 29.99 39.58 29.94 39.51 29.93 39.47 29.93 39.31 29.87 39.1 29.83 39.09 29.83 39.05 29.8 38.84 29.73 38.81 29.71 38.64 29.62 38.63 29.61 38.61 29.59 38.51 29.5 38.49 29.48 38.47 29.43 38.46 29.43 38.34 29.18 38.36 29.24 38.44 29.39 38.25 29.99 38.24 30.05 38.3 30.13 38.43 30.23 38.55 30.29 38.49 30.45 38.28 30.95 38.03 31.44 38 31.54 37.91 31.73 37.83 31.85 37.48 32.28 37.1 32.7 36.66 33.09 33.2 45.42 31.54 51.38 29.91 57.18 28.3 62.85 28.35 62.9 28.41 62.95 28.47 63.01 28.55 63.06 28.62 63.12 28.7 63.18 28.79 63.23 28.88 63.29 28.96 63.34 29.05 63.4 29.14 63.45 29.23 63.49 29.25 63.5 29.26 63.51 29.27 63.51 29.28 63.51 29.29 63.52 29.29 63.51 29.3 63.51 29.41 63.15 31.15 57.93 38.91 34.16 39.09 33.64 39.09 33.63 39.21 33.09 39.37 32.53 39.44 32.27 39.53 31.97 39.68 31.43 39.83 30.89 39.87 30.76 40.85 30.77 39.58 72.46 24.98 69.76 24.83 69.96 24.75 69.72 11.04 67.18 0.03 80.33 0.25 80.81 0.38 80.84 0.43 80.86 0.48 80.87 0.51 80.94 0.51 81.29 0.44 81.32 0.44 81.33 0.44 81.35 0.44 81.37 0.45 81.38 0.46 81.4 0.47 81.41 0.47 81.43 0.48 81.44 0.5 81.45 0.51 81.46 0.51 81.46 0.51 81.54 0.52 81.69 0.51 81.54 0.97 81.66 2.04 81.28 14.24 84.47 14.31 84.37 14.36 84.3 14.36 84.3 14.38 84.28 14.45 84.46 14.48 84.53 14.52 84.54 14.59 84.55 14.66 84.57 14.7 84.58 14.86 84.97 14.66 85.06 14.66 85.08 14.66 85.1 14.66 85.11 14.67 85.13 14.68 85.15 14.69 85.16 14.7 85.18 14.71 85.19 14.72 85.2 14.74 85.21 14.75 85.22 14.76 85.22 15.23 85.35 15.23 85.35 15.24 85.35 15.24 85.35 15.25 85.36 15.25 85.36 15.26 85.37 15.26 85.37 15.26 85.38 15.27 85.39 15.27 85.39 15.27 85.4 15.27 85.41 16.25 84.99 16.3 85 30.3 88.66 30.52 88.72 30.52 89.05 30.07 89.27 30.08 89.27 30.08 89.27 30.09 89.27 30.09 89.27 30.1 89.27 30.52 89.38 30.52 89.47 30.52 89.69 30.52 89.47 30.83 89.55 45.85 81.8 45.86 81.02 45.84 81.01 30.81 88.66 30.81 88.66 30.8 88.66 30.8 88.66 30.79 88.66 30.79 88.66 31.49 88.3 41.5 83.21 41.5 83.21 41.52 83.2 42.04 82.93 42.09 82.82 41.1 81.55 41.34 81.54 41.66 81.5 41.88 81.45 42.51 30.79 42.82 30.78 47.45 30.66 47.93 28.95 56.84 26.78 63.54 25.14 78.3 21.55 78.3 21.51" fill="#8b8b8b" stroke="#ef4136" stroke-linecap="round" stroke-linejoin="round" stroke-width="0.06"/></g></g></svg>