<svg xmlns="http://www.w3.org/2000/svg" viewBox="0 0 205 205"><g id="Layer_2" data-name="Layer 2"><g id="Layer_1-2" data-name="Layer 1"><path d="M28.235,174.863c-3.389,0-5.141-1.79-5.276-4.775a.091.091,0,0,1,.1-.1h.828a.091.091,0,0,1,.1.1c.154,2.465,1.329,3.948,4.294,3.948,2.157,0,3.871-.887,3.871-3.1,0-4.256-8.9-1.29-8.9-6.3,0-2.369,1.926-3.62,4.641-3.62,3.023,0,4.776,1.385,4.949,4.121a.091.091,0,0,1-.1.1h-.828a.091.091,0,0,1-.1-.1c-.134-2.215-1.386-3.275-3.947-3.275-2.311,0-3.7.867-3.7,2.716,0,3.967,8.9,1.078,8.9,6.277C33.069,173.555,31.008,174.863,28.235,174.863Z" fill="#072c50"/><path d="M44.63,174.922c-1.984,0-3.235-1.291-3.235-4.006v-1.887l-.02-4.16a.092.092,0,0,1,.1-.1h.789a.091.091,0,0,1,.1.1l-.019,4.16v1.791c0,2.388,1,3.292,2.5,3.292,1.483,0,2.485-1.116,3.139-2.926v-2.157l-.019-4.16a.091.091,0,0,1,.1-.1h.79a.091.091,0,0,1,.1.1l-.038,4.256.019,5.469a.091.091,0,0,1-.1.1h-.751a.091.091,0,0,1-.1-.1l.039-1.945A3.815,3.815,0,0,1,44.63,174.922Z" fill="#072c50"/><path d="M61.465,174.883c-2.523,0-4.082-1.136-4.121-3.6a.091.091,0,0,1,.1-.1h.732a.092.092,0,0,1,.1.1c.038,1.984,1.155,2.889,3.215,2.889,1.7,0,2.908-.771,2.908-2.138,0-3.216-6.817-.886-6.817-4.737,0-1.791,1.5-2.715,3.62-2.715,2.1,0,3.775.924,3.832,3.023a.09.09,0,0,1-.1.1h-.693a.09.09,0,0,1-.1-.1c-.077-1.637-1.348-2.311-2.947-2.311-1.655,0-2.715.655-2.715,1.965,0,2.927,6.836.6,6.836,4.718C65.316,173.805,63.641,174.883,61.465,174.883Z" fill="#072c50"/><path d="M77.724,174.556a.108.108,0,0,1-.1.115,4.842,4.842,0,0,1-1.1.174c-1.29,0-2.253-.656-2.253-2.754v-6.528H73.1a.091.091,0,0,1-.1-.1v-.6a.091.091,0,0,1,.1-.1h1.175l-.02-2.387a.092.092,0,0,1,.1-.1h.789a.092.092,0,0,1,.1.1l-.02,2.387h2.407a.092.092,0,0,1,.1.1v.6a.092.092,0,0,1-.1.1H75.22v6.528c0,1.482.385,1.926,1.367,1.926a4.177,4.177,0,0,0,1.04-.116.088.088,0,0,1,.1.077Z" fill="#072c50"/><path d="M92.459,174.69a.09.09,0,0,1-.1-.1l.038-1.887a3.509,3.509,0,0,1-3.331,2.156c-2.581,0-3.967-2.233-3.967-5.122,0-2.849,1.406-5.16,3.967-5.16a3.435,3.435,0,0,1,3.331,2.156l-.038-1.868a.091.091,0,0,1,.1-.1h.77a.092.092,0,0,1,.1.1l-.039,4.68.039,5.045a.091.091,0,0,1-.1.1Zm-3.216-.578c1.926,0,3.177-1.443,3.2-4.274s-1.156-4.506-3.158-4.506c-2.215,0-3.216,1.906-3.216,4.314C86.066,172.129,87.048,174.112,89.243,174.112Z" fill="#072c50"/><path d="M102.266,163.656a.09.09,0,0,1-.1-.095v-1.175a.091.091,0,0,1,.1-.1h.79a.092.092,0,0,1,.1.1v1.175a.091.091,0,0,1-.1.095Zm0,11.034a.09.09,0,0,1-.1-.1l.019-5.142-.019-4.583a.091.091,0,0,1,.1-.1h.79a.091.091,0,0,1,.1.1l-.019,4.565.019,5.16a.091.091,0,0,1-.1.1Z" fill="#072c50"/><path d="M112.091,174.69a.09.09,0,0,1-.1-.1l.038-4.255-.019-5.47a.091.091,0,0,1,.1-.1h.751a.092.092,0,0,1,.1.1l-.039,1.945a3.815,3.815,0,0,1,3.389-2.272c1.984,0,3.235,1.29,3.235,4.006v1.887l.02,4.159a.091.091,0,0,1-.1.1h-.789a.091.091,0,0,1-.1-.1l.02-4.159v-1.791c0-2.388-1-3.293-2.5-3.293-1.483,0-2.484,1.117-3.138,2.927v2.157l.019,4.159a.091.091,0,0,1-.1.1Z" fill="#072c50"/><path d="M135.224,174.69a.091.091,0,0,1-.1-.1l.039-1.887a3.509,3.509,0,0,1-3.332,2.156c-2.58,0-3.966-2.233-3.966-5.122,0-2.849,1.405-5.16,3.966-5.16a3.437,3.437,0,0,1,3.332,2.156l-.039-1.868a.092.092,0,0,1,.1-.1h.77a.091.091,0,0,1,.1.1l-.038,4.68.038,5.045a.09.09,0,0,1-.1.1Zm-3.216-.578c1.926,0,3.177-1.443,3.2-4.274s-1.156-4.506-3.159-4.506c-2.214,0-3.215,1.906-3.215,4.314C128.831,172.129,129.813,174.112,132.008,174.112Z" fill="#072c50"/><path d="M149.094,174.883a3.435,3.435,0,0,1-3.331-2.156l.038,1.848a.09.09,0,0,1-.1.1h-.77a.091.091,0,0,1-.1-.1l.039-7.818-.039-5.45a.091.091,0,0,1,.1-.1h.789a.09.09,0,0,1,.1.1l-.019,5.353a3.507,3.507,0,0,1,3.293-2.079c2.58,0,3.967,2.233,3.967,5.122C153.061,172.553,151.655,174.883,149.094,174.883Zm-.212-.751c2.215,0,3.2-1.906,3.2-4.333,0-2.484-.963-4.467-3.178-4.467-1.906,0-3.158,1.444-3.177,4.274C145.705,172.457,146.879,174.132,148.882,174.132Z" fill="#072c50"/><path d="M161.655,174.69a.091.091,0,0,1-.1-.1l.039-6.779-.039-6.508a.091.091,0,0,1,.1-.1h.771a.091.091,0,0,1,.1.1l-.039,6.47.039,6.817a.091.091,0,0,1-.1.1Z" fill="#072c50"/><path d="M179.51,171.186c.058,0,.1.039.077.1a3.86,3.86,0,0,1-4.083,3.62c-2.926,0-4.467-2.1-4.467-5.141s1.694-5.2,4.352-5.2c2.638,0,4.217,1.848,4.256,5.044a.092.092,0,0,1-.1.1l-7.568.02c0,2.792,1.2,4.428,3.544,4.428,1.81,0,2.811-1.078,3.12-2.869a.122.122,0,0,1,.115-.1Zm-4.121-5.873c-1.964,0-3.139,1.405-3.37,3.62h6.6C178.605,166.93,177.507,165.313,175.389,165.313Z" fill="#072c50"/><path d="M22.351,198.019c-3.794,0-6.008-2.485-6.008-7.029,0-4.237,2.272-6.875,6.027-6.875,2.561,0,4.814,1.271,5.334,4.718.019.058-.019.1-.077.1h-.809a.122.122,0,0,1-.115-.1,4.106,4.106,0,0,0-4.371-3.87c-3.139,0-4.95,2.465-4.95,6.046,0,4.16,1.888,6.162,4.95,6.162a4.143,4.143,0,0,0,4.467-4.159.091.091,0,0,1,.1-.1h.827a.092.092,0,0,1,.1.1A5.11,5.11,0,0,1,22.351,198.019Z" fill="#072c50"/><path d="M40.459,198.019c-2.869,0-4.429-2.061-4.429-5.162s1.56-5.179,4.429-5.179c2.85,0,4.429,2.08,4.429,5.179C44.888,195.938,43.309,198.019,40.459,198.019Zm0-.751c2.311,0,3.447-1.714,3.447-4.411,0-2.676-1.156-4.428-3.447-4.428-2.311.019-3.466,1.733-3.466,4.428S38.167,197.268,40.459,197.268Z" fill="#072c50"/><path d="M54.252,193.666l.019,4.044a.091.091,0,0,1-.1.1h-.789a.091.091,0,0,1-.1-.1l.038-4.044-.019-5.681a.09.09,0,0,1,.1-.1h.751a.09.09,0,0,1,.1.1l-.038,1.946a3.62,3.62,0,0,1,3.216-2.273,2.739,2.739,0,0,1,2.869,2.273,3.584,3.584,0,0,1,3.2-2.273c1.906,0,3.061,1.252,3.061,4.006v2l.02,4.044a.091.091,0,0,1-.1.1h-.789a.091.091,0,0,1-.1-.1l.02-4.044V191.76c0-2.407-.925-3.293-2.33-3.293-1.29,0-2.177.982-2.812,2.542.019.212.019.424.019.655v2l.02,4.044a.091.091,0,0,1-.1.1h-.79a.091.091,0,0,1-.1-.1l.019-4.044V191.76c0-2.407-.924-3.293-2.33-3.293s-2.311,1.137-2.966,2.928Z" fill="#072c50"/><path d="M76.194,193.666l.019,4.044a.091.091,0,0,1-.1.1h-.79a.091.091,0,0,1-.1-.1l.039-4.044-.02-5.681a.091.091,0,0,1,.1-.1H76.1a.091.091,0,0,1,.1.1l-.039,1.946a3.621,3.621,0,0,1,3.216-2.273,2.739,2.739,0,0,1,2.869,2.273,3.584,3.584,0,0,1,3.2-2.273c1.906,0,3.062,1.252,3.062,4.006v2l.019,4.044a.091.091,0,0,1-.1.1h-.79a.091.091,0,0,1-.1-.1l.019-4.044V191.76c0-2.407-.924-3.293-2.33-3.293-1.29,0-2.176.982-2.811,2.542.019.212.019.424.019.655v2l.019,4.044a.091.091,0,0,1-.1.1h-.79a.091.091,0,0,1-.1-.1l.019-4.044V191.76c0-2.407-.924-3.293-2.33-3.293s-2.31,1.137-2.965,2.928Z" fill="#072c50"/><path d="M100.331,198.038c-1.984,0-3.236-1.291-3.236-4.006v-1.886l-.019-4.161a.09.09,0,0,1,.1-.1h.79a.09.09,0,0,1,.1.1l-.019,4.161v1.791c0,2.387,1,3.292,2.5,3.292,1.483,0,2.484-1.117,3.139-2.927v-2.156l-.019-4.161a.09.09,0,0,1,.1-.1h.789a.091.091,0,0,1,.1.1l-.039,4.256.02,5.469a.091.091,0,0,1-.1.1h-.751a.091.091,0,0,1-.1-.1l.039-1.944A3.818,3.818,0,0,1,100.331,198.038Z" fill="#072c50"/><path d="M113.488,197.807a.091.091,0,0,1-.1-.1l.038-4.255-.019-5.47a.09.09,0,0,1,.1-.1h.751a.09.09,0,0,1,.1.1l-.038,1.946a3.813,3.813,0,0,1,3.389-2.273c1.983,0,3.235,1.29,3.235,4.006v1.887l.019,4.159a.091.091,0,0,1-.1.1h-.789a.091.091,0,0,1-.1-.1l.02-4.159V191.76c0-2.388-1-3.293-2.5-3.293-1.483,0-2.484,1.117-3.139,2.928v2.156l.02,4.159a.091.091,0,0,1-.1.1Z" fill="#072c50"/><path d="M129.8,186.772a.09.09,0,0,1-.1-.095V185.5a.091.091,0,0,1,.1-.1h.789a.091.091,0,0,1,.1.1v1.175a.09.09,0,0,1-.1.095Zm0,11.035a.091.091,0,0,1-.1-.1l.019-5.141-.019-4.584a.09.09,0,0,1,.1-.1h.789a.09.09,0,0,1,.1.1l-.019,4.565.019,5.16a.091.091,0,0,1-.1.1Z" fill="#072c50"/><path d="M143.769,197.672a.108.108,0,0,1-.1.115,4.851,4.851,0,0,1-1.1.174c-1.29,0-2.253-.655-2.253-2.754v-6.528h-1.175a.09.09,0,0,1-.1-.1v-.6a.09.09,0,0,1,.1-.1h1.175l-.02-2.388a.092.092,0,0,1,.1-.1h.79a.092.092,0,0,1,.1.1l-.02,2.388h2.407a.091.091,0,0,1,.1.1v.6a.091.091,0,0,1-.1.1h-2.407v6.528c0,1.482.385,1.926,1.367,1.926a4.227,4.227,0,0,0,1.04-.115.088.088,0,0,1,.1.076Z" fill="#072c50"/><path d="M152.226,186.772a.09.09,0,0,1-.1-.095V185.5a.091.091,0,0,1,.1-.1h.79a.092.092,0,0,1,.1.1v1.175a.091.091,0,0,1-.1.095Zm0,11.035a.091.091,0,0,1-.1-.1l.019-5.141-.019-4.584a.09.09,0,0,1,.1-.1h.79a.091.091,0,0,1,.1.1l-.019,4.565.019,5.16a.091.091,0,0,1-.1.1Z" fill="#072c50"/><path d="M170.081,194.3c.058,0,.1.039.077.1a3.862,3.862,0,0,1-4.083,3.621c-2.927,0-4.467-2.1-4.467-5.142s1.694-5.2,4.352-5.2c2.638,0,4.217,1.848,4.256,5.045a.092.092,0,0,1-.1.1l-7.568.02c0,2.792,1.194,4.429,3.544,4.429,1.81,0,2.811-1.079,3.119-2.87a.123.123,0,0,1,.116-.1Zm-4.121-5.873c-1.964,0-3.139,1.405-3.37,3.62h6.6C169.176,190.046,168.078,188.429,165.96,188.429Z" fill="#072c50"/><path d="M182.354,198c-2.523,0-4.083-1.136-4.122-3.6a.092.092,0,0,1,.1-.1h.732a.091.091,0,0,1,.1.1c.038,1.984,1.155,2.889,3.216,2.889,1.694,0,2.907-.77,2.907-2.138,0-3.215-6.817-.885-6.817-4.737,0-1.791,1.5-2.715,3.62-2.715,2.1,0,3.775.924,3.833,3.023a.091.091,0,0,1-.1.1h-.693a.09.09,0,0,1-.1-.1c-.077-1.637-1.348-2.311-2.947-2.311-1.655,0-2.714.655-2.714,1.965,0,2.927,6.836.6,6.836,4.718C186.205,196.921,184.529,198,182.354,198Z" fill="#072c50"/><path d="M52.444,90.189A12.208,12.208,0,1,0,64.652,102.4,12.222,12.222,0,0,0,52.444,90.189Zm0,20.374A8.166,8.166,0,1,1,60.6,102.4,8.172,8.172,0,0,1,52.444,110.563Z" fill="#072c50" stroke="#072c50" stroke-miterlimit="10"/><path d="M149.7,19.979a24.421,24.421,0,0,0-20.772,37.255l19.382,31.233a2.033,2.033,0,0,0,1.729.962h.016a2.032,2.032,0,0,0,1.729-.989L170.676,56.9A24.421,24.421,0,0,0,149.7,19.979Zm17.48,34.836L150.012,83.486l-17.621-28.4a20.36,20.36,0,1,1,34.793-.275Z" fill="#072c50" stroke="#072c50" stroke-miterlimit="10"/><path d="M149.7,32.187A12.208,12.208,0,1,0,161.912,44.4,12.222,12.222,0,0,0,149.7,32.187Zm0,20.374a8.166,8.166,0,1,1,8.152-8.166A8.172,8.172,0,0,1,149.7,52.561Z" fill="#072c50" stroke="#072c50" stroke-miterlimit="10"/><path d="M149.72,89.429q-.417,1.191-.85,2.351" fill="none" stroke="#072c50" stroke-miterlimit="10" stroke-width="3"/><path d="M146.957,96.589c-23.241,54.872-73.187,53.586-89.148,51.643" fill="none" stroke="#072c50" stroke-miterlimit="10" stroke-width="3" stroke-dasharray="5.174 5.174"/><path d="M55.251,147.877c-1.584-.249-2.455-.446-2.455-.446" fill="none" stroke="#072c50" stroke-miterlimit="10" stroke-width="3"/><path d="M80.338,11.337A16.725,16.725,0,0,0,66.112,36.852L79.386,58.243a1.394,1.394,0,0,0,1.184.659h.011a1.4,1.4,0,0,0,1.185-.678L94.7,36.626A16.726,16.726,0,0,0,80.338,11.337ZM92.31,35.2,80.549,54.831,68.481,35.384A13.945,13.945,0,1,1,92.31,35.2Z" fill="#072c50" stroke="#072c50" stroke-miterlimit="10"/><path d="M80.338,19.7A8.361,8.361,0,1,0,88.7,28.059,8.371,8.371,0,0,0,80.338,19.7Zm0,13.953a5.593,5.593,0,1,1,5.583-5.592A5.6,5.6,0,0,1,80.338,33.651Z" fill="#072c50" stroke="#072c50" stroke-miterlimit="10"/><path d="M147.785,87.615s-.884.2-2.453.466" fill="none" stroke="#072c50" stroke-miterlimit="10" stroke-width="3"/><path d="M140.317,88.781c-14.711,1.65-46.993,1.906-58.358-25.133" fill="none" stroke="#072c50" stroke-miterlimit="10" stroke-width="3" stroke-dasharray="5.067 5.067"/><path d="M81.043,61.28q-.411-1.158-.773-2.378" fill="none" stroke="#072c50" stroke-miterlimit="10" stroke-width="3"/><path d="M63.067,82.022C66.824,72.658,72,64.43,79.125,59.283" fill="none" stroke="#072c50" stroke-miterlimit="10" stroke-width="3" stroke-dasharray="5"/><path d="M52.444,77.981a24.42,24.42,0,0,0-20.771,37.255l19.381,31.233a2.035,2.035,0,0,0,1.729.962H52.8a2.033,2.033,0,0,0,1.73-.989l18.887-31.535A24.422,24.422,0,0,0,52.444,77.981Zm17.48,34.836L52.752,141.488l-17.62-28.4a20.36,20.36,0,1,1,34.792-.275Z" fill="#072c50" stroke="#072c50" stroke-miterlimit="10"/><line x1="16.422" y1="156.735" x2="186.089" y2="156.735" fill="none" stroke="#072c50" stroke-linecap="round" stroke-linejoin="round"/><rect x="1" y="1" width="203" height="203" rx="32" stroke-width="2" stroke="#072c50" stroke-linecap="round" stroke-linejoin="round" fill="none"/></g></g></svg>